%
M48
M72
T01C0.02362
T02C0.03200
T03C0.03543
T04C0.03600
T05C0.04000
T06C0.04331
T07C0.08661
%
T01
X86479Y26800
X91479Y31800
X96479Y26400
X109679Y10600
X132279Y36200
X117679Y43200
X109079Y44400
X101279Y43400
X101479Y51800
X107479Y57800
X118079Y58200
X86079Y72600
X112479Y81200
T02
X120979Y81300
X101979Y81300
T03
X146479Y36800
X156479Y36800
X156479Y26800
X146479Y26800
X146479Y16800
X156479Y16800
T04
X80928Y39241
X80928Y48583
X80928Y57457
X80928Y66800
T05
X146479Y66800
X156479Y66800
X156479Y56800
X146479Y56800
X146479Y46800
X156479Y46800
X156479Y76800
X146479Y76800
X146479Y86800
X156479Y86800
T06
X71085Y61879
X71085Y44162
T07
X71479Y30186
X71479Y75855
M30
