G75*
%MOIN*%
%OFA0B0*%
%FSLAX25Y25*%
%IPPOS*%
%LPD*%
%AMOC8*
5,1,8,0,0,1.08239X$1,22.5*
%
%ADD10R,0.03937X0.04331*%
%ADD11C,0.06400*%
%ADD12OC8,0.06600*%
%ADD13C,0.07400*%
%ADD14C,0.12661*%
%ADD15R,0.01370X0.05500*%
%ADD16C,0.05600*%
%ADD17OC8,0.07600*%
%ADD18C,0.01600*%
%ADD19C,0.01000*%
%ADD20OC8,0.04362*%
%ADD21C,0.04362*%
%ADD22R,0.04362X0.04362*%
D10*
X0086479Y0078454D03*
X0086479Y0085146D03*
X0136479Y0085146D03*
X0136479Y0078454D03*
D11*
X0146479Y0036800D03*
X0156479Y0036800D03*
X0156479Y0026800D03*
X0146479Y0026800D03*
X0146479Y0016800D03*
X0156479Y0016800D03*
D12*
X0156479Y0056800D03*
X0146479Y0056800D03*
X0146479Y0066800D03*
X0156479Y0066800D03*
X0156479Y0076800D03*
X0146479Y0076800D03*
X0146479Y0086800D03*
X0156479Y0086800D03*
D13*
X0080928Y0066800D03*
X0080928Y0057457D03*
X0080928Y0048583D03*
X0080928Y0039241D03*
D14*
X0071479Y0030186D03*
X0071479Y0075855D03*
D15*
X0094845Y0066194D03*
X0097404Y0066194D03*
X0099963Y0066194D03*
X0102522Y0066194D03*
X0105081Y0066194D03*
X0107640Y0066194D03*
X0110199Y0066194D03*
X0112758Y0066194D03*
X0115317Y0066194D03*
X0117876Y0066194D03*
X0120435Y0066194D03*
X0122994Y0066194D03*
X0125554Y0066194D03*
X0128113Y0066194D03*
X0128113Y0037406D03*
X0125554Y0037406D03*
X0122994Y0037406D03*
X0120435Y0037406D03*
X0117876Y0037406D03*
X0115317Y0037406D03*
X0112758Y0037406D03*
X0110199Y0037406D03*
X0107640Y0037406D03*
X0105081Y0037406D03*
X0102522Y0037406D03*
X0099963Y0037406D03*
X0097404Y0037406D03*
X0094845Y0037406D03*
D16*
X0101979Y0081300D03*
X0120979Y0081300D03*
D17*
X0146479Y0046800D03*
X0156479Y0046800D03*
D18*
X0058479Y0003800D02*
X0058479Y0094761D01*
X0168180Y0094761D01*
X0168180Y0058635D01*
X0167895Y0058919D01*
X0162895Y0063919D01*
X0161976Y0064300D01*
X0161474Y0064300D01*
X0161779Y0064605D01*
X0161779Y0068995D01*
X0161774Y0069000D01*
X0162036Y0069000D01*
X0163065Y0069426D01*
X0163852Y0070214D01*
X0164279Y0071243D01*
X0164279Y0092357D01*
X0163852Y0093386D01*
X0163065Y0094174D01*
X0162036Y0094600D01*
X0080922Y0094600D01*
X0079893Y0094174D01*
X0079105Y0093386D01*
X0078679Y0092357D01*
X0078679Y0080242D01*
X0078541Y0080574D01*
X0076198Y0082918D01*
X0073136Y0084186D01*
X0069822Y0084186D01*
X0066760Y0082918D01*
X0064416Y0080574D01*
X0063148Y0077512D01*
X0063148Y0074198D01*
X0064416Y0071136D01*
X0066760Y0068793D01*
X0069822Y0067524D01*
X0073136Y0067524D01*
X0075729Y0068598D01*
X0075563Y0068088D01*
X0075428Y0067233D01*
X0075428Y0066900D01*
X0080827Y0066900D01*
X0080827Y0066700D01*
X0075428Y0066700D01*
X0075428Y0066367D01*
X0075563Y0065512D01*
X0075831Y0064689D01*
X0076224Y0063917D01*
X0076732Y0063217D01*
X0077345Y0062605D01*
X0077749Y0062311D01*
X0077699Y0062290D01*
X0076095Y0060686D01*
X0075228Y0058591D01*
X0075228Y0056324D01*
X0076095Y0054229D01*
X0077304Y0053020D01*
X0076095Y0051812D01*
X0075228Y0049717D01*
X0075228Y0047450D01*
X0076095Y0045355D01*
X0077538Y0043912D01*
X0076095Y0042470D01*
X0075228Y0040375D01*
X0075228Y0038107D01*
X0075456Y0037555D01*
X0073136Y0038517D01*
X0069822Y0038517D01*
X0066760Y0037248D01*
X0064416Y0034905D01*
X0063148Y0031843D01*
X0063148Y0028529D01*
X0064416Y0025467D01*
X0066760Y0023123D01*
X0069822Y0021855D01*
X0073136Y0021855D01*
X0076198Y0023123D01*
X0078541Y0025467D01*
X0079809Y0028529D01*
X0079809Y0031843D01*
X0078964Y0033885D01*
X0079794Y0033541D01*
X0082061Y0033541D01*
X0084156Y0034409D01*
X0085760Y0036012D01*
X0086628Y0038107D01*
X0086628Y0039013D01*
X0097674Y0050060D01*
X0097934Y0049432D01*
X0099110Y0048255D01*
X0100647Y0047619D01*
X0102310Y0047619D01*
X0103847Y0048255D01*
X0104892Y0049300D01*
X0105443Y0049300D01*
X0103252Y0047108D01*
X0102110Y0047581D01*
X0100447Y0047581D01*
X0098910Y0046945D01*
X0097734Y0045768D01*
X0097098Y0044232D01*
X0097098Y0042568D01*
X0097268Y0042156D01*
X0093331Y0042156D01*
X0092160Y0040985D01*
X0092160Y0035981D01*
X0088469Y0035981D01*
X0087298Y0034810D01*
X0087298Y0030981D01*
X0083469Y0030981D01*
X0082298Y0029810D01*
X0082298Y0023790D01*
X0083469Y0022619D01*
X0083979Y0022619D01*
X0083979Y0011303D01*
X0084359Y0010384D01*
X0090063Y0004681D01*
X0090981Y0004300D01*
X0161976Y0004300D01*
X0162895Y0004681D01*
X0163598Y0005384D01*
X0168180Y0009965D01*
X0168180Y0003800D01*
X0058479Y0003800D01*
X0058479Y0004012D02*
X0168180Y0004012D01*
X0168180Y0005610D02*
X0163825Y0005610D01*
X0165423Y0007209D02*
X0168180Y0007209D01*
X0168180Y0008807D02*
X0167022Y0008807D01*
X0163979Y0012836D02*
X0163979Y0032297D01*
X0163598Y0033216D01*
X0162895Y0033919D01*
X0161494Y0035320D01*
X0161679Y0035766D01*
X0161679Y0037834D01*
X0160887Y0039746D01*
X0159424Y0041208D01*
X0158988Y0041389D01*
X0162079Y0044480D01*
X0162079Y0046600D01*
X0156679Y0046600D01*
X0156679Y0047000D01*
X0162079Y0047000D01*
X0162079Y0049120D01*
X0159186Y0052012D01*
X0161779Y0054605D01*
X0161779Y0057964D01*
X0163979Y0055764D01*
X0163979Y0012836D01*
X0163979Y0012836D01*
X0163979Y0013603D02*
X0163979Y0013603D01*
X0163979Y0015201D02*
X0163979Y0015201D01*
X0163979Y0016800D02*
X0163979Y0016800D01*
X0163979Y0018399D02*
X0163979Y0018399D01*
X0163979Y0019997D02*
X0163979Y0019997D01*
X0163979Y0021596D02*
X0163979Y0021596D01*
X0163979Y0023194D02*
X0163979Y0023194D01*
X0163979Y0024793D02*
X0163979Y0024793D01*
X0163979Y0026391D02*
X0163979Y0026391D01*
X0163979Y0027990D02*
X0163979Y0027990D01*
X0163979Y0029588D02*
X0163979Y0029588D01*
X0163979Y0031187D02*
X0163979Y0031187D01*
X0163979Y0032785D02*
X0163777Y0032785D01*
X0163979Y0034384D02*
X0162431Y0034384D01*
X0161679Y0035982D02*
X0163979Y0035982D01*
X0163979Y0037581D02*
X0161679Y0037581D01*
X0161122Y0039179D02*
X0163979Y0039179D01*
X0163979Y0040778D02*
X0159855Y0040778D01*
X0159975Y0042376D02*
X0163979Y0042376D01*
X0163979Y0043975D02*
X0161573Y0043975D01*
X0162079Y0045573D02*
X0163979Y0045573D01*
X0163979Y0047172D02*
X0162079Y0047172D01*
X0162079Y0048770D02*
X0163979Y0048770D01*
X0163979Y0050369D02*
X0160830Y0050369D01*
X0159231Y0051967D02*
X0163979Y0051967D01*
X0163979Y0053566D02*
X0160740Y0053566D01*
X0161779Y0055164D02*
X0163979Y0055164D01*
X0162980Y0056763D02*
X0161779Y0056763D01*
X0166854Y0059960D02*
X0168180Y0059960D01*
X0168180Y0061558D02*
X0165256Y0061558D01*
X0163657Y0063157D02*
X0168180Y0063157D01*
X0168180Y0064755D02*
X0161779Y0064755D01*
X0161779Y0066354D02*
X0168180Y0066354D01*
X0168180Y0067952D02*
X0161779Y0067952D01*
X0163189Y0069551D02*
X0168180Y0069551D01*
X0168180Y0071149D02*
X0164240Y0071149D01*
X0161479Y0071800D02*
X0161479Y0091800D01*
X0081479Y0091800D01*
X0081479Y0076800D01*
X0079615Y0073728D02*
X0081043Y0072300D01*
X0081028Y0072300D01*
X0081028Y0066900D01*
X0086428Y0066900D01*
X0086428Y0067233D01*
X0086292Y0068088D01*
X0086185Y0068419D01*
X0089088Y0068419D01*
X0090260Y0069590D01*
X0090260Y0075610D01*
X0090157Y0075713D01*
X0090247Y0076051D01*
X0090247Y0078269D01*
X0086663Y0078269D01*
X0086663Y0078638D01*
X0090247Y0078638D01*
X0090247Y0079000D01*
X0095319Y0079000D01*
X0095393Y0078926D01*
X0096422Y0078500D01*
X0097991Y0078500D01*
X0099260Y0077231D01*
X0101024Y0076500D01*
X0102934Y0076500D01*
X0104698Y0077231D01*
X0106048Y0078581D01*
X0106779Y0080345D01*
X0106779Y0082255D01*
X0106048Y0084019D01*
X0104698Y0085369D01*
X0102934Y0086100D01*
X0101024Y0086100D01*
X0099260Y0085369D01*
X0098064Y0084174D01*
X0097036Y0084600D01*
X0090985Y0084600D01*
X0090447Y0085138D01*
X0090447Y0088140D01*
X0089587Y0089000D01*
X0129719Y0089000D01*
X0129105Y0088386D01*
X0124893Y0084174D01*
X0123698Y0085369D01*
X0121934Y0086100D01*
X0120024Y0086100D01*
X0118260Y0085369D01*
X0116909Y0084019D01*
X0116660Y0083416D01*
X0116660Y0084210D01*
X0115488Y0085381D01*
X0109469Y0085381D01*
X0108298Y0084210D01*
X0108298Y0078190D01*
X0108816Y0077672D01*
X0105359Y0074216D01*
X0104979Y0073297D01*
X0104979Y0070944D01*
X0103568Y0070944D01*
X0103368Y0070744D01*
X0102522Y0070744D01*
X0101676Y0070744D01*
X0101476Y0070944D01*
X0093331Y0070944D01*
X0092160Y0069772D01*
X0092160Y0062615D01*
X0092379Y0062396D01*
X0092379Y0061636D01*
X0090701Y0059957D01*
X0086062Y0059957D01*
X0085760Y0060686D01*
X0084156Y0062290D01*
X0084106Y0062311D01*
X0084511Y0062605D01*
X0085123Y0063217D01*
X0085632Y0063917D01*
X0086025Y0064689D01*
X0086292Y0065512D01*
X0086428Y0066367D01*
X0086428Y0066700D01*
X0081028Y0066700D01*
X0081028Y0066900D01*
X0080828Y0066900D01*
X0080828Y0072300D01*
X0080495Y0072300D01*
X0079640Y0072165D01*
X0078863Y0071912D01*
X0079615Y0073728D01*
X0079209Y0072748D02*
X0080595Y0072748D01*
X0080828Y0071149D02*
X0081028Y0071149D01*
X0081028Y0069551D02*
X0080828Y0069551D01*
X0080828Y0067952D02*
X0081028Y0067952D01*
X0086314Y0067952D02*
X0092160Y0067952D01*
X0092160Y0066354D02*
X0086425Y0066354D01*
X0086046Y0064755D02*
X0092160Y0064755D01*
X0092160Y0063157D02*
X0085063Y0063157D01*
X0084888Y0061558D02*
X0092302Y0061558D01*
X0090703Y0059960D02*
X0086061Y0059960D01*
X0076967Y0061558D02*
X0075250Y0061558D01*
X0075250Y0061050D02*
X0074616Y0059519D01*
X0073445Y0058348D01*
X0071914Y0057713D01*
X0070256Y0057713D01*
X0068726Y0058348D01*
X0067554Y0059519D01*
X0066920Y0061050D01*
X0066920Y0062707D01*
X0067554Y0064238D01*
X0068726Y0065410D01*
X0070256Y0066044D01*
X0071914Y0066044D01*
X0073445Y0065410D01*
X0074616Y0064238D01*
X0075250Y0062707D01*
X0075250Y0061050D01*
X0074799Y0059960D02*
X0075794Y0059960D01*
X0075228Y0058361D02*
X0073458Y0058361D01*
X0075228Y0056763D02*
X0058479Y0056763D01*
X0058479Y0058361D02*
X0068712Y0058361D01*
X0067371Y0059960D02*
X0058479Y0059960D01*
X0058479Y0061558D02*
X0066920Y0061558D01*
X0067106Y0063157D02*
X0058479Y0063157D01*
X0058479Y0064755D02*
X0068071Y0064755D01*
X0068788Y0067952D02*
X0058479Y0067952D01*
X0058479Y0066354D02*
X0075430Y0066354D01*
X0075542Y0067952D02*
X0074169Y0067952D01*
X0074099Y0064755D02*
X0075809Y0064755D01*
X0075064Y0063157D02*
X0076793Y0063157D01*
X0066002Y0069551D02*
X0058479Y0069551D01*
X0058479Y0071149D02*
X0064411Y0071149D01*
X0063749Y0072748D02*
X0058479Y0072748D01*
X0058479Y0074346D02*
X0063148Y0074346D01*
X0063148Y0075945D02*
X0058479Y0075945D01*
X0058479Y0077543D02*
X0063161Y0077543D01*
X0063823Y0079142D02*
X0058479Y0079142D01*
X0058479Y0080740D02*
X0064583Y0080740D01*
X0066181Y0082339D02*
X0058479Y0082339D01*
X0058479Y0083937D02*
X0069222Y0083937D01*
X0073735Y0083937D02*
X0078679Y0083937D01*
X0078679Y0082339D02*
X0076776Y0082339D01*
X0078375Y0080740D02*
X0078679Y0080740D01*
X0086479Y0085146D02*
X0089825Y0081800D01*
X0096479Y0081800D01*
X0096979Y0081300D01*
X0101979Y0081300D01*
X0106280Y0079142D02*
X0108298Y0079142D01*
X0108687Y0077543D02*
X0105010Y0077543D01*
X0107088Y0075945D02*
X0090219Y0075945D01*
X0090260Y0074346D02*
X0105490Y0074346D01*
X0104979Y0072748D02*
X0090260Y0072748D01*
X0090260Y0071149D02*
X0104979Y0071149D01*
X0102522Y0070744D02*
X0102522Y0069898D01*
X0102522Y0069898D01*
X0102522Y0069898D01*
X0102522Y0070744D01*
X0109979Y0070744D02*
X0109979Y0071764D01*
X0112895Y0074681D01*
X0113598Y0075384D01*
X0113979Y0076303D01*
X0113979Y0077019D01*
X0115488Y0077019D01*
X0116660Y0078190D01*
X0116660Y0079184D01*
X0116909Y0078581D01*
X0118260Y0077231D01*
X0120024Y0076500D01*
X0121934Y0076500D01*
X0123698Y0077231D01*
X0124967Y0078500D01*
X0126536Y0078500D01*
X0127565Y0078926D01*
X0132510Y0083872D01*
X0132510Y0082153D01*
X0133022Y0081641D01*
X0132833Y0081314D01*
X0132710Y0080856D01*
X0132710Y0078638D01*
X0136294Y0078638D01*
X0136294Y0078269D01*
X0132710Y0078269D01*
X0132710Y0076051D01*
X0132833Y0075593D01*
X0133070Y0075183D01*
X0133405Y0074848D01*
X0133815Y0074611D01*
X0134273Y0074488D01*
X0136294Y0074488D01*
X0136294Y0078269D01*
X0136663Y0078269D01*
X0136663Y0074488D01*
X0138684Y0074488D01*
X0139142Y0074611D01*
X0139552Y0074848D01*
X0139888Y0075183D01*
X0140125Y0075593D01*
X0140247Y0076051D01*
X0140247Y0078269D01*
X0136663Y0078269D01*
X0136663Y0078638D01*
X0140247Y0078638D01*
X0140247Y0080856D01*
X0140125Y0081314D01*
X0139936Y0081641D01*
X0140447Y0082153D01*
X0140447Y0088140D01*
X0139587Y0089000D01*
X0141183Y0089000D01*
X0141179Y0088995D01*
X0141179Y0084605D01*
X0143983Y0081800D01*
X0141179Y0078995D01*
X0141179Y0074605D01*
X0143983Y0071800D01*
X0141179Y0068995D01*
X0141179Y0064605D01*
X0143979Y0061805D01*
X0143979Y0061795D01*
X0141179Y0058995D01*
X0141179Y0054605D01*
X0143630Y0052154D01*
X0141645Y0050169D01*
X0137895Y0053919D01*
X0136976Y0054300D01*
X0135981Y0054300D01*
X0109892Y0054300D01*
X0111660Y0056068D01*
X0111660Y0059532D01*
X0109548Y0061644D01*
X0110199Y0061644D01*
X0110199Y0062489D01*
X0110199Y0062489D01*
X0110199Y0061644D01*
X0111045Y0061644D01*
X0111245Y0061444D01*
X0119390Y0061444D01*
X0119590Y0061644D01*
X0120435Y0061644D01*
X0120435Y0062489D01*
X0120435Y0062489D01*
X0120435Y0062489D01*
X0120435Y0061644D01*
X0121281Y0061644D01*
X0121481Y0061444D01*
X0129626Y0061444D01*
X0130798Y0062615D01*
X0130798Y0069772D01*
X0129626Y0070944D01*
X0121481Y0070944D01*
X0121281Y0070744D01*
X0120435Y0070744D01*
X0119590Y0070744D01*
X0119390Y0070944D01*
X0111245Y0070944D01*
X0111045Y0070744D01*
X0110199Y0070744D01*
X0109979Y0070744D01*
X0110199Y0070744D02*
X0110199Y0069898D01*
X0110199Y0069898D01*
X0110199Y0069898D01*
X0110199Y0070744D01*
X0109979Y0071149D02*
X0143333Y0071149D01*
X0141734Y0069551D02*
X0130798Y0069551D01*
X0130798Y0067952D02*
X0141179Y0067952D01*
X0141179Y0066354D02*
X0130798Y0066354D01*
X0130798Y0064755D02*
X0141179Y0064755D01*
X0142627Y0063157D02*
X0130798Y0063157D01*
X0129741Y0061558D02*
X0143742Y0061558D01*
X0142143Y0059960D02*
X0111232Y0059960D01*
X0111660Y0058361D02*
X0141179Y0058361D01*
X0141179Y0056763D02*
X0111660Y0056763D01*
X0110756Y0055164D02*
X0141179Y0055164D01*
X0142218Y0053566D02*
X0138248Y0053566D01*
X0139847Y0051967D02*
X0143444Y0051967D01*
X0141845Y0050369D02*
X0141446Y0050369D01*
X0121366Y0061558D02*
X0119504Y0061558D01*
X0111130Y0061558D02*
X0109633Y0061558D01*
X0110199Y0062489D02*
X0110199Y0062489D01*
X0105209Y0061444D02*
X0103866Y0060100D01*
X0101181Y0060100D01*
X0100263Y0059719D01*
X0099779Y0059236D01*
X0099779Y0061444D01*
X0101476Y0061444D01*
X0101676Y0061644D01*
X0102522Y0061644D01*
X0102522Y0062489D01*
X0102522Y0062489D01*
X0102522Y0061644D01*
X0103368Y0061644D01*
X0103568Y0061444D01*
X0105209Y0061444D01*
X0103453Y0061558D02*
X0101591Y0061558D01*
X0102522Y0062489D02*
X0102522Y0062489D01*
X0100843Y0059960D02*
X0099779Y0059960D01*
X0092160Y0069551D02*
X0090220Y0069551D01*
X0090247Y0077543D02*
X0098947Y0077543D01*
X0106779Y0080740D02*
X0108298Y0080740D01*
X0108298Y0082339D02*
X0106744Y0082339D01*
X0106082Y0083937D02*
X0108298Y0083937D01*
X0104295Y0085536D02*
X0118662Y0085536D01*
X0116876Y0083937D02*
X0116660Y0083937D01*
X0120979Y0081300D02*
X0125979Y0081300D01*
X0131479Y0086800D01*
X0134825Y0086800D01*
X0136479Y0085146D01*
X0140447Y0085536D02*
X0141179Y0085536D01*
X0141179Y0087134D02*
X0140447Y0087134D01*
X0139854Y0088733D02*
X0141179Y0088733D01*
X0141846Y0083937D02*
X0140447Y0083937D01*
X0140447Y0082339D02*
X0143444Y0082339D01*
X0142924Y0080740D02*
X0140247Y0080740D01*
X0140247Y0079142D02*
X0141325Y0079142D01*
X0141179Y0077543D02*
X0140247Y0077543D01*
X0140219Y0075945D02*
X0141179Y0075945D01*
X0141437Y0074346D02*
X0112561Y0074346D01*
X0113831Y0075945D02*
X0132739Y0075945D01*
X0132710Y0077543D02*
X0124010Y0077543D01*
X0127780Y0079142D02*
X0132710Y0079142D01*
X0132710Y0080740D02*
X0129379Y0080740D01*
X0130977Y0082339D02*
X0132510Y0082339D01*
X0136294Y0077543D02*
X0136663Y0077543D01*
X0136663Y0075945D02*
X0136294Y0075945D01*
X0143036Y0072748D02*
X0110962Y0072748D01*
X0116013Y0077543D02*
X0117947Y0077543D01*
X0116677Y0079142D02*
X0116660Y0079142D01*
X0123295Y0085536D02*
X0126255Y0085536D01*
X0127853Y0087134D02*
X0090447Y0087134D01*
X0090447Y0085536D02*
X0099662Y0085536D01*
X0089854Y0088733D02*
X0129452Y0088733D01*
X0148974Y0081800D02*
X0151620Y0084446D01*
X0154266Y0081800D01*
X0151620Y0079154D01*
X0148974Y0081800D01*
X0149513Y0082339D02*
X0153727Y0082339D01*
X0153207Y0080740D02*
X0150034Y0080740D01*
X0151112Y0083937D02*
X0152129Y0083937D01*
X0156279Y0083937D02*
X0156679Y0083937D01*
X0156679Y0082339D02*
X0156279Y0082339D01*
X0156679Y0081900D02*
X0156679Y0086600D01*
X0156279Y0086600D01*
X0156279Y0077000D01*
X0156679Y0077000D01*
X0156679Y0081900D01*
X0156679Y0080740D02*
X0156279Y0080740D01*
X0156279Y0079142D02*
X0156679Y0079142D01*
X0156679Y0077543D02*
X0156279Y0077543D01*
X0164279Y0077543D02*
X0168180Y0077543D01*
X0168180Y0079142D02*
X0164279Y0079142D01*
X0164279Y0080740D02*
X0168180Y0080740D01*
X0168180Y0082339D02*
X0164279Y0082339D01*
X0164279Y0083937D02*
X0168180Y0083937D01*
X0168180Y0085536D02*
X0164279Y0085536D01*
X0164279Y0087134D02*
X0168180Y0087134D01*
X0168180Y0088733D02*
X0164279Y0088733D01*
X0164279Y0090332D02*
X0168180Y0090332D01*
X0168180Y0091930D02*
X0164279Y0091930D01*
X0163710Y0093529D02*
X0168180Y0093529D01*
X0156679Y0085536D02*
X0156279Y0085536D01*
X0146479Y0076800D02*
X0151479Y0071800D01*
X0161479Y0071800D01*
X0164279Y0072748D02*
X0168180Y0072748D01*
X0168180Y0074346D02*
X0164279Y0074346D01*
X0164279Y0075945D02*
X0168180Y0075945D01*
X0120435Y0070744D02*
X0120435Y0069898D01*
X0120435Y0070744D01*
X0120435Y0069898D02*
X0120435Y0069898D01*
X0120435Y0069898D01*
X0104913Y0048770D02*
X0104362Y0048770D01*
X0103315Y0047172D02*
X0103099Y0047172D01*
X0099459Y0047172D02*
X0094786Y0047172D01*
X0093187Y0045573D02*
X0097653Y0045573D01*
X0097098Y0043975D02*
X0091589Y0043975D01*
X0089990Y0042376D02*
X0097177Y0042376D01*
X0092160Y0040778D02*
X0088392Y0040778D01*
X0086793Y0039179D02*
X0092160Y0039179D01*
X0092160Y0037581D02*
X0086409Y0037581D01*
X0085730Y0035982D02*
X0092160Y0035982D01*
X0087298Y0034384D02*
X0084096Y0034384D01*
X0087298Y0032785D02*
X0079419Y0032785D01*
X0079809Y0031187D02*
X0087298Y0031187D01*
X0082298Y0029588D02*
X0079809Y0029588D01*
X0079586Y0027990D02*
X0082298Y0027990D01*
X0082298Y0026391D02*
X0078924Y0026391D01*
X0077867Y0024793D02*
X0082298Y0024793D01*
X0082894Y0023194D02*
X0076268Y0023194D01*
X0083979Y0021596D02*
X0058479Y0021596D01*
X0058479Y0023194D02*
X0066689Y0023194D01*
X0065091Y0024793D02*
X0058479Y0024793D01*
X0058479Y0026391D02*
X0064033Y0026391D01*
X0063371Y0027990D02*
X0058479Y0027990D01*
X0058479Y0029588D02*
X0063148Y0029588D01*
X0063148Y0031187D02*
X0058479Y0031187D01*
X0058479Y0032785D02*
X0063538Y0032785D01*
X0064200Y0034384D02*
X0058479Y0034384D01*
X0058479Y0035982D02*
X0065494Y0035982D01*
X0067562Y0037581D02*
X0058479Y0037581D01*
X0058479Y0039179D02*
X0075228Y0039179D01*
X0075395Y0037581D02*
X0075446Y0037581D01*
X0073445Y0040631D02*
X0071914Y0039997D01*
X0070256Y0039997D01*
X0068726Y0040631D01*
X0067554Y0041803D01*
X0066920Y0043334D01*
X0066920Y0044991D01*
X0067554Y0046522D01*
X0068726Y0047693D01*
X0070256Y0048328D01*
X0071914Y0048328D01*
X0073445Y0047693D01*
X0074616Y0046522D01*
X0075250Y0044991D01*
X0075250Y0043334D01*
X0074616Y0041803D01*
X0073445Y0040631D01*
X0073591Y0040778D02*
X0075394Y0040778D01*
X0074854Y0042376D02*
X0076057Y0042376D01*
X0075250Y0043975D02*
X0077475Y0043975D01*
X0076005Y0045573D02*
X0075009Y0045573D01*
X0075343Y0047172D02*
X0073966Y0047172D01*
X0075228Y0048770D02*
X0058479Y0048770D01*
X0058479Y0047172D02*
X0068204Y0047172D01*
X0067161Y0045573D02*
X0058479Y0045573D01*
X0058479Y0043975D02*
X0066920Y0043975D01*
X0067316Y0042376D02*
X0058479Y0042376D01*
X0058479Y0040778D02*
X0068579Y0040778D01*
X0075497Y0050369D02*
X0058479Y0050369D01*
X0058479Y0051967D02*
X0076250Y0051967D01*
X0076758Y0053566D02*
X0058479Y0053566D01*
X0058479Y0055164D02*
X0075708Y0055164D01*
X0096384Y0048770D02*
X0098596Y0048770D01*
X0107189Y0043975D02*
X0113498Y0043975D01*
X0113498Y0044032D02*
X0113498Y0042368D01*
X0113649Y0042002D01*
X0113604Y0041956D01*
X0112758Y0041956D01*
X0111913Y0041956D01*
X0111713Y0042156D01*
X0105371Y0042156D01*
X0105798Y0042584D01*
X0108914Y0045700D01*
X0114266Y0045700D01*
X0114134Y0045568D01*
X0113498Y0044032D01*
X0113498Y0042376D02*
X0105590Y0042376D01*
X0108787Y0045573D02*
X0114139Y0045573D01*
X0112758Y0041956D02*
X0112758Y0041111D01*
X0112758Y0041956D01*
X0112758Y0041111D02*
X0112758Y0041111D01*
X0112758Y0041111D01*
X0083979Y0019997D02*
X0058479Y0019997D01*
X0058479Y0018399D02*
X0083979Y0018399D01*
X0083979Y0016800D02*
X0058479Y0016800D01*
X0058479Y0015201D02*
X0083979Y0015201D01*
X0083979Y0013603D02*
X0058479Y0013603D01*
X0058479Y0012004D02*
X0083979Y0012004D01*
X0084350Y0010406D02*
X0058479Y0010406D01*
X0058479Y0008807D02*
X0085936Y0008807D01*
X0087534Y0007209D02*
X0058479Y0007209D01*
X0058479Y0005610D02*
X0089133Y0005610D01*
X0078679Y0085536D02*
X0058479Y0085536D01*
X0058479Y0087134D02*
X0078679Y0087134D01*
X0078679Y0088733D02*
X0058479Y0088733D01*
X0058479Y0090332D02*
X0078679Y0090332D01*
X0078679Y0091930D02*
X0058479Y0091930D01*
X0058479Y0093529D02*
X0079247Y0093529D01*
D19*
X0086479Y0078454D02*
X0087025Y0078454D01*
X0091479Y0074000D01*
X0091479Y0071800D01*
X0102522Y0071800D01*
X0102522Y0066194D01*
X0102479Y0066194D01*
X0102479Y0061600D01*
X0111479Y0061600D01*
X0111479Y0061800D01*
X0120435Y0061800D01*
X0118679Y0060043D01*
X0118079Y0058200D01*
X0120435Y0061800D02*
X0120435Y0066194D01*
X0120435Y0075757D01*
X0121479Y0076800D01*
X0134825Y0076800D01*
X0136479Y0078454D01*
X0138132Y0078454D01*
X0141479Y0081800D01*
X0151479Y0081800D01*
X0156479Y0086800D01*
X0151479Y0081800D02*
X0156479Y0076800D01*
X0161479Y0061800D02*
X0146479Y0061800D01*
X0146479Y0056800D01*
X0136479Y0051800D02*
X0141479Y0046800D01*
X0146479Y0046800D01*
X0151479Y0041800D02*
X0151279Y0041600D01*
X0136679Y0041600D01*
X0134679Y0043600D01*
X0134679Y0046800D01*
X0133279Y0048200D01*
X0107879Y0048200D01*
X0103679Y0044000D01*
X0101879Y0044000D01*
X0101279Y0043400D01*
X0109079Y0044200D02*
X0112879Y0040400D01*
X0112879Y0037406D01*
X0112758Y0037406D01*
X0117876Y0037406D02*
X0117876Y0043402D01*
X0117679Y0043200D01*
X0109079Y0044200D02*
X0109079Y0044400D01*
X0101479Y0051800D02*
X0136479Y0051800D01*
X0151479Y0041800D02*
X0151479Y0031800D01*
X0156479Y0026800D01*
X0161479Y0031800D02*
X0161479Y0011800D01*
X0110879Y0011800D01*
X0109679Y0010600D01*
X0091479Y0006800D02*
X0161479Y0006800D01*
X0166479Y0011800D01*
X0166479Y0056800D01*
X0161479Y0061800D01*
X0132279Y0036200D02*
X0131072Y0037406D01*
X0128113Y0037406D01*
X0128719Y0036800D01*
X0136479Y0031800D02*
X0091479Y0031800D01*
X0086479Y0026800D02*
X0086479Y0011800D01*
X0091479Y0006800D01*
X0096479Y0026400D02*
X0146079Y0026400D01*
X0146479Y0026800D01*
X0141479Y0036800D02*
X0136479Y0031800D01*
X0141479Y0036800D02*
X0146479Y0036800D01*
X0156479Y0036800D02*
X0161479Y0031800D01*
X0111479Y0061800D02*
X0110279Y0061800D01*
X0110199Y0061800D01*
X0110199Y0066194D01*
X0110279Y0066114D01*
X0110279Y0061800D01*
X0107479Y0057800D02*
X0107279Y0057600D01*
X0101679Y0057600D01*
X0083320Y0039241D01*
X0080928Y0039241D01*
X0080928Y0048583D02*
X0088262Y0048583D01*
X0097279Y0057600D01*
X0097279Y0066069D01*
X0097404Y0066194D01*
X0094879Y0066160D02*
X0094845Y0066194D01*
X0094879Y0066160D02*
X0094879Y0060600D01*
X0091736Y0057457D01*
X0080928Y0057457D01*
X0080928Y0066800D02*
X0091479Y0066800D01*
X0091479Y0071800D01*
X0086079Y0072600D02*
X0085279Y0073400D01*
X0083479Y0073400D01*
X0081479Y0075400D01*
X0081479Y0076800D01*
X0107479Y0072800D02*
X0107479Y0066194D01*
X0107640Y0066194D01*
X0107479Y0072800D02*
X0111479Y0076800D01*
X0111479Y0080200D01*
X0112479Y0081200D01*
D20*
X0118079Y0058200D03*
X0107479Y0057800D03*
D21*
X0101479Y0051800D03*
X0109079Y0044400D03*
X0101279Y0043400D03*
X0117679Y0043200D03*
X0096479Y0026400D03*
D22*
X0091479Y0031800D03*
X0086479Y0026800D03*
X0109679Y0010600D03*
X0132279Y0036200D03*
X0086079Y0072600D03*
X0112479Y0081200D03*
M02*
