G75*
%MOIN*%
%OFA0B0*%
%FSLAX25Y25*%
%IPPOS*%
%LPD*%
%AMOC8*
5,1,8,0,0,1.08239X$1,22.5*
%
%ADD10C,0.00000*%
%ADD11R,0.04331X0.03937*%
%ADD12R,0.05906X0.05906*%
%ADD13C,0.06400*%
%ADD14OC8,0.06600*%
%ADD15C,0.07400*%
%ADD16C,0.12661*%
%ADD17R,0.06299X0.07087*%
%ADD18R,0.02200X0.05000*%
%ADD19R,0.05000X0.02200*%
%ADD20C,0.05600*%
%ADD21OC8,0.07600*%
%ADD22C,0.01600*%
%ADD23C,0.01000*%
%ADD24OC8,0.04362*%
%ADD25C,0.04362*%
%ADD26R,0.04362X0.04362*%
D10*
X0056479Y0001800D02*
X0056479Y0096761D01*
X0170180Y0096761D01*
X0170180Y0001800D01*
X0056479Y0001800D01*
X0068920Y0044162D02*
X0068922Y0044255D01*
X0068928Y0044347D01*
X0068938Y0044439D01*
X0068952Y0044530D01*
X0068969Y0044621D01*
X0068991Y0044711D01*
X0069016Y0044800D01*
X0069045Y0044888D01*
X0069078Y0044974D01*
X0069115Y0045059D01*
X0069155Y0045143D01*
X0069199Y0045224D01*
X0069246Y0045304D01*
X0069296Y0045382D01*
X0069350Y0045457D01*
X0069407Y0045530D01*
X0069467Y0045600D01*
X0069530Y0045668D01*
X0069596Y0045733D01*
X0069664Y0045795D01*
X0069735Y0045855D01*
X0069809Y0045911D01*
X0069885Y0045964D01*
X0069963Y0046013D01*
X0070043Y0046060D01*
X0070125Y0046102D01*
X0070209Y0046142D01*
X0070294Y0046177D01*
X0070381Y0046209D01*
X0070469Y0046238D01*
X0070558Y0046262D01*
X0070648Y0046283D01*
X0070739Y0046299D01*
X0070831Y0046312D01*
X0070923Y0046321D01*
X0071016Y0046326D01*
X0071108Y0046327D01*
X0071201Y0046324D01*
X0071293Y0046317D01*
X0071385Y0046306D01*
X0071476Y0046291D01*
X0071567Y0046273D01*
X0071657Y0046250D01*
X0071745Y0046224D01*
X0071833Y0046194D01*
X0071919Y0046160D01*
X0072003Y0046123D01*
X0072086Y0046081D01*
X0072167Y0046037D01*
X0072247Y0045989D01*
X0072324Y0045938D01*
X0072398Y0045883D01*
X0072471Y0045825D01*
X0072541Y0045765D01*
X0072608Y0045701D01*
X0072672Y0045635D01*
X0072734Y0045565D01*
X0072792Y0045494D01*
X0072847Y0045420D01*
X0072899Y0045343D01*
X0072948Y0045264D01*
X0072994Y0045184D01*
X0073036Y0045101D01*
X0073074Y0045017D01*
X0073109Y0044931D01*
X0073140Y0044844D01*
X0073167Y0044756D01*
X0073190Y0044666D01*
X0073210Y0044576D01*
X0073226Y0044485D01*
X0073238Y0044393D01*
X0073246Y0044301D01*
X0073250Y0044208D01*
X0073250Y0044116D01*
X0073246Y0044023D01*
X0073238Y0043931D01*
X0073226Y0043839D01*
X0073210Y0043748D01*
X0073190Y0043658D01*
X0073167Y0043568D01*
X0073140Y0043480D01*
X0073109Y0043393D01*
X0073074Y0043307D01*
X0073036Y0043223D01*
X0072994Y0043140D01*
X0072948Y0043060D01*
X0072899Y0042981D01*
X0072847Y0042904D01*
X0072792Y0042830D01*
X0072734Y0042759D01*
X0072672Y0042689D01*
X0072608Y0042623D01*
X0072541Y0042559D01*
X0072471Y0042499D01*
X0072398Y0042441D01*
X0072324Y0042386D01*
X0072247Y0042335D01*
X0072168Y0042287D01*
X0072086Y0042243D01*
X0072003Y0042201D01*
X0071919Y0042164D01*
X0071833Y0042130D01*
X0071745Y0042100D01*
X0071657Y0042074D01*
X0071567Y0042051D01*
X0071476Y0042033D01*
X0071385Y0042018D01*
X0071293Y0042007D01*
X0071201Y0042000D01*
X0071108Y0041997D01*
X0071016Y0041998D01*
X0070923Y0042003D01*
X0070831Y0042012D01*
X0070739Y0042025D01*
X0070648Y0042041D01*
X0070558Y0042062D01*
X0070469Y0042086D01*
X0070381Y0042115D01*
X0070294Y0042147D01*
X0070209Y0042182D01*
X0070125Y0042222D01*
X0070043Y0042264D01*
X0069963Y0042311D01*
X0069885Y0042360D01*
X0069809Y0042413D01*
X0069735Y0042469D01*
X0069664Y0042529D01*
X0069596Y0042591D01*
X0069530Y0042656D01*
X0069467Y0042724D01*
X0069407Y0042794D01*
X0069350Y0042867D01*
X0069296Y0042942D01*
X0069246Y0043020D01*
X0069199Y0043100D01*
X0069155Y0043181D01*
X0069115Y0043265D01*
X0069078Y0043350D01*
X0069045Y0043436D01*
X0069016Y0043524D01*
X0068991Y0043613D01*
X0068969Y0043703D01*
X0068952Y0043794D01*
X0068938Y0043885D01*
X0068928Y0043977D01*
X0068922Y0044069D01*
X0068920Y0044162D01*
X0068920Y0061879D02*
X0068922Y0061972D01*
X0068928Y0062064D01*
X0068938Y0062156D01*
X0068952Y0062247D01*
X0068969Y0062338D01*
X0068991Y0062428D01*
X0069016Y0062517D01*
X0069045Y0062605D01*
X0069078Y0062691D01*
X0069115Y0062776D01*
X0069155Y0062860D01*
X0069199Y0062941D01*
X0069246Y0063021D01*
X0069296Y0063099D01*
X0069350Y0063174D01*
X0069407Y0063247D01*
X0069467Y0063317D01*
X0069530Y0063385D01*
X0069596Y0063450D01*
X0069664Y0063512D01*
X0069735Y0063572D01*
X0069809Y0063628D01*
X0069885Y0063681D01*
X0069963Y0063730D01*
X0070043Y0063777D01*
X0070125Y0063819D01*
X0070209Y0063859D01*
X0070294Y0063894D01*
X0070381Y0063926D01*
X0070469Y0063955D01*
X0070558Y0063979D01*
X0070648Y0064000D01*
X0070739Y0064016D01*
X0070831Y0064029D01*
X0070923Y0064038D01*
X0071016Y0064043D01*
X0071108Y0064044D01*
X0071201Y0064041D01*
X0071293Y0064034D01*
X0071385Y0064023D01*
X0071476Y0064008D01*
X0071567Y0063990D01*
X0071657Y0063967D01*
X0071745Y0063941D01*
X0071833Y0063911D01*
X0071919Y0063877D01*
X0072003Y0063840D01*
X0072086Y0063798D01*
X0072167Y0063754D01*
X0072247Y0063706D01*
X0072324Y0063655D01*
X0072398Y0063600D01*
X0072471Y0063542D01*
X0072541Y0063482D01*
X0072608Y0063418D01*
X0072672Y0063352D01*
X0072734Y0063282D01*
X0072792Y0063211D01*
X0072847Y0063137D01*
X0072899Y0063060D01*
X0072948Y0062981D01*
X0072994Y0062901D01*
X0073036Y0062818D01*
X0073074Y0062734D01*
X0073109Y0062648D01*
X0073140Y0062561D01*
X0073167Y0062473D01*
X0073190Y0062383D01*
X0073210Y0062293D01*
X0073226Y0062202D01*
X0073238Y0062110D01*
X0073246Y0062018D01*
X0073250Y0061925D01*
X0073250Y0061833D01*
X0073246Y0061740D01*
X0073238Y0061648D01*
X0073226Y0061556D01*
X0073210Y0061465D01*
X0073190Y0061375D01*
X0073167Y0061285D01*
X0073140Y0061197D01*
X0073109Y0061110D01*
X0073074Y0061024D01*
X0073036Y0060940D01*
X0072994Y0060857D01*
X0072948Y0060777D01*
X0072899Y0060698D01*
X0072847Y0060621D01*
X0072792Y0060547D01*
X0072734Y0060476D01*
X0072672Y0060406D01*
X0072608Y0060340D01*
X0072541Y0060276D01*
X0072471Y0060216D01*
X0072398Y0060158D01*
X0072324Y0060103D01*
X0072247Y0060052D01*
X0072168Y0060004D01*
X0072086Y0059960D01*
X0072003Y0059918D01*
X0071919Y0059881D01*
X0071833Y0059847D01*
X0071745Y0059817D01*
X0071657Y0059791D01*
X0071567Y0059768D01*
X0071476Y0059750D01*
X0071385Y0059735D01*
X0071293Y0059724D01*
X0071201Y0059717D01*
X0071108Y0059714D01*
X0071016Y0059715D01*
X0070923Y0059720D01*
X0070831Y0059729D01*
X0070739Y0059742D01*
X0070648Y0059758D01*
X0070558Y0059779D01*
X0070469Y0059803D01*
X0070381Y0059832D01*
X0070294Y0059864D01*
X0070209Y0059899D01*
X0070125Y0059939D01*
X0070043Y0059981D01*
X0069963Y0060028D01*
X0069885Y0060077D01*
X0069809Y0060130D01*
X0069735Y0060186D01*
X0069664Y0060246D01*
X0069596Y0060308D01*
X0069530Y0060373D01*
X0069467Y0060441D01*
X0069407Y0060511D01*
X0069350Y0060584D01*
X0069296Y0060659D01*
X0069246Y0060737D01*
X0069199Y0060817D01*
X0069155Y0060898D01*
X0069115Y0060982D01*
X0069078Y0061067D01*
X0069045Y0061153D01*
X0069016Y0061241D01*
X0068991Y0061330D01*
X0068969Y0061420D01*
X0068952Y0061511D01*
X0068938Y0061602D01*
X0068928Y0061694D01*
X0068922Y0061786D01*
X0068920Y0061879D01*
D11*
X0113132Y0016800D03*
X0119825Y0016800D03*
D12*
X0078369Y0016800D03*
X0064589Y0016800D03*
D13*
X0146479Y0016800D03*
X0156479Y0016800D03*
X0156479Y0026800D03*
X0146479Y0026800D03*
X0146479Y0036800D03*
X0156479Y0036800D03*
D14*
X0156479Y0056800D03*
X0146479Y0056800D03*
X0146479Y0066800D03*
X0156479Y0066800D03*
X0156479Y0076800D03*
X0146479Y0076800D03*
X0146479Y0086800D03*
X0156479Y0086800D03*
D15*
X0080928Y0066800D03*
X0080928Y0057457D03*
X0080928Y0048583D03*
X0080928Y0039241D03*
D16*
X0071479Y0030186D03*
X0071479Y0075855D03*
D17*
X0090967Y0016800D03*
X0101991Y0016800D03*
D18*
X0101005Y0034900D03*
X0104155Y0034900D03*
X0107305Y0034900D03*
X0110454Y0034900D03*
X0113604Y0034900D03*
X0116753Y0034900D03*
X0119903Y0034900D03*
X0123053Y0034900D03*
X0123053Y0068700D03*
X0119903Y0068700D03*
X0116753Y0068700D03*
X0113604Y0068700D03*
X0110454Y0068700D03*
X0107305Y0068700D03*
X0104155Y0068700D03*
X0101005Y0068700D03*
D19*
X0095129Y0062824D03*
X0095129Y0059674D03*
X0095129Y0056524D03*
X0095129Y0053375D03*
X0095129Y0050225D03*
X0095129Y0047076D03*
X0095129Y0043926D03*
X0095129Y0040776D03*
X0128929Y0040776D03*
X0128929Y0043926D03*
X0128929Y0047076D03*
X0128929Y0050225D03*
X0128929Y0053375D03*
X0128929Y0056524D03*
X0128929Y0059674D03*
X0128929Y0062824D03*
D20*
X0120979Y0081300D03*
X0101979Y0081300D03*
D21*
X0146479Y0046800D03*
X0156479Y0046800D03*
D22*
X0156679Y0047000D02*
X0162079Y0047000D01*
X0162079Y0049120D01*
X0159186Y0052012D01*
X0161779Y0054605D01*
X0161779Y0058995D01*
X0158974Y0061800D01*
X0161779Y0064605D01*
X0161779Y0068995D01*
X0158833Y0071941D01*
X0161579Y0074688D01*
X0161579Y0076600D01*
X0156679Y0076600D01*
X0156679Y0077000D01*
X0161579Y0077000D01*
X0161579Y0078912D01*
X0158691Y0081800D01*
X0161579Y0084688D01*
X0161579Y0086600D01*
X0156679Y0086600D01*
X0156679Y0087000D01*
X0161579Y0087000D01*
X0161579Y0088912D01*
X0158591Y0091900D01*
X0156679Y0091900D01*
X0156679Y0087000D01*
X0156279Y0087000D01*
X0156279Y0091900D01*
X0154366Y0091900D01*
X0151620Y0089154D01*
X0148674Y0092100D01*
X0144283Y0092100D01*
X0141783Y0089600D01*
X0060922Y0089600D01*
X0059893Y0089174D01*
X0059105Y0088386D01*
X0058679Y0087357D01*
X0058679Y0040640D01*
X0058479Y0040157D01*
X0058479Y0039043D01*
X0058905Y0038014D01*
X0059693Y0037226D01*
X0059893Y0037026D01*
X0060922Y0036600D01*
X0062036Y0036600D01*
X0062519Y0036800D01*
X0066312Y0036800D01*
X0064416Y0034905D01*
X0063148Y0031843D01*
X0063148Y0028529D01*
X0064416Y0025467D01*
X0066760Y0023123D01*
X0069822Y0021855D01*
X0073136Y0021855D01*
X0076198Y0023123D01*
X0078541Y0025467D01*
X0079809Y0028529D01*
X0079809Y0031843D01*
X0078964Y0033885D01*
X0079794Y0033541D01*
X0082061Y0033541D01*
X0084156Y0034409D01*
X0085760Y0036012D01*
X0086379Y0037506D01*
X0086379Y0036436D01*
X0084359Y0034416D01*
X0083979Y0033497D01*
X0083979Y0030981D01*
X0083469Y0030981D01*
X0082298Y0029810D01*
X0082298Y0023790D01*
X0083469Y0022619D01*
X0089488Y0022619D01*
X0090660Y0023790D01*
X0090660Y0027619D01*
X0092458Y0027619D01*
X0092298Y0027232D01*
X0092298Y0025568D01*
X0092934Y0024032D01*
X0094110Y0022855D01*
X0095647Y0022219D01*
X0097310Y0022219D01*
X0098679Y0022786D01*
X0098679Y0022343D01*
X0098013Y0022343D01*
X0096841Y0021172D01*
X0096841Y0012428D01*
X0098013Y0011257D01*
X0105487Y0011257D01*
X0105498Y0011246D01*
X0105498Y0007590D01*
X0106669Y0006419D01*
X0112688Y0006419D01*
X0113860Y0007590D01*
X0113860Y0012831D01*
X0116126Y0012831D01*
X0116638Y0013343D01*
X0116965Y0013154D01*
X0117423Y0013031D01*
X0119641Y0013031D01*
X0119641Y0016616D01*
X0120009Y0016616D01*
X0120009Y0013031D01*
X0122228Y0013031D01*
X0122685Y0013154D01*
X0123096Y0013391D01*
X0123431Y0013726D01*
X0123668Y0014137D01*
X0123791Y0014595D01*
X0123791Y0016616D01*
X0120010Y0016616D01*
X0120010Y0016984D01*
X0123791Y0016984D01*
X0123791Y0019005D01*
X0123668Y0019463D01*
X0123431Y0019874D01*
X0123096Y0020209D01*
X0122685Y0020446D01*
X0122228Y0020568D01*
X0120009Y0020568D01*
X0120009Y0016984D01*
X0119641Y0016984D01*
X0119641Y0020568D01*
X0117423Y0020568D01*
X0116965Y0020446D01*
X0116638Y0020257D01*
X0116126Y0020768D01*
X0114279Y0020768D01*
X0114279Y0027357D01*
X0113852Y0028386D01*
X0113254Y0028984D01*
X0113254Y0030600D01*
X0113604Y0030600D01*
X0114625Y0030600D01*
X0114825Y0030400D01*
X0124981Y0030400D01*
X0126153Y0031572D01*
X0126153Y0034595D01*
X0126381Y0034500D01*
X0127699Y0034500D01*
X0128098Y0034335D01*
X0128098Y0033190D01*
X0129269Y0032019D01*
X0133979Y0032019D01*
X0133979Y0026303D01*
X0134359Y0025384D01*
X0135063Y0024681D01*
X0141463Y0018280D01*
X0141279Y0017834D01*
X0141279Y0015766D01*
X0142070Y0013854D01*
X0143533Y0012392D01*
X0145444Y0011600D01*
X0147513Y0011600D01*
X0149424Y0012392D01*
X0150887Y0013854D01*
X0151611Y0015602D01*
X0151845Y0014881D01*
X0152202Y0014179D01*
X0152665Y0013543D01*
X0153221Y0012986D01*
X0153858Y0012524D01*
X0154559Y0012166D01*
X0155308Y0011923D01*
X0156085Y0011800D01*
X0156393Y0011800D01*
X0156393Y0016714D01*
X0156565Y0016714D01*
X0156565Y0016886D01*
X0161479Y0016886D01*
X0161479Y0017194D01*
X0161356Y0017971D01*
X0161112Y0018719D01*
X0160755Y0019421D01*
X0160293Y0020057D01*
X0159736Y0020614D01*
X0159099Y0021076D01*
X0158398Y0021434D01*
X0157677Y0021668D01*
X0159424Y0022392D01*
X0160887Y0023854D01*
X0161679Y0025766D01*
X0161679Y0027834D01*
X0160887Y0029746D01*
X0159424Y0031208D01*
X0157996Y0031800D01*
X0159424Y0032392D01*
X0160887Y0033854D01*
X0161679Y0035766D01*
X0161679Y0037834D01*
X0160887Y0039746D01*
X0159424Y0041208D01*
X0158988Y0041389D01*
X0162079Y0044480D01*
X0162079Y0046600D01*
X0156679Y0046600D01*
X0156679Y0047000D01*
X0162079Y0047172D02*
X0168180Y0047172D01*
X0168180Y0045573D02*
X0162079Y0045573D01*
X0161573Y0043975D02*
X0168180Y0043975D01*
X0168180Y0042376D02*
X0159975Y0042376D01*
X0159855Y0040778D02*
X0168180Y0040778D01*
X0168180Y0039179D02*
X0161122Y0039179D01*
X0161679Y0037581D02*
X0168180Y0037581D01*
X0168180Y0035982D02*
X0161679Y0035982D01*
X0161106Y0034384D02*
X0168180Y0034384D01*
X0168180Y0032785D02*
X0159818Y0032785D01*
X0159446Y0031187D02*
X0168180Y0031187D01*
X0168180Y0029588D02*
X0160952Y0029588D01*
X0161614Y0027990D02*
X0168180Y0027990D01*
X0168180Y0026391D02*
X0161679Y0026391D01*
X0161276Y0024793D02*
X0168180Y0024793D01*
X0168180Y0023194D02*
X0160227Y0023194D01*
X0157900Y0021596D02*
X0168180Y0021596D01*
X0168180Y0019997D02*
X0160336Y0019997D01*
X0161217Y0018399D02*
X0168180Y0018399D01*
X0168180Y0016800D02*
X0156565Y0016800D01*
X0156565Y0016714D02*
X0161479Y0016714D01*
X0161479Y0016406D01*
X0161356Y0015629D01*
X0161112Y0014881D01*
X0160755Y0014179D01*
X0160293Y0013543D01*
X0159736Y0012986D01*
X0159099Y0012524D01*
X0158398Y0012166D01*
X0157650Y0011923D01*
X0156872Y0011800D01*
X0156565Y0011800D01*
X0156565Y0016714D01*
X0156565Y0015201D02*
X0156393Y0015201D01*
X0156393Y0013603D02*
X0156565Y0013603D01*
X0156565Y0012004D02*
X0156393Y0012004D01*
X0155058Y0012004D02*
X0148490Y0012004D01*
X0150636Y0013603D02*
X0152621Y0013603D01*
X0151741Y0015201D02*
X0151445Y0015201D01*
X0151611Y0017998D02*
X0150887Y0019746D01*
X0149424Y0021208D01*
X0147996Y0021800D01*
X0149424Y0022392D01*
X0150887Y0023854D01*
X0151479Y0025283D01*
X0152070Y0023854D01*
X0153533Y0022392D01*
X0155280Y0021668D01*
X0154559Y0021434D01*
X0153858Y0021076D01*
X0153221Y0020614D01*
X0152665Y0020057D01*
X0152202Y0019421D01*
X0151845Y0018719D01*
X0151611Y0017998D01*
X0151741Y0018399D02*
X0151445Y0018399D01*
X0150636Y0019997D02*
X0152621Y0019997D01*
X0155058Y0021596D02*
X0148490Y0021596D01*
X0150227Y0023194D02*
X0152731Y0023194D01*
X0151682Y0024793D02*
X0151276Y0024793D01*
X0141345Y0018399D02*
X0123791Y0018399D01*
X0123308Y0019997D02*
X0139746Y0019997D01*
X0138148Y0021596D02*
X0114279Y0021596D01*
X0114279Y0023194D02*
X0136549Y0023194D01*
X0134951Y0024793D02*
X0114279Y0024793D01*
X0114279Y0026391D02*
X0133979Y0026391D01*
X0133979Y0027990D02*
X0114017Y0027990D01*
X0111479Y0026800D02*
X0111479Y0018454D01*
X0113132Y0016800D01*
X0119641Y0015201D02*
X0120009Y0015201D01*
X0120010Y0016800D02*
X0141279Y0016800D01*
X0141512Y0015201D02*
X0123791Y0015201D01*
X0123308Y0013603D02*
X0142322Y0013603D01*
X0144468Y0012004D02*
X0113860Y0012004D01*
X0113860Y0010406D02*
X0168180Y0010406D01*
X0168180Y0012004D02*
X0157900Y0012004D01*
X0160336Y0013603D02*
X0168180Y0013603D01*
X0168180Y0015201D02*
X0161217Y0015201D01*
X0168180Y0008807D02*
X0113860Y0008807D01*
X0113478Y0007209D02*
X0168180Y0007209D01*
X0168180Y0005610D02*
X0058479Y0005610D01*
X0058479Y0004012D02*
X0168180Y0004012D01*
X0168180Y0003800D02*
X0168180Y0094761D01*
X0058479Y0094761D01*
X0058479Y0003800D01*
X0168180Y0003800D01*
X0133979Y0029588D02*
X0113254Y0029588D01*
X0113604Y0030600D02*
X0113604Y0034900D01*
X0113604Y0034900D01*
X0113604Y0039200D01*
X0114625Y0039200D01*
X0114825Y0039400D01*
X0115927Y0039400D01*
X0115310Y0039655D01*
X0114134Y0040832D01*
X0113498Y0042368D01*
X0113498Y0044032D01*
X0114134Y0045568D01*
X0115179Y0046613D01*
X0115179Y0048497D01*
X0115559Y0049416D01*
X0119579Y0053436D01*
X0119579Y0058297D01*
X0119959Y0059216D01*
X0122537Y0061793D01*
X0123455Y0062174D01*
X0124429Y0062174D01*
X0124429Y0064200D01*
X0117975Y0064200D01*
X0117775Y0064400D01*
X0116753Y0064400D01*
X0116753Y0068700D01*
X0116753Y0073000D01*
X0115732Y0073000D01*
X0115532Y0073200D01*
X0107839Y0073200D01*
X0108139Y0073500D01*
X0117379Y0073500D01*
X0117379Y0073103D01*
X0117403Y0073044D01*
X0117403Y0073000D01*
X0116753Y0073000D01*
X0116753Y0068700D01*
X0116753Y0068700D01*
X0116753Y0068700D01*
X0116753Y0064400D01*
X0116104Y0064400D01*
X0116104Y0061303D01*
X0115723Y0060384D01*
X0115020Y0059681D01*
X0114101Y0059300D01*
X0111660Y0059300D01*
X0111660Y0056068D01*
X0109211Y0053619D01*
X0108979Y0053619D01*
X0108979Y0051303D01*
X0108598Y0050384D01*
X0107895Y0049681D01*
X0107579Y0049364D01*
X0107579Y0040903D01*
X0107198Y0039984D01*
X0106655Y0039441D01*
X0106655Y0039400D01*
X0112383Y0039400D01*
X0112583Y0039200D01*
X0113604Y0039200D01*
X0113604Y0034900D01*
X0113604Y0030600D01*
X0113604Y0031187D02*
X0113604Y0031187D01*
X0113604Y0032785D02*
X0113604Y0032785D01*
X0113604Y0034384D02*
X0113604Y0034384D01*
X0113604Y0034900D02*
X0113604Y0034900D01*
X0113604Y0035982D02*
X0113604Y0035982D01*
X0113604Y0037581D02*
X0113604Y0037581D01*
X0113604Y0039179D02*
X0113604Y0039179D01*
X0114188Y0040778D02*
X0107527Y0040778D01*
X0107579Y0042376D02*
X0113498Y0042376D01*
X0113498Y0043975D02*
X0107579Y0043975D01*
X0107579Y0045573D02*
X0114139Y0045573D01*
X0115179Y0047172D02*
X0107579Y0047172D01*
X0107579Y0048770D02*
X0115292Y0048770D01*
X0116512Y0050369D02*
X0108583Y0050369D01*
X0108979Y0051967D02*
X0118110Y0051967D01*
X0119579Y0053566D02*
X0108979Y0053566D01*
X0110756Y0055164D02*
X0119579Y0055164D01*
X0119579Y0056763D02*
X0111660Y0056763D01*
X0111660Y0058361D02*
X0119605Y0058361D01*
X0120703Y0059960D02*
X0115299Y0059960D01*
X0116104Y0061558D02*
X0122302Y0061558D01*
X0124429Y0063157D02*
X0116104Y0063157D01*
X0116753Y0064755D02*
X0116753Y0064755D01*
X0116753Y0066354D02*
X0116753Y0066354D01*
X0116753Y0067952D02*
X0116753Y0067952D01*
X0116753Y0069551D02*
X0116753Y0069551D01*
X0116753Y0071149D02*
X0116753Y0071149D01*
X0116753Y0072748D02*
X0116753Y0072748D01*
X0120979Y0076300D02*
X0120979Y0081300D01*
X0120979Y0076300D02*
X0106979Y0076300D01*
X0104479Y0073800D01*
X0104479Y0069024D01*
X0104155Y0068700D01*
X0101005Y0068700D02*
X0101005Y0081300D01*
X0101979Y0081300D01*
X0097677Y0079142D02*
X0079134Y0079142D01*
X0078541Y0080574D02*
X0079809Y0077512D01*
X0079809Y0074198D01*
X0078863Y0071912D01*
X0079640Y0072165D01*
X0080495Y0072300D01*
X0080828Y0072300D01*
X0080828Y0066900D01*
X0081028Y0066900D01*
X0086243Y0066900D01*
X0089159Y0063984D01*
X0089863Y0063281D01*
X0090629Y0062963D01*
X0090629Y0061900D01*
X0089981Y0061900D01*
X0089063Y0061519D01*
X0088359Y0060816D01*
X0087463Y0059919D01*
X0086759Y0059216D01*
X0086564Y0058745D01*
X0085760Y0060686D01*
X0084156Y0062290D01*
X0084106Y0062311D01*
X0084511Y0062605D01*
X0085123Y0063217D01*
X0085632Y0063917D01*
X0086025Y0064689D01*
X0086292Y0065512D01*
X0086428Y0066367D01*
X0086428Y0066700D01*
X0081028Y0066700D01*
X0081028Y0066900D01*
X0081028Y0072300D01*
X0081360Y0072300D01*
X0081898Y0072215D01*
X0081898Y0075610D01*
X0083069Y0076781D01*
X0089088Y0076781D01*
X0090260Y0075610D01*
X0090260Y0069954D01*
X0092314Y0067900D01*
X0093050Y0067900D01*
X0093969Y0067519D01*
X0095565Y0065924D01*
X0097905Y0065924D01*
X0097905Y0072028D01*
X0098205Y0072328D01*
X0098205Y0078285D01*
X0097909Y0078581D01*
X0097179Y0080345D01*
X0097179Y0082255D01*
X0097902Y0084000D01*
X0073584Y0084000D01*
X0076198Y0082918D01*
X0078541Y0080574D01*
X0078375Y0080740D02*
X0097179Y0080740D01*
X0097214Y0082339D02*
X0076776Y0082339D01*
X0073735Y0083937D02*
X0097876Y0083937D01*
X0098205Y0077543D02*
X0079797Y0077543D01*
X0079809Y0075945D02*
X0082233Y0075945D01*
X0081898Y0074346D02*
X0079809Y0074346D01*
X0079209Y0072748D02*
X0081898Y0072748D01*
X0081028Y0071149D02*
X0080828Y0071149D01*
X0080828Y0069551D02*
X0081028Y0069551D01*
X0081028Y0067952D02*
X0080828Y0067952D01*
X0080827Y0066900D02*
X0080827Y0066700D01*
X0075428Y0066700D01*
X0075428Y0066367D01*
X0075563Y0065512D01*
X0075831Y0064689D01*
X0076224Y0063917D01*
X0076732Y0063217D01*
X0077345Y0062605D01*
X0077749Y0062311D01*
X0077699Y0062290D01*
X0076095Y0060686D01*
X0075228Y0058591D01*
X0075228Y0056324D01*
X0076095Y0054229D01*
X0077304Y0053020D01*
X0076095Y0051812D01*
X0075228Y0049717D01*
X0075228Y0047450D01*
X0076095Y0045355D01*
X0077538Y0043912D01*
X0076095Y0042470D01*
X0076066Y0042400D01*
X0074864Y0042400D01*
X0075250Y0043334D01*
X0075250Y0044991D01*
X0074616Y0046522D01*
X0073445Y0047693D01*
X0071914Y0048328D01*
X0070256Y0048328D01*
X0068726Y0047693D01*
X0067554Y0046522D01*
X0066920Y0044991D01*
X0066920Y0043334D01*
X0067306Y0042400D01*
X0064279Y0042400D01*
X0064279Y0071468D01*
X0064416Y0071136D01*
X0066760Y0068793D01*
X0069822Y0067524D01*
X0073136Y0067524D01*
X0075729Y0068598D01*
X0075563Y0068088D01*
X0075428Y0067233D01*
X0075428Y0066900D01*
X0080827Y0066900D01*
X0075542Y0067952D02*
X0074169Y0067952D01*
X0075430Y0066354D02*
X0064279Y0066354D01*
X0064279Y0067952D02*
X0068788Y0067952D01*
X0070256Y0066044D02*
X0068726Y0065410D01*
X0067554Y0064238D01*
X0066920Y0062707D01*
X0066920Y0061050D01*
X0067554Y0059519D01*
X0068726Y0058348D01*
X0070256Y0057713D01*
X0071914Y0057713D01*
X0073445Y0058348D01*
X0074616Y0059519D01*
X0075250Y0061050D01*
X0075250Y0062707D01*
X0074616Y0064238D01*
X0073445Y0065410D01*
X0071914Y0066044D01*
X0070256Y0066044D01*
X0068071Y0064755D02*
X0064279Y0064755D01*
X0064279Y0063157D02*
X0067106Y0063157D01*
X0066920Y0061558D02*
X0064279Y0061558D01*
X0064279Y0059960D02*
X0067371Y0059960D01*
X0068712Y0058361D02*
X0064279Y0058361D01*
X0064279Y0056763D02*
X0075228Y0056763D01*
X0075228Y0058361D02*
X0073458Y0058361D01*
X0074799Y0059960D02*
X0075794Y0059960D01*
X0075250Y0061558D02*
X0076967Y0061558D01*
X0076793Y0063157D02*
X0075064Y0063157D01*
X0075809Y0064755D02*
X0074099Y0064755D01*
X0066002Y0069551D02*
X0064279Y0069551D01*
X0064279Y0071149D02*
X0064411Y0071149D01*
X0058679Y0071149D02*
X0058479Y0071149D01*
X0058479Y0069551D02*
X0058679Y0069551D01*
X0058679Y0067952D02*
X0058479Y0067952D01*
X0058479Y0066354D02*
X0058679Y0066354D01*
X0058679Y0064755D02*
X0058479Y0064755D01*
X0058479Y0063157D02*
X0058679Y0063157D01*
X0058679Y0061558D02*
X0058479Y0061558D01*
X0058479Y0059960D02*
X0058679Y0059960D01*
X0058679Y0058361D02*
X0058479Y0058361D01*
X0058479Y0056763D02*
X0058679Y0056763D01*
X0058679Y0055164D02*
X0058479Y0055164D01*
X0058479Y0053566D02*
X0058679Y0053566D01*
X0058679Y0051967D02*
X0058479Y0051967D01*
X0058479Y0050369D02*
X0058679Y0050369D01*
X0058679Y0048770D02*
X0058479Y0048770D01*
X0058479Y0047172D02*
X0058679Y0047172D01*
X0058679Y0045573D02*
X0058479Y0045573D01*
X0058479Y0043975D02*
X0058679Y0043975D01*
X0058679Y0042376D02*
X0058479Y0042376D01*
X0058479Y0040778D02*
X0058679Y0040778D01*
X0058479Y0039179D02*
X0058479Y0039179D01*
X0058479Y0037581D02*
X0059338Y0037581D01*
X0058479Y0035982D02*
X0065494Y0035982D01*
X0064200Y0034384D02*
X0058479Y0034384D01*
X0058479Y0032785D02*
X0063538Y0032785D01*
X0063148Y0031187D02*
X0058479Y0031187D01*
X0058479Y0029588D02*
X0063148Y0029588D01*
X0063371Y0027990D02*
X0058479Y0027990D01*
X0058479Y0026391D02*
X0064033Y0026391D01*
X0065091Y0024793D02*
X0058479Y0024793D01*
X0058479Y0023194D02*
X0066689Y0023194D01*
X0067779Y0021553D02*
X0065265Y0021553D01*
X0065265Y0017476D01*
X0069342Y0017476D01*
X0069342Y0019990D01*
X0069219Y0020448D01*
X0068982Y0020858D01*
X0068647Y0021193D01*
X0068237Y0021430D01*
X0067779Y0021553D01*
X0069340Y0019997D02*
X0073416Y0019997D01*
X0073416Y0020581D02*
X0073416Y0013019D01*
X0074587Y0011847D01*
X0082150Y0011847D01*
X0083321Y0013019D01*
X0083321Y0014000D01*
X0085817Y0014000D01*
X0085817Y0012428D01*
X0086989Y0011257D01*
X0094945Y0011257D01*
X0096117Y0012428D01*
X0096117Y0021172D01*
X0094945Y0022343D01*
X0086989Y0022343D01*
X0085817Y0021172D01*
X0085817Y0019600D01*
X0083321Y0019600D01*
X0083321Y0020581D01*
X0082150Y0021753D01*
X0074587Y0021753D01*
X0073416Y0020581D01*
X0074430Y0021596D02*
X0058479Y0021596D01*
X0060196Y0020858D02*
X0059959Y0020448D01*
X0059836Y0019990D01*
X0059836Y0017476D01*
X0063913Y0017476D01*
X0063913Y0021553D01*
X0061399Y0021553D01*
X0060941Y0021430D01*
X0060531Y0021193D01*
X0060196Y0020858D01*
X0059838Y0019997D02*
X0058479Y0019997D01*
X0058479Y0018399D02*
X0059836Y0018399D01*
X0058479Y0016800D02*
X0063913Y0016800D01*
X0063913Y0017476D02*
X0063913Y0016124D01*
X0065265Y0016124D01*
X0065265Y0012047D01*
X0067779Y0012047D01*
X0068237Y0012170D01*
X0068647Y0012407D01*
X0068982Y0012742D01*
X0069219Y0013152D01*
X0069342Y0013610D01*
X0069342Y0016124D01*
X0065265Y0016124D01*
X0065265Y0017476D01*
X0063913Y0017476D01*
X0063913Y0018399D02*
X0065265Y0018399D01*
X0065265Y0019997D02*
X0063913Y0019997D01*
X0065265Y0016800D02*
X0073416Y0016800D01*
X0073416Y0015201D02*
X0069342Y0015201D01*
X0069340Y0013603D02*
X0073416Y0013603D01*
X0074430Y0012004D02*
X0058479Y0012004D01*
X0058479Y0010406D02*
X0105498Y0010406D01*
X0105498Y0008807D02*
X0058479Y0008807D01*
X0058479Y0007209D02*
X0105879Y0007209D01*
X0097265Y0012004D02*
X0095693Y0012004D01*
X0096117Y0013603D02*
X0096841Y0013603D01*
X0096841Y0015201D02*
X0096117Y0015201D01*
X0096117Y0016800D02*
X0096841Y0016800D01*
X0096841Y0018399D02*
X0096117Y0018399D01*
X0096117Y0019997D02*
X0096841Y0019997D01*
X0097265Y0021596D02*
X0095693Y0021596D01*
X0093772Y0023194D02*
X0090063Y0023194D01*
X0090660Y0024793D02*
X0092619Y0024793D01*
X0092298Y0026391D02*
X0090660Y0026391D01*
X0086241Y0021596D02*
X0082307Y0021596D01*
X0082894Y0023194D02*
X0076268Y0023194D01*
X0077867Y0024793D02*
X0082298Y0024793D01*
X0082298Y0026391D02*
X0078924Y0026391D01*
X0079586Y0027990D02*
X0082298Y0027990D01*
X0082298Y0029588D02*
X0079809Y0029588D01*
X0079809Y0031187D02*
X0083979Y0031187D01*
X0083979Y0032785D02*
X0079419Y0032785D01*
X0084096Y0034384D02*
X0084346Y0034384D01*
X0085730Y0035982D02*
X0085925Y0035982D01*
X0080928Y0039241D02*
X0080569Y0039600D01*
X0061279Y0039600D01*
X0061479Y0039400D01*
X0061479Y0086800D01*
X0111479Y0086800D01*
X0146479Y0086800D01*
X0150443Y0090332D02*
X0152798Y0090332D01*
X0156279Y0090332D02*
X0156679Y0090332D01*
X0156679Y0088733D02*
X0156279Y0088733D01*
X0156279Y0087134D02*
X0156679Y0087134D01*
X0156679Y0086600D02*
X0156679Y0081900D01*
X0156679Y0077000D01*
X0156279Y0077000D01*
X0156279Y0086600D01*
X0156679Y0086600D01*
X0156679Y0085536D02*
X0156279Y0085536D01*
X0156279Y0083937D02*
X0156679Y0083937D01*
X0156679Y0082339D02*
X0156279Y0082339D01*
X0156279Y0080740D02*
X0156679Y0080740D01*
X0159230Y0082339D02*
X0168180Y0082339D01*
X0168180Y0080740D02*
X0159751Y0080740D01*
X0161349Y0079142D02*
X0168180Y0079142D01*
X0168180Y0077543D02*
X0161579Y0077543D01*
X0161579Y0075945D02*
X0168180Y0075945D01*
X0168180Y0074346D02*
X0161238Y0074346D01*
X0159639Y0072748D02*
X0168180Y0072748D01*
X0168180Y0071149D02*
X0159625Y0071149D01*
X0161223Y0069551D02*
X0168180Y0069551D01*
X0168180Y0067952D02*
X0161779Y0067952D01*
X0161779Y0066354D02*
X0168180Y0066354D01*
X0168180Y0064755D02*
X0161779Y0064755D01*
X0160331Y0063157D02*
X0168180Y0063157D01*
X0168180Y0061558D02*
X0159216Y0061558D01*
X0160814Y0059960D02*
X0168180Y0059960D01*
X0168180Y0058361D02*
X0161779Y0058361D01*
X0161779Y0056763D02*
X0168180Y0056763D01*
X0168180Y0055164D02*
X0161779Y0055164D01*
X0160740Y0053566D02*
X0168180Y0053566D01*
X0168180Y0051967D02*
X0159231Y0051967D01*
X0160830Y0050369D02*
X0168180Y0050369D01*
X0168180Y0048770D02*
X0162079Y0048770D01*
X0153970Y0041389D02*
X0151620Y0043739D01*
X0149188Y0041306D01*
X0149424Y0041208D01*
X0150887Y0039746D01*
X0151479Y0038317D01*
X0152070Y0039746D01*
X0153533Y0041208D01*
X0153970Y0041389D01*
X0153102Y0040778D02*
X0149855Y0040778D01*
X0150257Y0042376D02*
X0152983Y0042376D01*
X0151836Y0039179D02*
X0151122Y0039179D01*
X0133979Y0031187D02*
X0125768Y0031187D01*
X0126153Y0032785D02*
X0128503Y0032785D01*
X0127980Y0034384D02*
X0126153Y0034384D01*
X0111479Y0026800D02*
X0110454Y0027825D01*
X0110454Y0034900D01*
X0101005Y0034900D02*
X0101005Y0031800D01*
X0101005Y0027273D01*
X0101479Y0026800D01*
X0101479Y0017312D01*
X0101991Y0016800D01*
X0090967Y0016800D02*
X0078369Y0016800D01*
X0073416Y0018399D02*
X0069342Y0018399D01*
X0065265Y0015201D02*
X0063913Y0015201D01*
X0063913Y0016124D02*
X0063913Y0012047D01*
X0061399Y0012047D01*
X0060941Y0012170D01*
X0060531Y0012407D01*
X0060196Y0012742D01*
X0059959Y0013152D01*
X0059836Y0013610D01*
X0059836Y0016124D01*
X0063913Y0016124D01*
X0059836Y0015201D02*
X0058479Y0015201D01*
X0058479Y0013603D02*
X0059838Y0013603D01*
X0063913Y0013603D02*
X0065265Y0013603D01*
X0082307Y0012004D02*
X0086241Y0012004D01*
X0085817Y0013603D02*
X0083321Y0013603D01*
X0083321Y0019997D02*
X0085817Y0019997D01*
X0119641Y0019997D02*
X0120009Y0019997D01*
X0120009Y0018399D02*
X0119641Y0018399D01*
X0119641Y0013603D02*
X0120009Y0013603D01*
X0077475Y0043975D02*
X0075250Y0043975D01*
X0075009Y0045573D02*
X0076005Y0045573D01*
X0075343Y0047172D02*
X0073966Y0047172D01*
X0075228Y0048770D02*
X0064279Y0048770D01*
X0064279Y0047172D02*
X0068204Y0047172D01*
X0067161Y0045573D02*
X0064279Y0045573D01*
X0064279Y0043975D02*
X0066920Y0043975D01*
X0064279Y0050369D02*
X0075497Y0050369D01*
X0076250Y0051967D02*
X0064279Y0051967D01*
X0064279Y0053566D02*
X0076758Y0053566D01*
X0075708Y0055164D02*
X0064279Y0055164D01*
X0084888Y0061558D02*
X0089157Y0061558D01*
X0088359Y0060816D02*
X0088359Y0060816D01*
X0087503Y0059960D02*
X0086061Y0059960D01*
X0087463Y0059919D02*
X0087463Y0059919D01*
X0085063Y0063157D02*
X0090161Y0063157D01*
X0088388Y0064755D02*
X0086046Y0064755D01*
X0086425Y0066354D02*
X0086789Y0066354D01*
X0090663Y0069551D02*
X0097905Y0069551D01*
X0097905Y0071149D02*
X0090260Y0071149D01*
X0090260Y0072748D02*
X0098205Y0072748D01*
X0098205Y0074346D02*
X0090260Y0074346D01*
X0089924Y0075945D02*
X0098205Y0075945D01*
X0097905Y0067952D02*
X0092262Y0067952D01*
X0095134Y0066354D02*
X0097905Y0066354D01*
X0059452Y0088733D02*
X0058479Y0088733D01*
X0058479Y0090332D02*
X0142515Y0090332D01*
X0144113Y0091930D02*
X0058479Y0091930D01*
X0058479Y0093529D02*
X0168180Y0093529D01*
X0168180Y0091930D02*
X0148844Y0091930D01*
X0160160Y0090332D02*
X0168180Y0090332D01*
X0168180Y0088733D02*
X0161579Y0088733D01*
X0161579Y0087134D02*
X0168180Y0087134D01*
X0168180Y0085536D02*
X0161579Y0085536D01*
X0160829Y0083937D02*
X0168180Y0083937D01*
X0156679Y0079142D02*
X0156279Y0079142D01*
X0156279Y0077543D02*
X0156679Y0077543D01*
X0058679Y0077543D02*
X0058479Y0077543D01*
X0058479Y0079142D02*
X0058679Y0079142D01*
X0058679Y0080740D02*
X0058479Y0080740D01*
X0058479Y0082339D02*
X0058679Y0082339D01*
X0058679Y0083937D02*
X0058479Y0083937D01*
X0058479Y0085536D02*
X0058679Y0085536D01*
X0058679Y0087134D02*
X0058479Y0087134D01*
X0058479Y0075945D02*
X0058679Y0075945D01*
X0058679Y0074346D02*
X0058479Y0074346D01*
X0058479Y0072748D02*
X0058679Y0072748D01*
D23*
X0080928Y0066800D02*
X0085928Y0061800D01*
X0086479Y0061800D01*
X0086479Y0036800D01*
X0081479Y0031800D01*
X0081479Y0021800D01*
X0061479Y0021800D01*
X0061479Y0016800D01*
X0064589Y0016800D01*
X0086479Y0026800D02*
X0086479Y0033000D01*
X0088879Y0035400D01*
X0088879Y0057800D01*
X0090479Y0059400D01*
X0094855Y0059400D01*
X0095129Y0059674D01*
X0095255Y0059800D01*
X0095129Y0062824D02*
X0092553Y0065400D01*
X0091279Y0065400D01*
X0086079Y0070600D01*
X0086079Y0072600D01*
X0107305Y0068700D02*
X0107479Y0068526D01*
X0107479Y0061800D01*
X0113604Y0061800D01*
X0113604Y0068700D01*
X0116479Y0068425D02*
X0116479Y0059800D01*
X0118079Y0058200D01*
X0118079Y0053400D01*
X0109079Y0044400D01*
X0113604Y0039875D01*
X0113604Y0034900D01*
X0113604Y0029675D01*
X0121479Y0021800D01*
X0121479Y0018454D01*
X0119825Y0016800D01*
X0109679Y0010600D02*
X0107079Y0013200D01*
X0107079Y0025400D01*
X0104155Y0028324D01*
X0104155Y0034900D01*
X0104155Y0040476D01*
X0105079Y0041400D01*
X0105079Y0050400D01*
X0106479Y0051800D01*
X0106479Y0056800D01*
X0107479Y0057800D01*
X0107479Y0061800D01*
X0116479Y0068425D02*
X0116753Y0068700D01*
X0119903Y0068700D02*
X0119903Y0073576D01*
X0119879Y0073600D01*
X0129279Y0073600D01*
X0131079Y0071800D01*
X0136479Y0071800D01*
X0141479Y0066800D01*
X0146479Y0066800D01*
X0141479Y0061800D02*
X0138679Y0064600D01*
X0136679Y0064600D01*
X0132579Y0068700D01*
X0123053Y0068700D01*
X0128929Y0062824D02*
X0128953Y0062800D01*
X0135679Y0062800D01*
X0136479Y0062000D01*
X0136479Y0056800D01*
X0141279Y0052000D01*
X0151679Y0052000D01*
X0156479Y0056800D01*
X0151479Y0061800D02*
X0141479Y0061800D01*
X0151479Y0061800D02*
X0156479Y0066800D01*
X0136479Y0051800D02*
X0134879Y0053400D01*
X0132679Y0053400D01*
X0132654Y0053375D01*
X0128929Y0053375D01*
X0125679Y0056000D02*
X0124679Y0056000D01*
X0124279Y0055600D01*
X0124279Y0050800D01*
X0121479Y0048000D01*
X0121479Y0042800D01*
X0122879Y0041400D01*
X0122879Y0041000D01*
X0126879Y0037000D01*
X0128479Y0037000D01*
X0128679Y0036800D01*
X0131479Y0036800D01*
X0132079Y0036200D01*
X0132279Y0036200D01*
X0117679Y0043200D02*
X0117679Y0048000D01*
X0122079Y0052400D01*
X0122079Y0057800D01*
X0123953Y0059674D01*
X0128929Y0059674D01*
X0128653Y0056800D02*
X0126479Y0056800D01*
X0125679Y0056000D01*
X0128653Y0056800D02*
X0128929Y0056524D01*
X0136479Y0051800D02*
X0136479Y0026800D01*
X0146479Y0016800D01*
X0151479Y0021800D02*
X0151479Y0041800D01*
X0156479Y0046800D01*
X0151479Y0021800D02*
X0156479Y0016800D01*
X0101005Y0031800D02*
X0096479Y0031800D01*
X0096479Y0026400D01*
X0091479Y0031800D02*
X0091479Y0037126D01*
X0095129Y0040776D01*
X0095255Y0043800D02*
X0095129Y0043926D01*
X0095255Y0043800D02*
X0100879Y0043800D01*
X0101279Y0043400D01*
X0099079Y0046800D02*
X0095405Y0046800D01*
X0095129Y0047076D01*
X0099079Y0046800D02*
X0099079Y0049400D01*
X0101479Y0051800D01*
X0112479Y0081200D02*
X0112479Y0085800D01*
X0111479Y0086800D01*
D24*
X0107479Y0057800D03*
X0118079Y0058200D03*
D25*
X0101479Y0051800D03*
X0109079Y0044400D03*
X0101279Y0043400D03*
X0117679Y0043200D03*
X0096479Y0026400D03*
D26*
X0091479Y0031800D03*
X0086479Y0026800D03*
X0109679Y0010600D03*
X0132279Y0036200D03*
X0086079Y0072600D03*
X0112479Y0081200D03*
M02*
