G75*
%MOIN*%
%OFA0B0*%
%FSLAX25Y25*%
%IPPOS*%
%LPD*%
%AMOC8*
5,1,8,0,0,1.08239X$1,22.5*
%
%ADD10C,0.02200*%
%ADD11C,0.00600*%
%ADD12C,0.01600*%
D10*
X0086359Y0081800D02*
X0086599Y0081800D01*
X0136359Y0081800D02*
X0136599Y0081800D01*
D11*
X0131951Y0040284D02*
X0091006Y0040284D01*
X0091006Y0063316D01*
X0131951Y0063316D01*
X0131951Y0040284D01*
X0129750Y0037627D02*
X0129752Y0037702D01*
X0129758Y0037776D01*
X0129768Y0037850D01*
X0129781Y0037923D01*
X0129799Y0037996D01*
X0129820Y0038067D01*
X0129845Y0038138D01*
X0129874Y0038207D01*
X0129907Y0038274D01*
X0129943Y0038339D01*
X0129982Y0038403D01*
X0130024Y0038464D01*
X0130070Y0038523D01*
X0130119Y0038580D01*
X0130171Y0038633D01*
X0130225Y0038684D01*
X0130282Y0038733D01*
X0130342Y0038777D01*
X0130404Y0038819D01*
X0130468Y0038858D01*
X0130534Y0038893D01*
X0130601Y0038924D01*
X0130671Y0038952D01*
X0130741Y0038976D01*
X0130813Y0038997D01*
X0130886Y0039013D01*
X0130959Y0039026D01*
X0131034Y0039035D01*
X0131108Y0039040D01*
X0131183Y0039041D01*
X0131257Y0039038D01*
X0131332Y0039031D01*
X0131405Y0039020D01*
X0131479Y0039006D01*
X0131551Y0038987D01*
X0131622Y0038965D01*
X0131692Y0038939D01*
X0131761Y0038909D01*
X0131827Y0038876D01*
X0131892Y0038839D01*
X0131955Y0038799D01*
X0132016Y0038755D01*
X0132074Y0038709D01*
X0132130Y0038659D01*
X0132183Y0038607D01*
X0132234Y0038552D01*
X0132281Y0038494D01*
X0132325Y0038434D01*
X0132366Y0038371D01*
X0132404Y0038307D01*
X0132438Y0038241D01*
X0132469Y0038172D01*
X0132496Y0038103D01*
X0132519Y0038032D01*
X0132538Y0037960D01*
X0132554Y0037887D01*
X0132566Y0037813D01*
X0132574Y0037739D01*
X0132578Y0037664D01*
X0132578Y0037590D01*
X0132574Y0037515D01*
X0132566Y0037441D01*
X0132554Y0037367D01*
X0132538Y0037294D01*
X0132519Y0037222D01*
X0132496Y0037151D01*
X0132469Y0037082D01*
X0132438Y0037013D01*
X0132404Y0036947D01*
X0132366Y0036883D01*
X0132325Y0036820D01*
X0132281Y0036760D01*
X0132234Y0036702D01*
X0132183Y0036647D01*
X0132130Y0036595D01*
X0132074Y0036545D01*
X0132016Y0036499D01*
X0131955Y0036455D01*
X0131892Y0036415D01*
X0131827Y0036378D01*
X0131761Y0036345D01*
X0131692Y0036315D01*
X0131622Y0036289D01*
X0131551Y0036267D01*
X0131479Y0036248D01*
X0131405Y0036234D01*
X0131332Y0036223D01*
X0131257Y0036216D01*
X0131183Y0036213D01*
X0131108Y0036214D01*
X0131034Y0036219D01*
X0130959Y0036228D01*
X0130886Y0036241D01*
X0130813Y0036257D01*
X0130741Y0036278D01*
X0130671Y0036302D01*
X0130601Y0036330D01*
X0130534Y0036361D01*
X0130468Y0036396D01*
X0130404Y0036435D01*
X0130342Y0036477D01*
X0130282Y0036521D01*
X0130225Y0036570D01*
X0130171Y0036621D01*
X0130119Y0036674D01*
X0130070Y0036731D01*
X0130024Y0036790D01*
X0129982Y0036851D01*
X0129943Y0036915D01*
X0129907Y0036980D01*
X0129874Y0037047D01*
X0129845Y0037116D01*
X0129820Y0037187D01*
X0129799Y0037258D01*
X0129781Y0037331D01*
X0129768Y0037404D01*
X0129758Y0037478D01*
X0129752Y0037552D01*
X0129750Y0037627D01*
X0122979Y0074300D02*
X0099979Y0074300D01*
X0108979Y0077800D02*
X0108979Y0081300D01*
X0106479Y0081300D01*
X0108979Y0081300D02*
X0108979Y0084800D01*
X0110479Y0084800D02*
X0110479Y0077800D01*
X0112479Y0077800D01*
X0112479Y0084800D01*
X0110479Y0084800D01*
X0113979Y0084800D02*
X0113979Y0081300D01*
X0116479Y0081300D01*
X0113979Y0081300D02*
X0113979Y0077800D01*
X0122979Y0074300D02*
X0123149Y0074302D01*
X0123320Y0074308D01*
X0123490Y0074319D01*
X0123660Y0074333D01*
X0123829Y0074352D01*
X0123998Y0074375D01*
X0124167Y0074401D01*
X0124334Y0074432D01*
X0124501Y0074467D01*
X0124667Y0074507D01*
X0124832Y0074550D01*
X0124996Y0074597D01*
X0125158Y0074648D01*
X0125320Y0074703D01*
X0125480Y0074762D01*
X0125638Y0074825D01*
X0125795Y0074891D01*
X0125950Y0074962D01*
X0126104Y0075036D01*
X0126255Y0075114D01*
X0126405Y0075196D01*
X0126553Y0075281D01*
X0126698Y0075370D01*
X0126841Y0075462D01*
X0126982Y0075558D01*
X0127121Y0075657D01*
X0127257Y0075760D01*
X0127391Y0075865D01*
X0127522Y0075974D01*
X0127650Y0076087D01*
X0127776Y0076202D01*
X0127899Y0076320D01*
X0128018Y0076441D01*
X0128135Y0076566D01*
X0128249Y0076693D01*
X0128360Y0076822D01*
X0128467Y0076955D01*
X0128571Y0077090D01*
X0128672Y0077227D01*
X0128770Y0077367D01*
X0128864Y0077509D01*
X0128954Y0077653D01*
X0129041Y0077800D01*
X0129125Y0077949D01*
X0129204Y0078099D01*
X0129280Y0078252D01*
X0129353Y0078406D01*
X0129421Y0078562D01*
X0129486Y0078720D01*
X0129547Y0078879D01*
X0129604Y0079040D01*
X0129657Y0079202D01*
X0129706Y0079365D01*
X0129751Y0079529D01*
X0129792Y0079695D01*
X0129830Y0079861D01*
X0129863Y0080029D01*
X0129891Y0080197D01*
X0129916Y0080365D01*
X0129937Y0080534D01*
X0129954Y0080704D01*
X0129966Y0080874D01*
X0129974Y0081044D01*
X0129978Y0081215D01*
X0129978Y0081385D01*
X0129974Y0081556D01*
X0129966Y0081726D01*
X0129954Y0081896D01*
X0129937Y0082066D01*
X0129916Y0082235D01*
X0129891Y0082403D01*
X0129863Y0082571D01*
X0129830Y0082739D01*
X0129792Y0082905D01*
X0129751Y0083071D01*
X0129706Y0083235D01*
X0129657Y0083398D01*
X0129604Y0083560D01*
X0129547Y0083721D01*
X0129486Y0083880D01*
X0129421Y0084038D01*
X0129353Y0084194D01*
X0129280Y0084348D01*
X0129204Y0084501D01*
X0129125Y0084651D01*
X0129041Y0084800D01*
X0128954Y0084947D01*
X0128864Y0085091D01*
X0128770Y0085233D01*
X0128672Y0085373D01*
X0128571Y0085510D01*
X0128467Y0085645D01*
X0128360Y0085778D01*
X0128249Y0085907D01*
X0128135Y0086034D01*
X0128018Y0086159D01*
X0127899Y0086280D01*
X0127776Y0086398D01*
X0127650Y0086513D01*
X0127522Y0086626D01*
X0127391Y0086735D01*
X0127257Y0086840D01*
X0127121Y0086943D01*
X0126982Y0087042D01*
X0126841Y0087138D01*
X0126698Y0087230D01*
X0126553Y0087319D01*
X0126405Y0087404D01*
X0126255Y0087486D01*
X0126104Y0087564D01*
X0125950Y0087638D01*
X0125795Y0087709D01*
X0125638Y0087775D01*
X0125480Y0087838D01*
X0125320Y0087897D01*
X0125158Y0087952D01*
X0124996Y0088003D01*
X0124832Y0088050D01*
X0124667Y0088093D01*
X0124501Y0088133D01*
X0124334Y0088168D01*
X0124167Y0088199D01*
X0123998Y0088225D01*
X0123829Y0088248D01*
X0123660Y0088267D01*
X0123490Y0088281D01*
X0123320Y0088292D01*
X0123149Y0088298D01*
X0122979Y0088300D01*
X0099979Y0088300D01*
X0099809Y0088298D01*
X0099638Y0088292D01*
X0099468Y0088281D01*
X0099298Y0088267D01*
X0099129Y0088248D01*
X0098960Y0088225D01*
X0098791Y0088199D01*
X0098624Y0088168D01*
X0098457Y0088133D01*
X0098291Y0088093D01*
X0098126Y0088050D01*
X0097962Y0088003D01*
X0097800Y0087952D01*
X0097638Y0087897D01*
X0097478Y0087838D01*
X0097320Y0087775D01*
X0097163Y0087709D01*
X0097008Y0087638D01*
X0096854Y0087564D01*
X0096703Y0087486D01*
X0096553Y0087404D01*
X0096405Y0087319D01*
X0096260Y0087230D01*
X0096117Y0087138D01*
X0095976Y0087042D01*
X0095837Y0086943D01*
X0095701Y0086840D01*
X0095567Y0086735D01*
X0095436Y0086626D01*
X0095308Y0086513D01*
X0095182Y0086398D01*
X0095059Y0086280D01*
X0094940Y0086159D01*
X0094823Y0086034D01*
X0094709Y0085907D01*
X0094598Y0085778D01*
X0094491Y0085645D01*
X0094387Y0085510D01*
X0094286Y0085373D01*
X0094188Y0085233D01*
X0094094Y0085091D01*
X0094004Y0084947D01*
X0093917Y0084800D01*
X0093833Y0084651D01*
X0093754Y0084501D01*
X0093678Y0084348D01*
X0093605Y0084194D01*
X0093537Y0084038D01*
X0093472Y0083880D01*
X0093411Y0083721D01*
X0093354Y0083560D01*
X0093301Y0083398D01*
X0093252Y0083235D01*
X0093207Y0083071D01*
X0093166Y0082905D01*
X0093128Y0082739D01*
X0093095Y0082571D01*
X0093067Y0082403D01*
X0093042Y0082235D01*
X0093021Y0082066D01*
X0093004Y0081896D01*
X0092992Y0081726D01*
X0092984Y0081556D01*
X0092980Y0081385D01*
X0092980Y0081215D01*
X0092984Y0081044D01*
X0092992Y0080874D01*
X0093004Y0080704D01*
X0093021Y0080534D01*
X0093042Y0080365D01*
X0093067Y0080197D01*
X0093095Y0080029D01*
X0093128Y0079861D01*
X0093166Y0079695D01*
X0093207Y0079529D01*
X0093252Y0079365D01*
X0093301Y0079202D01*
X0093354Y0079040D01*
X0093411Y0078879D01*
X0093472Y0078720D01*
X0093537Y0078562D01*
X0093605Y0078406D01*
X0093678Y0078252D01*
X0093754Y0078099D01*
X0093833Y0077949D01*
X0093917Y0077800D01*
X0094004Y0077653D01*
X0094094Y0077509D01*
X0094188Y0077367D01*
X0094286Y0077227D01*
X0094387Y0077090D01*
X0094491Y0076955D01*
X0094598Y0076822D01*
X0094709Y0076693D01*
X0094823Y0076566D01*
X0094940Y0076441D01*
X0095059Y0076320D01*
X0095182Y0076202D01*
X0095308Y0076087D01*
X0095436Y0075974D01*
X0095567Y0075865D01*
X0095701Y0075760D01*
X0095837Y0075657D01*
X0095976Y0075558D01*
X0096117Y0075462D01*
X0096260Y0075370D01*
X0096405Y0075281D01*
X0096553Y0075196D01*
X0096703Y0075114D01*
X0096854Y0075036D01*
X0097008Y0074962D01*
X0097163Y0074891D01*
X0097320Y0074825D01*
X0097478Y0074762D01*
X0097638Y0074703D01*
X0097800Y0074648D01*
X0097962Y0074597D01*
X0098126Y0074550D01*
X0098291Y0074507D01*
X0098457Y0074467D01*
X0098624Y0074432D01*
X0098791Y0074401D01*
X0098960Y0074375D01*
X0099129Y0074352D01*
X0099298Y0074333D01*
X0099468Y0074319D01*
X0099638Y0074308D01*
X0099809Y0074302D01*
X0099979Y0074300D01*
D12*
X0099979Y0072300D02*
X0122979Y0072300D01*
X0123198Y0072303D01*
X0123417Y0072311D01*
X0123636Y0072324D01*
X0123854Y0072343D01*
X0124072Y0072367D01*
X0124289Y0072396D01*
X0124506Y0072430D01*
X0124721Y0072470D01*
X0124936Y0072515D01*
X0125149Y0072566D01*
X0125361Y0072621D01*
X0125572Y0072682D01*
X0125781Y0072747D01*
X0125988Y0072818D01*
X0126194Y0072894D01*
X0126398Y0072975D01*
X0126600Y0073060D01*
X0126799Y0073151D01*
X0126996Y0073246D01*
X0127191Y0073347D01*
X0127384Y0073452D01*
X0127574Y0073561D01*
X0127761Y0073675D01*
X0127945Y0073794D01*
X0128126Y0073917D01*
X0128304Y0074045D01*
X0128480Y0074177D01*
X0128651Y0074313D01*
X0128820Y0074453D01*
X0128985Y0074597D01*
X0129146Y0074745D01*
X0129304Y0074897D01*
X0129458Y0075053D01*
X0129608Y0075213D01*
X0129755Y0075376D01*
X0129897Y0075543D01*
X0130035Y0075713D01*
X0130169Y0075887D01*
X0130299Y0076063D01*
X0130424Y0076243D01*
X0130545Y0076426D01*
X0130661Y0076612D01*
X0130773Y0076800D01*
X0130880Y0076991D01*
X0130983Y0077185D01*
X0131081Y0077381D01*
X0131174Y0077579D01*
X0131262Y0077780D01*
X0131345Y0077983D01*
X0131424Y0078188D01*
X0131497Y0078394D01*
X0131565Y0078602D01*
X0131628Y0078812D01*
X0131686Y0079024D01*
X0131739Y0079236D01*
X0131787Y0079450D01*
X0131829Y0079665D01*
X0131866Y0079881D01*
X0131898Y0080098D01*
X0131925Y0080316D01*
X0131946Y0080534D01*
X0131962Y0080752D01*
X0131973Y0080971D01*
X0131978Y0081190D01*
X0131978Y0081410D01*
X0131973Y0081629D01*
X0131962Y0081848D01*
X0131946Y0082066D01*
X0131925Y0082284D01*
X0131898Y0082502D01*
X0131866Y0082719D01*
X0131829Y0082935D01*
X0131787Y0083150D01*
X0131739Y0083364D01*
X0131686Y0083576D01*
X0131628Y0083788D01*
X0131565Y0083998D01*
X0131497Y0084206D01*
X0131424Y0084412D01*
X0131345Y0084617D01*
X0131262Y0084820D01*
X0131174Y0085021D01*
X0131081Y0085219D01*
X0130983Y0085415D01*
X0130880Y0085609D01*
X0130773Y0085800D01*
X0130661Y0085988D01*
X0130545Y0086174D01*
X0130424Y0086357D01*
X0130299Y0086537D01*
X0130169Y0086713D01*
X0130035Y0086887D01*
X0129897Y0087057D01*
X0129755Y0087224D01*
X0129608Y0087387D01*
X0129458Y0087547D01*
X0129304Y0087703D01*
X0129146Y0087855D01*
X0128985Y0088003D01*
X0128820Y0088147D01*
X0128651Y0088287D01*
X0128480Y0088423D01*
X0128304Y0088555D01*
X0128126Y0088683D01*
X0127945Y0088806D01*
X0127761Y0088925D01*
X0127574Y0089039D01*
X0127384Y0089148D01*
X0127191Y0089253D01*
X0126996Y0089354D01*
X0126799Y0089449D01*
X0126600Y0089540D01*
X0126398Y0089625D01*
X0126194Y0089706D01*
X0125988Y0089782D01*
X0125781Y0089853D01*
X0125572Y0089918D01*
X0125361Y0089979D01*
X0125149Y0090034D01*
X0124936Y0090085D01*
X0124721Y0090130D01*
X0124506Y0090170D01*
X0124289Y0090204D01*
X0124072Y0090233D01*
X0123854Y0090257D01*
X0123636Y0090276D01*
X0123417Y0090289D01*
X0123198Y0090297D01*
X0122979Y0090300D01*
X0099979Y0090300D01*
X0099760Y0090297D01*
X0099541Y0090289D01*
X0099322Y0090276D01*
X0099104Y0090257D01*
X0098886Y0090233D01*
X0098669Y0090204D01*
X0098452Y0090170D01*
X0098237Y0090130D01*
X0098022Y0090085D01*
X0097809Y0090034D01*
X0097597Y0089979D01*
X0097386Y0089918D01*
X0097177Y0089853D01*
X0096970Y0089782D01*
X0096764Y0089706D01*
X0096560Y0089625D01*
X0096358Y0089540D01*
X0096159Y0089449D01*
X0095962Y0089354D01*
X0095767Y0089253D01*
X0095574Y0089148D01*
X0095384Y0089039D01*
X0095197Y0088925D01*
X0095013Y0088806D01*
X0094832Y0088683D01*
X0094654Y0088555D01*
X0094478Y0088423D01*
X0094307Y0088287D01*
X0094138Y0088147D01*
X0093973Y0088003D01*
X0093812Y0087855D01*
X0093654Y0087703D01*
X0093500Y0087547D01*
X0093350Y0087387D01*
X0093203Y0087224D01*
X0093061Y0087057D01*
X0092923Y0086887D01*
X0092789Y0086713D01*
X0092659Y0086537D01*
X0092534Y0086357D01*
X0092413Y0086174D01*
X0092297Y0085988D01*
X0092185Y0085800D01*
X0092078Y0085609D01*
X0091975Y0085415D01*
X0091877Y0085219D01*
X0091784Y0085021D01*
X0091696Y0084820D01*
X0091613Y0084617D01*
X0091534Y0084412D01*
X0091461Y0084206D01*
X0091393Y0083998D01*
X0091330Y0083788D01*
X0091272Y0083576D01*
X0091219Y0083364D01*
X0091171Y0083150D01*
X0091129Y0082935D01*
X0091092Y0082719D01*
X0091060Y0082502D01*
X0091033Y0082284D01*
X0091012Y0082066D01*
X0090996Y0081848D01*
X0090985Y0081629D01*
X0090980Y0081410D01*
X0090980Y0081190D01*
X0090985Y0080971D01*
X0090996Y0080752D01*
X0091012Y0080534D01*
X0091033Y0080316D01*
X0091060Y0080098D01*
X0091092Y0079881D01*
X0091129Y0079665D01*
X0091171Y0079450D01*
X0091219Y0079236D01*
X0091272Y0079024D01*
X0091330Y0078812D01*
X0091393Y0078602D01*
X0091461Y0078394D01*
X0091534Y0078188D01*
X0091613Y0077983D01*
X0091696Y0077780D01*
X0091784Y0077579D01*
X0091877Y0077381D01*
X0091975Y0077185D01*
X0092078Y0076991D01*
X0092185Y0076800D01*
X0092297Y0076612D01*
X0092413Y0076426D01*
X0092534Y0076243D01*
X0092659Y0076063D01*
X0092789Y0075887D01*
X0092923Y0075713D01*
X0093061Y0075543D01*
X0093203Y0075376D01*
X0093350Y0075213D01*
X0093500Y0075053D01*
X0093654Y0074897D01*
X0093812Y0074745D01*
X0093973Y0074597D01*
X0094138Y0074453D01*
X0094307Y0074313D01*
X0094478Y0074177D01*
X0094654Y0074045D01*
X0094832Y0073917D01*
X0095013Y0073794D01*
X0095197Y0073675D01*
X0095384Y0073561D01*
X0095574Y0073452D01*
X0095767Y0073347D01*
X0095962Y0073246D01*
X0096159Y0073151D01*
X0096358Y0073060D01*
X0096560Y0072975D01*
X0096764Y0072894D01*
X0096970Y0072818D01*
X0097177Y0072747D01*
X0097386Y0072682D01*
X0097597Y0072621D01*
X0097809Y0072566D01*
X0098022Y0072515D01*
X0098237Y0072470D01*
X0098452Y0072430D01*
X0098669Y0072396D01*
X0098886Y0072367D01*
X0099104Y0072343D01*
X0099322Y0072324D01*
X0099541Y0072311D01*
X0099760Y0072303D01*
X0099979Y0072300D01*
M02*
