G75*
%MOIN*%
%OFA0B0*%
%FSLAX25Y25*%
%IPPOS*%
%LPD*%
%AMOC8*
5,1,8,0,0,1.08239X$1,22.5*
%
%ADD10R,0.06299X0.07087*%
%ADD11R,0.02480X0.03268*%
%ADD12C,0.07400*%
%ADD13C,0.12661*%
%ADD14R,0.04331X0.03937*%
%ADD15R,0.03937X0.04331*%
%ADD16R,0.02165X0.04724*%
%ADD17R,0.05500X0.01370*%
%ADD18C,0.05600*%
%ADD19OC8,0.06600*%
%ADD20C,0.06400*%
%ADD21OC8,0.07600*%
%ADD22C,0.01000*%
%ADD23C,0.04000*%
%ADD24C,0.01600*%
%ADD25R,0.04362X0.04362*%
D10*
X0075967Y0016500D03*
X0086991Y0016500D03*
X0115967Y0016500D03*
X0126991Y0016500D03*
X0126991Y0026500D03*
X0115967Y0026500D03*
X0140967Y0076500D03*
X0151991Y0076500D03*
D11*
X0151006Y0066500D03*
X0141951Y0066500D03*
D12*
X0080928Y0065280D03*
X0080928Y0055937D03*
X0080928Y0047063D03*
X0080928Y0037720D03*
D13*
X0071479Y0028665D03*
X0071479Y0074335D03*
D14*
X0148132Y0018500D03*
X0154825Y0018500D03*
D15*
X0131479Y0068154D03*
X0131479Y0074846D03*
D16*
X0105219Y0026619D03*
X0097739Y0026619D03*
X0097739Y0016381D03*
X0101479Y0016381D03*
X0105219Y0016381D03*
D17*
X0092085Y0044866D03*
X0092085Y0047425D03*
X0092085Y0049984D03*
X0092085Y0052543D03*
X0092085Y0055102D03*
X0092085Y0057661D03*
X0092085Y0060220D03*
X0092085Y0062780D03*
X0092085Y0065339D03*
X0092085Y0067898D03*
X0092085Y0070457D03*
X0092085Y0073016D03*
X0092085Y0075575D03*
X0092085Y0078134D03*
X0120872Y0078134D03*
X0120872Y0075575D03*
X0120872Y0073016D03*
X0120872Y0070457D03*
X0120872Y0067898D03*
X0120872Y0065339D03*
X0120872Y0062780D03*
X0120872Y0060220D03*
X0120872Y0057661D03*
X0120872Y0055102D03*
X0120872Y0052543D03*
X0120872Y0049984D03*
X0120872Y0047425D03*
X0120872Y0044866D03*
D18*
X0116979Y0086500D03*
X0135979Y0086500D03*
D19*
X0166479Y0071500D03*
X0176479Y0071500D03*
X0176479Y0061500D03*
X0166479Y0061500D03*
X0166479Y0051500D03*
X0176479Y0051500D03*
X0176479Y0041500D03*
X0166479Y0041500D03*
D20*
X0186479Y0051500D03*
X0186479Y0061500D03*
X0186479Y0071500D03*
D21*
X0186479Y0041500D03*
D22*
X0057979Y0003000D02*
X0057979Y0099961D01*
X0063611Y0099961D01*
X0062979Y0099328D01*
X0060979Y0097328D01*
X0060979Y0015172D01*
X0062150Y0014000D01*
X0062150Y0014000D01*
X0067979Y0008172D01*
X0067979Y0008172D01*
X0069150Y0007000D01*
X0080150Y0007000D01*
X0080650Y0006500D01*
X0057979Y0006500D01*
X0057979Y0005501D02*
X0203680Y0005501D01*
X0203680Y0004503D02*
X0057979Y0004503D01*
X0057979Y0003504D02*
X0203680Y0003504D01*
X0203680Y0003000D02*
X0057979Y0003000D01*
X0057979Y0007499D02*
X0068652Y0007499D01*
X0067653Y0008497D02*
X0057979Y0008497D01*
X0057979Y0009496D02*
X0066655Y0009496D01*
X0065656Y0010494D02*
X0057979Y0010494D01*
X0057979Y0011493D02*
X0064658Y0011493D01*
X0063659Y0012491D02*
X0057979Y0012491D01*
X0057979Y0013490D02*
X0062661Y0013490D01*
X0061662Y0014488D02*
X0057979Y0014488D01*
X0057979Y0015487D02*
X0060979Y0015487D01*
X0060979Y0016485D02*
X0057979Y0016485D01*
X0057979Y0017484D02*
X0060979Y0017484D01*
X0060979Y0018482D02*
X0057979Y0018482D01*
X0057979Y0019481D02*
X0060979Y0019481D01*
X0060979Y0020479D02*
X0057979Y0020479D01*
X0057979Y0021478D02*
X0060979Y0021478D01*
X0060979Y0022476D02*
X0057979Y0022476D01*
X0057979Y0023475D02*
X0060979Y0023475D01*
X0060979Y0024473D02*
X0057979Y0024473D01*
X0057979Y0025472D02*
X0060979Y0025472D01*
X0060979Y0026470D02*
X0057979Y0026470D01*
X0057979Y0027469D02*
X0060979Y0027469D01*
X0060979Y0028467D02*
X0057979Y0028467D01*
X0057979Y0029466D02*
X0060979Y0029466D01*
X0060979Y0030464D02*
X0057979Y0030464D01*
X0057979Y0031463D02*
X0060979Y0031463D01*
X0060979Y0032461D02*
X0057979Y0032461D01*
X0057979Y0033460D02*
X0060979Y0033460D01*
X0060979Y0034458D02*
X0057979Y0034458D01*
X0057979Y0035457D02*
X0060979Y0035457D01*
X0060979Y0036455D02*
X0057979Y0036455D01*
X0057979Y0037454D02*
X0060979Y0037454D01*
X0060979Y0038452D02*
X0057979Y0038452D01*
X0057979Y0039451D02*
X0060979Y0039451D01*
X0060979Y0040449D02*
X0057979Y0040449D01*
X0057979Y0041448D02*
X0060979Y0041448D01*
X0060979Y0042446D02*
X0057979Y0042446D01*
X0057979Y0043445D02*
X0060979Y0043445D01*
X0060979Y0044443D02*
X0057979Y0044443D01*
X0057979Y0045442D02*
X0060979Y0045442D01*
X0060979Y0046440D02*
X0057979Y0046440D01*
X0057979Y0047439D02*
X0060979Y0047439D01*
X0060979Y0048437D02*
X0057979Y0048437D01*
X0057979Y0049436D02*
X0060979Y0049436D01*
X0060979Y0050434D02*
X0057979Y0050434D01*
X0057979Y0051433D02*
X0060979Y0051433D01*
X0060979Y0052432D02*
X0057979Y0052432D01*
X0057979Y0053430D02*
X0060979Y0053430D01*
X0060979Y0054429D02*
X0057979Y0054429D01*
X0057979Y0055427D02*
X0060979Y0055427D01*
X0060979Y0056426D02*
X0057979Y0056426D01*
X0057979Y0057424D02*
X0060979Y0057424D01*
X0060979Y0058423D02*
X0057979Y0058423D01*
X0057979Y0059421D02*
X0060979Y0059421D01*
X0060979Y0060420D02*
X0057979Y0060420D01*
X0057979Y0061418D02*
X0060979Y0061418D01*
X0060979Y0062417D02*
X0057979Y0062417D01*
X0057979Y0063415D02*
X0060979Y0063415D01*
X0060979Y0064414D02*
X0057979Y0064414D01*
X0057979Y0065412D02*
X0060979Y0065412D01*
X0060979Y0066411D02*
X0057979Y0066411D01*
X0057979Y0067409D02*
X0060979Y0067409D01*
X0060979Y0068408D02*
X0057979Y0068408D01*
X0057979Y0069406D02*
X0060979Y0069406D01*
X0060979Y0070405D02*
X0057979Y0070405D01*
X0057979Y0071403D02*
X0060979Y0071403D01*
X0060979Y0072402D02*
X0057979Y0072402D01*
X0057979Y0073400D02*
X0060979Y0073400D01*
X0060979Y0074399D02*
X0057979Y0074399D01*
X0057979Y0075397D02*
X0060979Y0075397D01*
X0060979Y0076396D02*
X0057979Y0076396D01*
X0057979Y0077394D02*
X0060979Y0077394D01*
X0060979Y0078393D02*
X0057979Y0078393D01*
X0057979Y0079391D02*
X0060979Y0079391D01*
X0060979Y0080390D02*
X0057979Y0080390D01*
X0057979Y0081388D02*
X0060979Y0081388D01*
X0060979Y0082387D02*
X0057979Y0082387D01*
X0057979Y0083385D02*
X0060979Y0083385D01*
X0060979Y0084384D02*
X0057979Y0084384D01*
X0057979Y0085382D02*
X0060979Y0085382D01*
X0060979Y0086381D02*
X0057979Y0086381D01*
X0057979Y0087379D02*
X0060979Y0087379D01*
X0060979Y0088378D02*
X0057979Y0088378D01*
X0057979Y0089376D02*
X0060979Y0089376D01*
X0060979Y0090375D02*
X0057979Y0090375D01*
X0057979Y0091373D02*
X0060979Y0091373D01*
X0060979Y0092372D02*
X0057979Y0092372D01*
X0057979Y0093370D02*
X0060979Y0093370D01*
X0060979Y0094369D02*
X0057979Y0094369D01*
X0057979Y0095368D02*
X0060979Y0095368D01*
X0060979Y0096366D02*
X0057979Y0096366D01*
X0057979Y0097365D02*
X0061015Y0097365D01*
X0062013Y0098363D02*
X0057979Y0098363D01*
X0057979Y0099362D02*
X0063012Y0099362D01*
X0062979Y0099328D02*
X0062979Y0099328D01*
X0064979Y0098500D02*
X0062979Y0096500D01*
X0062979Y0016000D01*
X0069979Y0009000D01*
X0080979Y0009000D01*
X0081479Y0008500D01*
X0081479Y0026500D01*
X0097620Y0026500D01*
X0097739Y0026619D01*
X0100321Y0026470D02*
X0102636Y0026470D01*
X0102636Y0025472D02*
X0100321Y0025472D01*
X0100321Y0024473D02*
X0102636Y0024473D01*
X0102636Y0023635D02*
X0103515Y0022756D01*
X0106923Y0022756D01*
X0107479Y0023312D01*
X0107479Y0019688D01*
X0106923Y0020244D01*
X0103515Y0020244D01*
X0103313Y0020042D01*
X0103140Y0020141D01*
X0102759Y0020244D01*
X0101520Y0020244D01*
X0101520Y0016423D01*
X0101437Y0016423D01*
X0101437Y0020244D01*
X0100199Y0020244D01*
X0099817Y0020141D01*
X0099644Y0020042D01*
X0099443Y0020244D01*
X0096035Y0020244D01*
X0095156Y0019365D01*
X0095156Y0018381D01*
X0091640Y0018381D01*
X0091640Y0020665D01*
X0090761Y0021543D01*
X0083479Y0021543D01*
X0083479Y0024500D01*
X0095156Y0024500D01*
X0095156Y0023635D01*
X0096035Y0022756D01*
X0099443Y0022756D01*
X0100321Y0023635D01*
X0100321Y0029602D01*
X0099443Y0030481D01*
X0096035Y0030481D01*
X0095156Y0029602D01*
X0095156Y0028500D01*
X0080650Y0028500D01*
X0079479Y0027328D01*
X0079479Y0021499D01*
X0079314Y0021543D01*
X0076467Y0021543D01*
X0076467Y0017000D01*
X0075467Y0017000D01*
X0075467Y0021543D01*
X0074747Y0021543D01*
X0075914Y0022027D01*
X0078117Y0024230D01*
X0079309Y0027108D01*
X0079309Y0030223D01*
X0078117Y0033101D01*
X0075914Y0035304D01*
X0073036Y0036496D01*
X0069921Y0036496D01*
X0067043Y0035304D01*
X0064979Y0033240D01*
X0064979Y0069760D01*
X0067043Y0067696D01*
X0069921Y0066504D01*
X0073036Y0066504D01*
X0075914Y0067696D01*
X0078117Y0069899D01*
X0079309Y0072777D01*
X0079309Y0075892D01*
X0078117Y0078770D01*
X0075914Y0080973D01*
X0073036Y0082165D01*
X0069921Y0082165D01*
X0067043Y0080973D01*
X0064979Y0078909D01*
X0064979Y0095672D01*
X0065807Y0096500D01*
X0079479Y0096500D01*
X0079479Y0089450D01*
X0078512Y0088483D01*
X0077979Y0087196D01*
X0077979Y0085804D01*
X0078512Y0084517D01*
X0079496Y0083533D01*
X0080783Y0083000D01*
X0082175Y0083000D01*
X0083461Y0083533D01*
X0084446Y0084517D01*
X0084979Y0085804D01*
X0084979Y0087196D01*
X0084446Y0088483D01*
X0083479Y0089450D01*
X0083479Y0096500D01*
X0184479Y0096500D01*
X0184479Y0075759D01*
X0183816Y0075484D01*
X0182494Y0074162D01*
X0181779Y0072435D01*
X0181779Y0070565D01*
X0182494Y0068838D01*
X0183816Y0067516D01*
X0185544Y0066800D01*
X0187414Y0066800D01*
X0189141Y0067516D01*
X0190463Y0068838D01*
X0191179Y0070565D01*
X0191179Y0072435D01*
X0190463Y0074162D01*
X0189141Y0075484D01*
X0188479Y0075759D01*
X0188479Y0098828D01*
X0187347Y0099961D01*
X0203680Y0099961D01*
X0203680Y0003000D01*
X0200307Y0006500D02*
X0199807Y0006000D01*
X0096150Y0006000D01*
X0094979Y0007172D01*
X0094479Y0007672D01*
X0094479Y0014381D01*
X0091640Y0014381D01*
X0091640Y0012335D01*
X0090761Y0011457D01*
X0083479Y0011457D01*
X0083479Y0007672D01*
X0082307Y0006500D01*
X0095650Y0006500D01*
X0094652Y0007499D02*
X0083306Y0007499D01*
X0083479Y0008497D02*
X0094479Y0008497D01*
X0094479Y0009496D02*
X0083479Y0009496D01*
X0083479Y0010494D02*
X0094479Y0010494D01*
X0094479Y0011493D02*
X0090797Y0011493D01*
X0091640Y0012491D02*
X0094479Y0012491D01*
X0094479Y0013490D02*
X0091640Y0013490D01*
X0096479Y0015122D02*
X0096479Y0008500D01*
X0096979Y0008000D01*
X0198979Y0008000D01*
X0199479Y0008500D01*
X0199479Y0051500D01*
X0186479Y0051500D01*
X0181779Y0051433D02*
X0181279Y0051433D01*
X0181279Y0050434D02*
X0181833Y0050434D01*
X0181779Y0050565D02*
X0182494Y0048838D01*
X0183816Y0047516D01*
X0185544Y0046800D01*
X0187414Y0046800D01*
X0189141Y0047516D01*
X0190463Y0048838D01*
X0190738Y0049500D01*
X0197479Y0049500D01*
X0197479Y0010000D01*
X0098479Y0010000D01*
X0098479Y0012519D01*
X0099443Y0012519D01*
X0099644Y0012721D01*
X0099817Y0012622D01*
X0100199Y0012519D01*
X0101437Y0012519D01*
X0101437Y0016340D01*
X0101520Y0016340D01*
X0101520Y0012519D01*
X0102759Y0012519D01*
X0103140Y0012622D01*
X0103313Y0012721D01*
X0103515Y0012519D01*
X0106923Y0012519D01*
X0107802Y0013398D01*
X0107802Y0014500D01*
X0109807Y0014500D01*
X0110307Y0015000D01*
X0111479Y0016172D01*
X0111479Y0017000D01*
X0115467Y0017000D01*
X0115467Y0016000D01*
X0116467Y0016000D01*
X0116467Y0017000D01*
X0120617Y0017000D01*
X0120617Y0019534D01*
X0120650Y0019500D01*
X0122341Y0019500D01*
X0122341Y0012335D01*
X0123220Y0011457D01*
X0130761Y0011457D01*
X0131640Y0012335D01*
X0131640Y0012500D01*
X0155807Y0012500D01*
X0156979Y0013672D01*
X0156979Y0015031D01*
X0157612Y0015031D01*
X0158491Y0015910D01*
X0158491Y0021090D01*
X0157612Y0021968D01*
X0153839Y0021968D01*
X0148479Y0027328D01*
X0147307Y0028500D01*
X0144428Y0028500D01*
X0143461Y0029467D01*
X0142622Y0029815D01*
X0147307Y0034500D01*
X0148479Y0035672D01*
X0148479Y0062328D01*
X0144691Y0066116D01*
X0144691Y0068755D01*
X0143813Y0069634D01*
X0140090Y0069634D01*
X0139211Y0068755D01*
X0139211Y0068500D01*
X0134947Y0068500D01*
X0134947Y0070940D01*
X0134387Y0071500D01*
X0134648Y0071760D01*
X0134845Y0072102D01*
X0134947Y0072484D01*
X0134947Y0074362D01*
X0131963Y0074362D01*
X0131963Y0075331D01*
X0130994Y0075331D01*
X0130994Y0074362D01*
X0128010Y0074362D01*
X0128010Y0072484D01*
X0128112Y0072102D01*
X0128310Y0071760D01*
X0128570Y0071500D01*
X0128010Y0070940D01*
X0128010Y0065367D01*
X0128889Y0064488D01*
X0134069Y0064488D01*
X0134080Y0064500D01*
X0139211Y0064500D01*
X0139211Y0064245D01*
X0140090Y0063366D01*
X0141784Y0063366D01*
X0144479Y0060672D01*
X0144479Y0037328D01*
X0140650Y0033500D01*
X0131162Y0033500D01*
X0131134Y0033472D01*
X0131479Y0034304D01*
X0131479Y0035672D01*
X0134307Y0038500D01*
X0134781Y0038500D01*
X0135399Y0038376D01*
X0135584Y0038500D01*
X0135807Y0038500D01*
X0136253Y0038946D01*
X0137084Y0039500D01*
X0137307Y0039500D01*
X0137753Y0039946D01*
X0138277Y0040295D01*
X0138321Y0040514D01*
X0142307Y0044500D01*
X0143479Y0045672D01*
X0143479Y0051597D01*
X0143979Y0052804D01*
X0143979Y0054196D01*
X0143446Y0055483D01*
X0142461Y0056467D01*
X0141175Y0057000D01*
X0139783Y0057000D01*
X0138496Y0056467D01*
X0137512Y0055483D01*
X0136979Y0054196D01*
X0136979Y0052804D01*
X0137512Y0051517D01*
X0138496Y0050533D01*
X0139479Y0050126D01*
X0139479Y0047328D01*
X0135205Y0043054D01*
X0134373Y0042500D01*
X0132650Y0042500D01*
X0131479Y0041328D01*
X0128650Y0038500D01*
X0127283Y0038500D01*
X0125996Y0037967D01*
X0125012Y0036983D01*
X0124479Y0035696D01*
X0124479Y0034304D01*
X0125012Y0033017D01*
X0125996Y0032033D01*
X0127178Y0031543D01*
X0123220Y0031543D01*
X0122341Y0030665D01*
X0122341Y0028466D01*
X0122307Y0028500D01*
X0120617Y0028500D01*
X0120617Y0030665D01*
X0119738Y0031543D01*
X0112196Y0031543D01*
X0111317Y0030665D01*
X0111317Y0028500D01*
X0108650Y0028500D01*
X0107802Y0027651D01*
X0107802Y0029602D01*
X0107219Y0030185D01*
X0107219Y0033018D01*
X0108461Y0033533D01*
X0109446Y0034517D01*
X0109979Y0035804D01*
X0109979Y0037196D01*
X0109446Y0038483D01*
X0108461Y0039467D01*
X0107175Y0040000D01*
X0105783Y0040000D01*
X0104496Y0039467D01*
X0103529Y0038500D01*
X0103479Y0038500D01*
X0103479Y0054328D01*
X0102307Y0055500D01*
X0098307Y0059500D01*
X0096335Y0059500D01*
X0096335Y0060220D01*
X0092085Y0060220D01*
X0087835Y0060220D01*
X0087835Y0059338D01*
X0087913Y0059046D01*
X0087835Y0058968D01*
X0087835Y0053796D01*
X0087913Y0053718D01*
X0087835Y0053426D01*
X0087835Y0052543D01*
X0087835Y0051661D01*
X0087913Y0051369D01*
X0087835Y0051291D01*
X0087835Y0049063D01*
X0085728Y0049063D01*
X0085336Y0050009D01*
X0083873Y0051471D01*
X0083804Y0051500D01*
X0083873Y0051529D01*
X0085336Y0052991D01*
X0086128Y0054903D01*
X0086128Y0056971D01*
X0085336Y0058883D01*
X0083873Y0060345D01*
X0083225Y0060614D01*
X0083653Y0060832D01*
X0084315Y0061313D01*
X0084894Y0061892D01*
X0085375Y0062554D01*
X0085747Y0063283D01*
X0086000Y0064062D01*
X0086128Y0064870D01*
X0086128Y0064880D01*
X0081328Y0064880D01*
X0081328Y0065680D01*
X0080528Y0065680D01*
X0080528Y0070480D01*
X0080518Y0070480D01*
X0079710Y0070351D01*
X0078931Y0070099D01*
X0078202Y0069727D01*
X0077540Y0069246D01*
X0076961Y0068667D01*
X0076480Y0068005D01*
X0076109Y0067276D01*
X0075856Y0066497D01*
X0075728Y0065689D01*
X0075728Y0065680D01*
X0080527Y0065680D01*
X0080527Y0064880D01*
X0075728Y0064880D01*
X0075728Y0064870D01*
X0075856Y0064062D01*
X0076109Y0063283D01*
X0076480Y0062554D01*
X0076961Y0061892D01*
X0077540Y0061313D01*
X0078202Y0060832D01*
X0078630Y0060614D01*
X0077982Y0060345D01*
X0076519Y0058883D01*
X0075728Y0056971D01*
X0075728Y0054903D01*
X0076519Y0052991D01*
X0077982Y0051529D01*
X0078051Y0051500D01*
X0077982Y0051471D01*
X0076519Y0050009D01*
X0075728Y0048097D01*
X0075728Y0046029D01*
X0076519Y0044117D01*
X0077982Y0042655D01*
X0078617Y0042392D01*
X0077982Y0042129D01*
X0076519Y0040666D01*
X0075728Y0038755D01*
X0075728Y0036686D01*
X0076519Y0034775D01*
X0077982Y0033312D01*
X0079893Y0032520D01*
X0081962Y0032520D01*
X0083873Y0033312D01*
X0084761Y0034200D01*
X0102431Y0034200D01*
X0102731Y0034500D01*
X0103219Y0034500D01*
X0103219Y0030185D01*
X0102636Y0029602D01*
X0102636Y0023635D01*
X0102796Y0023475D02*
X0100161Y0023475D01*
X0095316Y0023475D02*
X0083479Y0023475D01*
X0083479Y0024473D02*
X0095156Y0024473D01*
X0090827Y0021478D02*
X0107479Y0021478D01*
X0107479Y0022476D02*
X0083479Y0022476D01*
X0079479Y0022476D02*
X0076364Y0022476D01*
X0076467Y0021478D02*
X0075467Y0021478D01*
X0075467Y0020479D02*
X0076467Y0020479D01*
X0076467Y0019481D02*
X0075467Y0019481D01*
X0075467Y0018482D02*
X0076467Y0018482D01*
X0076467Y0017484D02*
X0075467Y0017484D01*
X0075467Y0017000D02*
X0075467Y0016000D01*
X0076467Y0016000D01*
X0076467Y0011457D01*
X0079314Y0011457D01*
X0079479Y0011501D01*
X0079479Y0011000D01*
X0070807Y0011000D01*
X0064979Y0016828D01*
X0064979Y0024091D01*
X0067043Y0022027D01*
X0069921Y0020835D01*
X0071542Y0020835D01*
X0071420Y0020622D01*
X0071317Y0020241D01*
X0071317Y0017000D01*
X0075467Y0017000D01*
X0075467Y0016485D02*
X0065322Y0016485D01*
X0064979Y0017484D02*
X0071317Y0017484D01*
X0071317Y0018482D02*
X0064979Y0018482D01*
X0064979Y0019481D02*
X0071317Y0019481D01*
X0071381Y0020479D02*
X0064979Y0020479D01*
X0064979Y0021478D02*
X0068369Y0021478D01*
X0066594Y0022476D02*
X0064979Y0022476D01*
X0064979Y0023475D02*
X0065595Y0023475D01*
X0077362Y0023475D02*
X0079479Y0023475D01*
X0079479Y0024473D02*
X0078218Y0024473D01*
X0078632Y0025472D02*
X0079479Y0025472D01*
X0079479Y0026470D02*
X0079045Y0026470D01*
X0079309Y0027469D02*
X0079619Y0027469D01*
X0079309Y0028467D02*
X0080618Y0028467D01*
X0079309Y0029466D02*
X0095156Y0029466D01*
X0096018Y0030464D02*
X0079209Y0030464D01*
X0078796Y0031463D02*
X0103219Y0031463D01*
X0103219Y0032461D02*
X0078382Y0032461D01*
X0077834Y0033460D02*
X0077759Y0033460D01*
X0076836Y0034458D02*
X0076760Y0034458D01*
X0076237Y0035457D02*
X0075545Y0035457D01*
X0075823Y0036455D02*
X0073135Y0036455D01*
X0069823Y0036455D02*
X0064979Y0036455D01*
X0064979Y0035457D02*
X0067412Y0035457D01*
X0066197Y0034458D02*
X0064979Y0034458D01*
X0064979Y0033460D02*
X0065199Y0033460D01*
X0064979Y0037454D02*
X0075728Y0037454D01*
X0075728Y0038452D02*
X0064979Y0038452D01*
X0064979Y0039451D02*
X0069210Y0039451D01*
X0069009Y0039534D02*
X0070356Y0038976D01*
X0071814Y0038976D01*
X0073161Y0039534D01*
X0074192Y0040565D01*
X0074750Y0041913D01*
X0074750Y0043371D01*
X0074192Y0044718D01*
X0073161Y0045749D01*
X0071814Y0046307D01*
X0070356Y0046307D01*
X0069009Y0045749D01*
X0067978Y0044718D01*
X0067420Y0043371D01*
X0067420Y0041913D01*
X0067978Y0040565D01*
X0069009Y0039534D01*
X0068094Y0040449D02*
X0064979Y0040449D01*
X0064979Y0041448D02*
X0067612Y0041448D01*
X0067420Y0042446D02*
X0064979Y0042446D01*
X0064979Y0043445D02*
X0067450Y0043445D01*
X0067864Y0044443D02*
X0064979Y0044443D01*
X0064979Y0045442D02*
X0068702Y0045442D01*
X0064979Y0046440D02*
X0075728Y0046440D01*
X0075728Y0047439D02*
X0064979Y0047439D01*
X0064979Y0048437D02*
X0075868Y0048437D01*
X0076282Y0049436D02*
X0064979Y0049436D01*
X0064979Y0050434D02*
X0076945Y0050434D01*
X0077944Y0051433D02*
X0064979Y0051433D01*
X0064979Y0052432D02*
X0077079Y0052432D01*
X0076338Y0053430D02*
X0064979Y0053430D01*
X0064979Y0054429D02*
X0075924Y0054429D01*
X0075728Y0055427D02*
X0064979Y0055427D01*
X0064979Y0056426D02*
X0075728Y0056426D01*
X0075915Y0057424D02*
X0073334Y0057424D01*
X0073161Y0057251D02*
X0074192Y0058282D01*
X0074750Y0059629D01*
X0074750Y0061087D01*
X0074192Y0062435D01*
X0073161Y0063466D01*
X0071814Y0064024D01*
X0070356Y0064024D01*
X0069009Y0063466D01*
X0067978Y0062435D01*
X0067420Y0061087D01*
X0067420Y0059629D01*
X0067978Y0058282D01*
X0069009Y0057251D01*
X0070356Y0056693D01*
X0071814Y0056693D01*
X0073161Y0057251D01*
X0074251Y0058423D02*
X0076329Y0058423D01*
X0077058Y0059421D02*
X0074664Y0059421D01*
X0074750Y0060420D02*
X0078161Y0060420D01*
X0077435Y0061418D02*
X0074613Y0061418D01*
X0074200Y0062417D02*
X0076580Y0062417D01*
X0076066Y0063415D02*
X0073212Y0063415D01*
X0075800Y0064414D02*
X0064979Y0064414D01*
X0064979Y0065412D02*
X0080527Y0065412D01*
X0081328Y0065412D02*
X0087835Y0065412D01*
X0087835Y0064414D02*
X0086055Y0064414D01*
X0085789Y0063415D02*
X0087835Y0063415D01*
X0087835Y0062417D02*
X0085275Y0062417D01*
X0084420Y0061418D02*
X0087890Y0061418D01*
X0087913Y0061395D02*
X0087835Y0061103D01*
X0087835Y0060221D01*
X0092085Y0060221D01*
X0092085Y0060220D01*
X0092085Y0060221D01*
X0096335Y0060221D01*
X0096335Y0061103D01*
X0096257Y0061395D01*
X0096335Y0061473D01*
X0096335Y0069204D01*
X0096257Y0069282D01*
X0096335Y0069574D01*
X0096335Y0070457D01*
X0096335Y0071339D01*
X0096257Y0071631D01*
X0096335Y0071709D01*
X0096335Y0079440D01*
X0095456Y0080319D01*
X0088714Y0080319D01*
X0087835Y0079440D01*
X0087835Y0071709D01*
X0087913Y0071631D01*
X0087835Y0071339D01*
X0087835Y0070457D01*
X0092085Y0070457D01*
X0092085Y0070457D01*
X0096335Y0070457D01*
X0092085Y0070457D01*
X0092085Y0070457D01*
X0087835Y0070457D01*
X0087835Y0069574D01*
X0087913Y0069282D01*
X0087835Y0069204D01*
X0087835Y0061473D01*
X0087913Y0061395D01*
X0087835Y0060420D02*
X0083694Y0060420D01*
X0084797Y0059421D02*
X0087835Y0059421D01*
X0087835Y0058423D02*
X0085526Y0058423D01*
X0085940Y0057424D02*
X0087835Y0057424D01*
X0087835Y0056426D02*
X0086128Y0056426D01*
X0086128Y0055427D02*
X0087835Y0055427D01*
X0087835Y0054429D02*
X0085931Y0054429D01*
X0085518Y0053430D02*
X0087836Y0053430D01*
X0087835Y0052543D02*
X0092085Y0052543D01*
X0087835Y0052543D01*
X0087835Y0052432D02*
X0084776Y0052432D01*
X0083911Y0051433D02*
X0087896Y0051433D01*
X0087835Y0050434D02*
X0084910Y0050434D01*
X0085573Y0049436D02*
X0087835Y0049436D01*
X0091723Y0047063D02*
X0092085Y0047425D01*
X0091723Y0047063D02*
X0080928Y0047063D01*
X0075971Y0045442D02*
X0073468Y0045442D01*
X0074306Y0044443D02*
X0076384Y0044443D01*
X0077192Y0043445D02*
X0074720Y0043445D01*
X0074750Y0042446D02*
X0078485Y0042446D01*
X0077301Y0041448D02*
X0074558Y0041448D01*
X0074076Y0040449D02*
X0076429Y0040449D01*
X0076016Y0039451D02*
X0072960Y0039451D01*
X0084021Y0033460D02*
X0103219Y0033460D01*
X0103219Y0034458D02*
X0102690Y0034458D01*
X0101479Y0036500D02*
X0106479Y0036500D01*
X0105219Y0035240D01*
X0105219Y0026619D01*
X0102636Y0027469D02*
X0100321Y0027469D01*
X0100321Y0028467D02*
X0102636Y0028467D01*
X0102636Y0029466D02*
X0100321Y0029466D01*
X0099459Y0030464D02*
X0103219Y0030464D01*
X0107219Y0030464D02*
X0111317Y0030464D01*
X0111317Y0029466D02*
X0107802Y0029466D01*
X0107802Y0028467D02*
X0108618Y0028467D01*
X0109479Y0026500D02*
X0115967Y0026500D01*
X0121479Y0026500D01*
X0121479Y0021500D01*
X0145132Y0021500D01*
X0148132Y0018500D01*
X0154825Y0018500D02*
X0154825Y0014846D01*
X0154479Y0014500D01*
X0154979Y0014500D01*
X0154979Y0018000D01*
X0146479Y0026500D01*
X0141479Y0026500D01*
X0143463Y0029466D02*
X0197479Y0029466D01*
X0197479Y0030464D02*
X0143271Y0030464D01*
X0144270Y0031463D02*
X0197479Y0031463D01*
X0197479Y0032461D02*
X0145268Y0032461D01*
X0146267Y0033460D02*
X0197479Y0033460D01*
X0197479Y0034458D02*
X0147265Y0034458D01*
X0148264Y0035457D02*
X0197479Y0035457D01*
X0197479Y0036455D02*
X0188929Y0036455D01*
X0188674Y0036200D02*
X0191779Y0039305D01*
X0191779Y0041000D01*
X0186979Y0041000D01*
X0186979Y0042000D01*
X0191779Y0042000D01*
X0191779Y0043695D01*
X0188674Y0046800D01*
X0186979Y0046800D01*
X0186979Y0042000D01*
X0185979Y0042000D01*
X0185979Y0046800D01*
X0184283Y0046800D01*
X0181179Y0043695D01*
X0181179Y0043588D01*
X0178467Y0046300D01*
X0174491Y0046300D01*
X0171679Y0043488D01*
X0171679Y0039512D01*
X0174491Y0036700D01*
X0178467Y0036700D01*
X0181179Y0039412D01*
X0181179Y0039305D01*
X0184283Y0036200D01*
X0185979Y0036200D01*
X0185979Y0041000D01*
X0186979Y0041000D01*
X0186979Y0036200D01*
X0188674Y0036200D01*
X0186979Y0036455D02*
X0185979Y0036455D01*
X0185979Y0037454D02*
X0186979Y0037454D01*
X0186979Y0038452D02*
X0185979Y0038452D01*
X0185979Y0039451D02*
X0186979Y0039451D01*
X0186979Y0040449D02*
X0185979Y0040449D01*
X0186979Y0041448D02*
X0197479Y0041448D01*
X0197479Y0042446D02*
X0191779Y0042446D01*
X0191779Y0043445D02*
X0197479Y0043445D01*
X0197479Y0044443D02*
X0191031Y0044443D01*
X0190032Y0045442D02*
X0197479Y0045442D01*
X0197479Y0046440D02*
X0189034Y0046440D01*
X0188956Y0047439D02*
X0197479Y0047439D01*
X0197479Y0048437D02*
X0190063Y0048437D01*
X0190711Y0049436D02*
X0197479Y0049436D01*
X0201479Y0049436D02*
X0203680Y0049436D01*
X0203680Y0050434D02*
X0201479Y0050434D01*
X0201479Y0051433D02*
X0203680Y0051433D01*
X0203680Y0052432D02*
X0201376Y0052432D01*
X0201479Y0052328D02*
X0200307Y0053500D01*
X0190738Y0053500D01*
X0190463Y0054162D01*
X0189141Y0055484D01*
X0187414Y0056200D01*
X0185544Y0056200D01*
X0183816Y0055484D01*
X0182494Y0054162D01*
X0181779Y0052435D01*
X0181779Y0050565D01*
X0181279Y0049512D02*
X0181279Y0053488D01*
X0180267Y0054500D01*
X0182307Y0054500D01*
X0184882Y0057074D01*
X0185544Y0056800D01*
X0187414Y0056800D01*
X0189141Y0057516D01*
X0190463Y0058838D01*
X0191179Y0060565D01*
X0191179Y0062435D01*
X0190463Y0064162D01*
X0189141Y0065484D01*
X0187414Y0066200D01*
X0185544Y0066200D01*
X0183816Y0065484D01*
X0182494Y0064162D01*
X0181779Y0062435D01*
X0181779Y0060565D01*
X0182053Y0059903D01*
X0180650Y0058500D01*
X0180267Y0058500D01*
X0181279Y0059512D01*
X0181279Y0061000D01*
X0176979Y0061000D01*
X0176979Y0062000D01*
X0181279Y0062000D01*
X0181279Y0063488D01*
X0178467Y0066300D01*
X0176979Y0066300D01*
X0176979Y0062000D01*
X0175979Y0062000D01*
X0175979Y0066300D01*
X0174491Y0066300D01*
X0171679Y0063488D01*
X0171679Y0062000D01*
X0175979Y0062000D01*
X0175979Y0061000D01*
X0171679Y0061000D01*
X0171679Y0059512D01*
X0172691Y0058500D01*
X0170267Y0058500D01*
X0171279Y0059512D01*
X0171279Y0063488D01*
X0168467Y0066300D01*
X0164507Y0066300D01*
X0163479Y0067328D01*
X0163479Y0067712D01*
X0164491Y0066700D01*
X0168467Y0066700D01*
X0171279Y0069512D01*
X0171279Y0073488D01*
X0168467Y0076300D01*
X0164491Y0076300D01*
X0163479Y0075288D01*
X0163479Y0087328D01*
X0162307Y0088500D01*
X0157307Y0093500D01*
X0110650Y0093500D01*
X0109479Y0092328D01*
X0109479Y0084450D01*
X0108512Y0083483D01*
X0107979Y0082196D01*
X0107979Y0080804D01*
X0108256Y0080134D01*
X0107284Y0080134D01*
X0106113Y0078962D01*
X0099479Y0072328D01*
X0099479Y0064450D01*
X0098512Y0063483D01*
X0097979Y0062196D01*
X0097979Y0060804D01*
X0098512Y0059517D01*
X0099496Y0058533D01*
X0100783Y0058000D01*
X0102175Y0058000D01*
X0103461Y0058533D01*
X0104446Y0059517D01*
X0104501Y0059650D01*
X0105650Y0058500D01*
X0106150Y0058500D01*
X0111479Y0053172D01*
X0111479Y0051804D01*
X0112012Y0050517D01*
X0112996Y0049533D01*
X0114283Y0049000D01*
X0115675Y0049000D01*
X0116622Y0049392D01*
X0116622Y0043560D01*
X0117501Y0042681D01*
X0124244Y0042681D01*
X0125122Y0043560D01*
X0125122Y0061527D01*
X0125044Y0061605D01*
X0125122Y0061897D01*
X0125122Y0062779D01*
X0120873Y0062779D01*
X0120873Y0062780D01*
X0125122Y0062780D01*
X0125122Y0063662D01*
X0125044Y0063954D01*
X0125122Y0064032D01*
X0125122Y0079440D01*
X0124244Y0080319D01*
X0117501Y0080319D01*
X0117316Y0080134D01*
X0114701Y0080134D01*
X0114979Y0080804D01*
X0114979Y0082196D01*
X0114740Y0082773D01*
X0116123Y0082200D01*
X0117834Y0082200D01*
X0119414Y0082855D01*
X0120624Y0084064D01*
X0121279Y0085645D01*
X0121279Y0087355D01*
X0120624Y0088936D01*
X0120060Y0089500D01*
X0132898Y0089500D01*
X0132333Y0088936D01*
X0131679Y0087355D01*
X0131679Y0085645D01*
X0132333Y0084064D01*
X0133543Y0082855D01*
X0135123Y0082200D01*
X0136834Y0082200D01*
X0138414Y0082855D01*
X0139624Y0084064D01*
X0140279Y0085645D01*
X0140279Y0087355D01*
X0139624Y0088936D01*
X0139060Y0089500D01*
X0155650Y0089500D01*
X0159479Y0085672D01*
X0159479Y0065672D01*
X0161679Y0063472D01*
X0161679Y0059512D01*
X0162691Y0058500D01*
X0161835Y0058500D01*
X0153746Y0066588D01*
X0153746Y0068755D01*
X0153006Y0069495D01*
X0153006Y0071457D01*
X0155761Y0071457D01*
X0156640Y0072335D01*
X0156640Y0080665D01*
X0155761Y0081543D01*
X0148220Y0081543D01*
X0147341Y0080665D01*
X0147341Y0072335D01*
X0148220Y0071457D01*
X0149006Y0071457D01*
X0149006Y0069495D01*
X0148266Y0068755D01*
X0148266Y0064245D01*
X0149145Y0063366D01*
X0151312Y0063366D01*
X0159006Y0055672D01*
X0159006Y0055672D01*
X0160178Y0054500D01*
X0162691Y0054500D01*
X0161679Y0053488D01*
X0161679Y0049512D01*
X0164491Y0046700D01*
X0168467Y0046700D01*
X0171279Y0049512D01*
X0171279Y0053488D01*
X0170267Y0054500D01*
X0172691Y0054500D01*
X0171679Y0053488D01*
X0171679Y0049512D01*
X0174491Y0046700D01*
X0178467Y0046700D01*
X0181279Y0049512D01*
X0181203Y0049436D02*
X0182246Y0049436D01*
X0182894Y0048437D02*
X0180204Y0048437D01*
X0179206Y0047439D02*
X0184001Y0047439D01*
X0183924Y0046440D02*
X0148479Y0046440D01*
X0148479Y0045442D02*
X0163632Y0045442D01*
X0164491Y0046300D02*
X0161679Y0043488D01*
X0161679Y0039512D01*
X0164491Y0036700D01*
X0168467Y0036700D01*
X0171279Y0039512D01*
X0171279Y0043488D01*
X0168467Y0046300D01*
X0164491Y0046300D01*
X0162634Y0044443D02*
X0148479Y0044443D01*
X0148479Y0043445D02*
X0161679Y0043445D01*
X0161679Y0042446D02*
X0148479Y0042446D01*
X0148479Y0041448D02*
X0161679Y0041448D01*
X0161679Y0040449D02*
X0148479Y0040449D01*
X0148479Y0039451D02*
X0161740Y0039451D01*
X0162738Y0038452D02*
X0148479Y0038452D01*
X0148479Y0037454D02*
X0163737Y0037454D01*
X0169221Y0037454D02*
X0173737Y0037454D01*
X0172738Y0038452D02*
X0170219Y0038452D01*
X0171218Y0039451D02*
X0171740Y0039451D01*
X0171679Y0040449D02*
X0171279Y0040449D01*
X0171279Y0041448D02*
X0171679Y0041448D01*
X0171679Y0042446D02*
X0171279Y0042446D01*
X0171279Y0043445D02*
X0171679Y0043445D01*
X0172634Y0044443D02*
X0170324Y0044443D01*
X0169325Y0045442D02*
X0173632Y0045442D01*
X0173752Y0047439D02*
X0169206Y0047439D01*
X0170204Y0048437D02*
X0172753Y0048437D01*
X0171755Y0049436D02*
X0171203Y0049436D01*
X0171279Y0050434D02*
X0171679Y0050434D01*
X0171679Y0051433D02*
X0171279Y0051433D01*
X0171279Y0052432D02*
X0171679Y0052432D01*
X0171679Y0053430D02*
X0171279Y0053430D01*
X0170338Y0054429D02*
X0172619Y0054429D01*
X0180338Y0054429D02*
X0182760Y0054429D01*
X0183234Y0055427D02*
X0183759Y0055427D01*
X0184233Y0056426D02*
X0203680Y0056426D01*
X0203680Y0057424D02*
X0188920Y0057424D01*
X0190048Y0058423D02*
X0203680Y0058423D01*
X0203680Y0059421D02*
X0190705Y0059421D01*
X0191118Y0060420D02*
X0203680Y0060420D01*
X0203680Y0061418D02*
X0191179Y0061418D01*
X0191179Y0062417D02*
X0203680Y0062417D01*
X0203680Y0063415D02*
X0190773Y0063415D01*
X0190212Y0064414D02*
X0203680Y0064414D01*
X0203680Y0065412D02*
X0189213Y0065412D01*
X0188884Y0067409D02*
X0203680Y0067409D01*
X0203680Y0066411D02*
X0164396Y0066411D01*
X0163781Y0067409D02*
X0163479Y0067409D01*
X0161479Y0066500D02*
X0166479Y0061500D01*
X0171279Y0061418D02*
X0175979Y0061418D01*
X0175979Y0062417D02*
X0176979Y0062417D01*
X0176979Y0063415D02*
X0175979Y0063415D01*
X0175979Y0064414D02*
X0176979Y0064414D01*
X0176979Y0065412D02*
X0175979Y0065412D01*
X0175979Y0066700D02*
X0175979Y0071000D01*
X0176979Y0071000D01*
X0176979Y0072000D01*
X0181279Y0072000D01*
X0181279Y0073488D01*
X0178467Y0076300D01*
X0176979Y0076300D01*
X0176979Y0072000D01*
X0175979Y0072000D01*
X0175979Y0076300D01*
X0174491Y0076300D01*
X0171679Y0073488D01*
X0171679Y0072000D01*
X0175979Y0072000D01*
X0175979Y0071000D01*
X0171679Y0071000D01*
X0171679Y0069512D01*
X0174491Y0066700D01*
X0175979Y0066700D01*
X0175979Y0067409D02*
X0176979Y0067409D01*
X0176979Y0066700D02*
X0178467Y0066700D01*
X0181279Y0069512D01*
X0181279Y0071000D01*
X0176979Y0071000D01*
X0176979Y0066700D01*
X0179176Y0067409D02*
X0184073Y0067409D01*
X0182924Y0068408D02*
X0180175Y0068408D01*
X0181173Y0069406D02*
X0182259Y0069406D01*
X0181845Y0070405D02*
X0181279Y0070405D01*
X0181779Y0071403D02*
X0176979Y0071403D01*
X0176479Y0071500D02*
X0176479Y0086500D01*
X0166479Y0086500D01*
X0163479Y0086381D02*
X0184479Y0086381D01*
X0184479Y0087379D02*
X0163428Y0087379D01*
X0162429Y0088378D02*
X0184479Y0088378D01*
X0184479Y0089376D02*
X0161431Y0089376D01*
X0160432Y0090375D02*
X0184479Y0090375D01*
X0184479Y0091373D02*
X0159434Y0091373D01*
X0158435Y0092372D02*
X0184479Y0092372D01*
X0184479Y0093370D02*
X0157437Y0093370D01*
X0156479Y0091500D02*
X0161479Y0086500D01*
X0161479Y0066500D01*
X0159479Y0066411D02*
X0153924Y0066411D01*
X0153746Y0067409D02*
X0159479Y0067409D01*
X0159479Y0068408D02*
X0153746Y0068408D01*
X0153095Y0069406D02*
X0159479Y0069406D01*
X0159479Y0070405D02*
X0153006Y0070405D01*
X0153006Y0071403D02*
X0159479Y0071403D01*
X0159479Y0072402D02*
X0156640Y0072402D01*
X0156640Y0073400D02*
X0159479Y0073400D01*
X0159479Y0074399D02*
X0156640Y0074399D01*
X0156640Y0075397D02*
X0159479Y0075397D01*
X0159479Y0076396D02*
X0156640Y0076396D01*
X0156640Y0077394D02*
X0159479Y0077394D01*
X0159479Y0078393D02*
X0156640Y0078393D01*
X0156640Y0079391D02*
X0159479Y0079391D01*
X0159479Y0080390D02*
X0156640Y0080390D01*
X0155916Y0081388D02*
X0159479Y0081388D01*
X0159479Y0082387D02*
X0137285Y0082387D01*
X0137620Y0081543D02*
X0137238Y0081441D01*
X0136896Y0081244D01*
X0136617Y0080964D01*
X0136420Y0080622D01*
X0136317Y0080241D01*
X0136317Y0077000D01*
X0140467Y0077000D01*
X0140467Y0081543D01*
X0137620Y0081543D01*
X0137147Y0081388D02*
X0114979Y0081388D01*
X0114900Y0082387D02*
X0115672Y0082387D01*
X0114807Y0080390D02*
X0136357Y0080390D01*
X0136317Y0079391D02*
X0125122Y0079391D01*
X0125122Y0078393D02*
X0128902Y0078393D01*
X0128931Y0078410D02*
X0128589Y0078212D01*
X0128310Y0077933D01*
X0128112Y0077591D01*
X0128010Y0077209D01*
X0128010Y0075331D01*
X0130994Y0075331D01*
X0130994Y0078512D01*
X0129313Y0078512D01*
X0128931Y0078410D01*
X0128060Y0077394D02*
X0125122Y0077394D01*
X0125122Y0076396D02*
X0128010Y0076396D01*
X0128010Y0075397D02*
X0125122Y0075397D01*
X0125122Y0074399D02*
X0130994Y0074399D01*
X0131479Y0074846D02*
X0126479Y0069846D01*
X0126479Y0062780D01*
X0120872Y0062780D01*
X0120872Y0062779D01*
X0116622Y0062779D01*
X0116622Y0061897D01*
X0116701Y0061605D01*
X0116622Y0061527D01*
X0116622Y0055608D01*
X0115675Y0056000D01*
X0114307Y0056000D01*
X0108479Y0061828D01*
X0108479Y0065672D01*
X0108705Y0065898D01*
X0116622Y0065898D01*
X0116622Y0064032D01*
X0116701Y0063954D01*
X0116622Y0063662D01*
X0116622Y0062780D01*
X0120872Y0062780D01*
X0116622Y0062417D02*
X0108479Y0062417D01*
X0108479Y0063415D02*
X0116622Y0063415D01*
X0116622Y0064414D02*
X0108479Y0064414D01*
X0108479Y0065412D02*
X0116622Y0065412D01*
X0120872Y0067898D02*
X0107876Y0067898D01*
X0106479Y0066500D01*
X0106479Y0060500D01*
X0106979Y0060500D01*
X0114979Y0052500D01*
X0111479Y0052432D02*
X0103479Y0052432D01*
X0103479Y0053430D02*
X0111220Y0053430D01*
X0110222Y0054429D02*
X0103379Y0054429D01*
X0102380Y0055427D02*
X0109223Y0055427D01*
X0108225Y0056426D02*
X0101382Y0056426D01*
X0100383Y0057424D02*
X0107226Y0057424D01*
X0106228Y0058423D02*
X0103195Y0058423D01*
X0104350Y0059421D02*
X0104729Y0059421D01*
X0101479Y0061500D02*
X0101479Y0071500D01*
X0108113Y0078134D01*
X0120872Y0078134D01*
X0118285Y0082387D02*
X0134672Y0082387D01*
X0133012Y0083385D02*
X0119945Y0083385D01*
X0120756Y0084384D02*
X0132201Y0084384D01*
X0131787Y0085382D02*
X0121170Y0085382D01*
X0121279Y0086381D02*
X0131679Y0086381D01*
X0131689Y0087379D02*
X0121269Y0087379D01*
X0120855Y0088378D02*
X0132102Y0088378D01*
X0132774Y0089376D02*
X0120183Y0089376D01*
X0111479Y0091500D02*
X0156479Y0091500D01*
X0155774Y0089376D02*
X0139183Y0089376D01*
X0139855Y0088378D02*
X0156772Y0088378D01*
X0157771Y0087379D02*
X0140269Y0087379D01*
X0140279Y0086381D02*
X0158769Y0086381D01*
X0159479Y0085382D02*
X0140170Y0085382D01*
X0139756Y0084384D02*
X0159479Y0084384D01*
X0159479Y0083385D02*
X0138945Y0083385D01*
X0140467Y0081388D02*
X0141467Y0081388D01*
X0141467Y0081543D02*
X0141467Y0077000D01*
X0145617Y0077000D01*
X0145617Y0080241D01*
X0145514Y0080622D01*
X0145317Y0080964D01*
X0145038Y0081244D01*
X0144696Y0081441D01*
X0144314Y0081543D01*
X0141467Y0081543D01*
X0141467Y0080390D02*
X0140467Y0080390D01*
X0140467Y0079391D02*
X0141467Y0079391D01*
X0141467Y0078393D02*
X0140467Y0078393D01*
X0140467Y0077394D02*
X0141467Y0077394D01*
X0141467Y0077000D02*
X0140467Y0077000D01*
X0140467Y0076000D01*
X0141467Y0076000D01*
X0141467Y0077000D01*
X0141467Y0076396D02*
X0147341Y0076396D01*
X0147341Y0077394D02*
X0145617Y0077394D01*
X0145617Y0078393D02*
X0147341Y0078393D01*
X0147341Y0079391D02*
X0145617Y0079391D01*
X0145577Y0080390D02*
X0147341Y0080390D01*
X0148065Y0081388D02*
X0144787Y0081388D01*
X0140467Y0076396D02*
X0134947Y0076396D01*
X0134947Y0077209D02*
X0134845Y0077591D01*
X0134648Y0077933D01*
X0134368Y0078212D01*
X0134026Y0078410D01*
X0133645Y0078512D01*
X0131963Y0078512D01*
X0131963Y0075331D01*
X0134947Y0075331D01*
X0134947Y0077209D01*
X0134898Y0077394D02*
X0136317Y0077394D01*
X0136317Y0078393D02*
X0134055Y0078393D01*
X0131963Y0078393D02*
X0130994Y0078393D01*
X0130994Y0077394D02*
X0131963Y0077394D01*
X0131963Y0076396D02*
X0130994Y0076396D01*
X0130994Y0075397D02*
X0131963Y0075397D01*
X0131963Y0074399D02*
X0136317Y0074399D01*
X0136317Y0075397D02*
X0134947Y0075397D01*
X0136317Y0076000D02*
X0136317Y0072759D01*
X0136420Y0072378D01*
X0136617Y0072036D01*
X0136896Y0071756D01*
X0137238Y0071559D01*
X0137620Y0071457D01*
X0140467Y0071457D01*
X0140467Y0076000D01*
X0136317Y0076000D01*
X0136317Y0073400D02*
X0134947Y0073400D01*
X0134925Y0072402D02*
X0136413Y0072402D01*
X0134484Y0071403D02*
X0149006Y0071403D01*
X0149006Y0070405D02*
X0134947Y0070405D01*
X0134947Y0069406D02*
X0139862Y0069406D01*
X0141467Y0071457D02*
X0144314Y0071457D01*
X0144696Y0071559D01*
X0145038Y0071756D01*
X0145317Y0072036D01*
X0145514Y0072378D01*
X0145617Y0072759D01*
X0145617Y0076000D01*
X0141467Y0076000D01*
X0141467Y0071457D01*
X0141467Y0072402D02*
X0140467Y0072402D01*
X0140467Y0073400D02*
X0141467Y0073400D01*
X0141467Y0074399D02*
X0140467Y0074399D01*
X0140467Y0075397D02*
X0141467Y0075397D01*
X0145617Y0075397D02*
X0147341Y0075397D01*
X0147341Y0074399D02*
X0145617Y0074399D01*
X0145617Y0073400D02*
X0147341Y0073400D01*
X0147341Y0072402D02*
X0145521Y0072402D01*
X0144040Y0069406D02*
X0148917Y0069406D01*
X0148266Y0068408D02*
X0144691Y0068408D01*
X0144691Y0067409D02*
X0148266Y0067409D01*
X0148266Y0066411D02*
X0144691Y0066411D01*
X0145395Y0065412D02*
X0148266Y0065412D01*
X0148266Y0064414D02*
X0146393Y0064414D01*
X0147392Y0063415D02*
X0149096Y0063415D01*
X0148391Y0062417D02*
X0152261Y0062417D01*
X0153260Y0061418D02*
X0148479Y0061418D01*
X0148479Y0060420D02*
X0154258Y0060420D01*
X0155257Y0059421D02*
X0148479Y0059421D01*
X0148479Y0058423D02*
X0156255Y0058423D01*
X0157254Y0057424D02*
X0148479Y0057424D01*
X0148479Y0056426D02*
X0158252Y0056426D01*
X0159251Y0055427D02*
X0148479Y0055427D01*
X0148479Y0054429D02*
X0162619Y0054429D01*
X0161679Y0053430D02*
X0148479Y0053430D01*
X0148479Y0052432D02*
X0161679Y0052432D01*
X0161679Y0051433D02*
X0148479Y0051433D01*
X0148479Y0050434D02*
X0161679Y0050434D01*
X0161755Y0049436D02*
X0148479Y0049436D01*
X0148479Y0048437D02*
X0162753Y0048437D01*
X0163752Y0047439D02*
X0148479Y0047439D01*
X0144479Y0047439D02*
X0143479Y0047439D01*
X0143479Y0048437D02*
X0144479Y0048437D01*
X0144479Y0049436D02*
X0143479Y0049436D01*
X0143479Y0050434D02*
X0144479Y0050434D01*
X0144479Y0051433D02*
X0143479Y0051433D01*
X0143825Y0052432D02*
X0144479Y0052432D01*
X0144479Y0053430D02*
X0143979Y0053430D01*
X0143882Y0054429D02*
X0144479Y0054429D01*
X0144479Y0055427D02*
X0143469Y0055427D01*
X0142503Y0056426D02*
X0144479Y0056426D01*
X0144479Y0057424D02*
X0125122Y0057424D01*
X0125122Y0056426D02*
X0138455Y0056426D01*
X0137489Y0055427D02*
X0125122Y0055427D01*
X0125122Y0054429D02*
X0137075Y0054429D01*
X0136979Y0053430D02*
X0125122Y0053430D01*
X0125122Y0052432D02*
X0137133Y0052432D01*
X0137596Y0051433D02*
X0125122Y0051433D01*
X0125122Y0050434D02*
X0138734Y0050434D01*
X0139479Y0049436D02*
X0125122Y0049436D01*
X0125122Y0048437D02*
X0139479Y0048437D01*
X0139479Y0047439D02*
X0125122Y0047439D01*
X0125122Y0046440D02*
X0138591Y0046440D01*
X0137592Y0045442D02*
X0125122Y0045442D01*
X0125122Y0044443D02*
X0136594Y0044443D01*
X0135595Y0043445D02*
X0125008Y0043445D01*
X0130600Y0040449D02*
X0103479Y0040449D01*
X0103479Y0039451D02*
X0104480Y0039451D01*
X0103479Y0041448D02*
X0131598Y0041448D01*
X0132597Y0042446D02*
X0103479Y0042446D01*
X0103479Y0043445D02*
X0116737Y0043445D01*
X0116622Y0044443D02*
X0103479Y0044443D01*
X0103479Y0045442D02*
X0116622Y0045442D01*
X0116622Y0046440D02*
X0103479Y0046440D01*
X0103479Y0047439D02*
X0116622Y0047439D01*
X0116622Y0048437D02*
X0103479Y0048437D01*
X0103479Y0049436D02*
X0113230Y0049436D01*
X0112094Y0050434D02*
X0103479Y0050434D01*
X0103479Y0051433D02*
X0111632Y0051433D01*
X0113882Y0056426D02*
X0116622Y0056426D01*
X0116622Y0057424D02*
X0112883Y0057424D01*
X0111885Y0058423D02*
X0116622Y0058423D01*
X0116622Y0059421D02*
X0110886Y0059421D01*
X0109888Y0060420D02*
X0116622Y0060420D01*
X0116622Y0061418D02*
X0108889Y0061418D01*
X0099762Y0058423D02*
X0099385Y0058423D01*
X0098608Y0059421D02*
X0098386Y0059421D01*
X0098138Y0060420D02*
X0096335Y0060420D01*
X0096280Y0061418D02*
X0097979Y0061418D01*
X0098070Y0062417D02*
X0096335Y0062417D01*
X0096335Y0063415D02*
X0098484Y0063415D01*
X0099443Y0064414D02*
X0096335Y0064414D01*
X0096335Y0065412D02*
X0099479Y0065412D01*
X0099479Y0066411D02*
X0096335Y0066411D01*
X0096335Y0067409D02*
X0099479Y0067409D01*
X0099479Y0068408D02*
X0096335Y0068408D01*
X0096290Y0069406D02*
X0099479Y0069406D01*
X0099479Y0070405D02*
X0096335Y0070405D01*
X0096318Y0071403D02*
X0099479Y0071403D01*
X0099552Y0072402D02*
X0096335Y0072402D01*
X0096335Y0073400D02*
X0100551Y0073400D01*
X0101549Y0074399D02*
X0096335Y0074399D01*
X0096335Y0075397D02*
X0102548Y0075397D01*
X0103546Y0076396D02*
X0096335Y0076396D01*
X0096335Y0077394D02*
X0104545Y0077394D01*
X0105543Y0078393D02*
X0096335Y0078393D01*
X0096335Y0079391D02*
X0106542Y0079391D01*
X0108150Y0080390D02*
X0076498Y0080390D01*
X0077496Y0079391D02*
X0087835Y0079391D01*
X0087835Y0078393D02*
X0078274Y0078393D01*
X0078687Y0077394D02*
X0087835Y0077394D01*
X0087835Y0076396D02*
X0079101Y0076396D01*
X0079309Y0075397D02*
X0087835Y0075397D01*
X0087835Y0074399D02*
X0079309Y0074399D01*
X0079309Y0073400D02*
X0087835Y0073400D01*
X0087835Y0072402D02*
X0079154Y0072402D01*
X0078740Y0071403D02*
X0087852Y0071403D01*
X0087835Y0070405D02*
X0081809Y0070405D01*
X0082145Y0070351D02*
X0081337Y0070480D01*
X0081328Y0070480D01*
X0081328Y0065680D01*
X0086128Y0065680D01*
X0086128Y0065689D01*
X0086000Y0066497D01*
X0085747Y0067276D01*
X0085375Y0068005D01*
X0084894Y0068667D01*
X0084315Y0069246D01*
X0083653Y0069727D01*
X0082924Y0070099D01*
X0082145Y0070351D01*
X0081328Y0070405D02*
X0080528Y0070405D01*
X0080046Y0070405D02*
X0078327Y0070405D01*
X0077761Y0069406D02*
X0077625Y0069406D01*
X0076773Y0068408D02*
X0076626Y0068408D01*
X0076177Y0067409D02*
X0075222Y0067409D01*
X0075842Y0066411D02*
X0064979Y0066411D01*
X0064979Y0067409D02*
X0067736Y0067409D01*
X0066331Y0068408D02*
X0064979Y0068408D01*
X0064979Y0069406D02*
X0065333Y0069406D01*
X0064979Y0063415D02*
X0068958Y0063415D01*
X0067970Y0062417D02*
X0064979Y0062417D01*
X0064979Y0061418D02*
X0067557Y0061418D01*
X0067420Y0060420D02*
X0064979Y0060420D01*
X0064979Y0059421D02*
X0067506Y0059421D01*
X0067919Y0058423D02*
X0064979Y0058423D01*
X0064979Y0057424D02*
X0068836Y0057424D01*
X0080528Y0066411D02*
X0081328Y0066411D01*
X0081328Y0067409D02*
X0080528Y0067409D01*
X0080528Y0068408D02*
X0081328Y0068408D01*
X0081328Y0069406D02*
X0080528Y0069406D01*
X0084094Y0069406D02*
X0087880Y0069406D01*
X0087835Y0068408D02*
X0085082Y0068408D01*
X0085679Y0067409D02*
X0087835Y0067409D01*
X0087835Y0066411D02*
X0086013Y0066411D01*
X0092085Y0057661D02*
X0092246Y0057500D01*
X0097479Y0057500D01*
X0101479Y0053500D01*
X0101479Y0036500D01*
X0099479Y0038800D02*
X0092660Y0038800D01*
X0092660Y0039613D01*
X0092913Y0039866D01*
X0094085Y0041038D01*
X0094085Y0042681D01*
X0095456Y0042681D01*
X0096335Y0043560D01*
X0096335Y0051291D01*
X0096257Y0051369D01*
X0096335Y0051661D01*
X0096335Y0052543D01*
X0092085Y0052543D01*
X0092085Y0052543D01*
X0092085Y0052543D01*
X0096335Y0052543D01*
X0096335Y0053426D01*
X0096257Y0053718D01*
X0096335Y0053796D01*
X0096335Y0055500D01*
X0096650Y0055500D01*
X0099479Y0052672D01*
X0099479Y0038800D01*
X0099479Y0039451D02*
X0092660Y0039451D01*
X0093497Y0040449D02*
X0099479Y0040449D01*
X0099479Y0041448D02*
X0094085Y0041448D01*
X0094085Y0042446D02*
X0099479Y0042446D01*
X0099479Y0043445D02*
X0096220Y0043445D01*
X0096335Y0044443D02*
X0099479Y0044443D01*
X0099479Y0045442D02*
X0096335Y0045442D01*
X0096335Y0046440D02*
X0099479Y0046440D01*
X0099479Y0047439D02*
X0096335Y0047439D01*
X0096335Y0048437D02*
X0099479Y0048437D01*
X0099479Y0049436D02*
X0096335Y0049436D01*
X0096335Y0050434D02*
X0099479Y0050434D01*
X0099479Y0051433D02*
X0096274Y0051433D01*
X0096335Y0052432D02*
X0099479Y0052432D01*
X0098720Y0053430D02*
X0096334Y0053430D01*
X0096335Y0054429D02*
X0097722Y0054429D01*
X0096723Y0055427D02*
X0096335Y0055427D01*
X0092085Y0044866D02*
X0092085Y0041866D01*
X0091219Y0041000D01*
X0088979Y0041000D01*
X0108478Y0039451D02*
X0129601Y0039451D01*
X0127168Y0038452D02*
X0109458Y0038452D01*
X0109872Y0037454D02*
X0125483Y0037454D01*
X0124793Y0036455D02*
X0109979Y0036455D01*
X0109835Y0035457D02*
X0124479Y0035457D01*
X0124479Y0034458D02*
X0109387Y0034458D01*
X0108285Y0033460D02*
X0124828Y0033460D01*
X0125568Y0032461D02*
X0107219Y0032461D01*
X0107219Y0031463D02*
X0112115Y0031463D01*
X0119818Y0031463D02*
X0123139Y0031463D01*
X0122341Y0030464D02*
X0120617Y0030464D01*
X0120617Y0029466D02*
X0122341Y0029466D01*
X0122340Y0028467D02*
X0122341Y0028467D01*
X0126991Y0026500D02*
X0131991Y0031500D01*
X0141479Y0031500D01*
X0146479Y0036500D01*
X0146479Y0061500D01*
X0141951Y0066028D01*
X0141951Y0066500D01*
X0133132Y0066500D01*
X0131479Y0068154D01*
X0128010Y0068408D02*
X0125122Y0068408D01*
X0125122Y0069406D02*
X0128010Y0069406D01*
X0128010Y0070405D02*
X0125122Y0070405D01*
X0125122Y0071403D02*
X0128473Y0071403D01*
X0128032Y0072402D02*
X0125122Y0072402D01*
X0125122Y0073400D02*
X0128010Y0073400D01*
X0128010Y0067409D02*
X0125122Y0067409D01*
X0125122Y0066411D02*
X0128010Y0066411D01*
X0128010Y0065412D02*
X0125122Y0065412D01*
X0125122Y0064414D02*
X0139211Y0064414D01*
X0140041Y0063415D02*
X0125122Y0063415D01*
X0125122Y0062417D02*
X0142734Y0062417D01*
X0143732Y0061418D02*
X0125122Y0061418D01*
X0125122Y0060420D02*
X0144479Y0060420D01*
X0144479Y0059421D02*
X0125122Y0059421D01*
X0125122Y0058423D02*
X0144479Y0058423D01*
X0140479Y0053500D02*
X0140479Y0052500D01*
X0141479Y0051500D01*
X0141479Y0046500D01*
X0136479Y0041500D01*
X0134979Y0040500D01*
X0133479Y0040500D01*
X0127979Y0035000D01*
X0131479Y0035457D02*
X0142607Y0035457D01*
X0143606Y0036455D02*
X0132263Y0036455D01*
X0133261Y0037454D02*
X0144479Y0037454D01*
X0144479Y0038452D02*
X0135513Y0038452D01*
X0135019Y0038452D02*
X0134260Y0038452D01*
X0137011Y0039451D02*
X0144479Y0039451D01*
X0144479Y0040449D02*
X0138308Y0040449D01*
X0139255Y0041448D02*
X0144479Y0041448D01*
X0144479Y0042446D02*
X0140254Y0042446D01*
X0141252Y0043445D02*
X0144479Y0043445D01*
X0144479Y0044443D02*
X0142251Y0044443D01*
X0143249Y0045442D02*
X0144479Y0045442D01*
X0144479Y0046440D02*
X0143479Y0046440D01*
X0161006Y0056500D02*
X0181479Y0056500D01*
X0186479Y0061500D01*
X0181779Y0061418D02*
X0176979Y0061418D01*
X0181279Y0060420D02*
X0181839Y0060420D01*
X0181571Y0059421D02*
X0181188Y0059421D01*
X0181279Y0062417D02*
X0181779Y0062417D01*
X0182185Y0063415D02*
X0181279Y0063415D01*
X0180353Y0064414D02*
X0182746Y0064414D01*
X0183744Y0065412D02*
X0179355Y0065412D01*
X0176979Y0068408D02*
X0175979Y0068408D01*
X0175979Y0069406D02*
X0176979Y0069406D01*
X0176979Y0070405D02*
X0175979Y0070405D01*
X0175979Y0071403D02*
X0171279Y0071403D01*
X0171279Y0070405D02*
X0171679Y0070405D01*
X0171784Y0069406D02*
X0171173Y0069406D01*
X0170175Y0068408D02*
X0172783Y0068408D01*
X0173781Y0067409D02*
X0169176Y0067409D01*
X0169355Y0065412D02*
X0173603Y0065412D01*
X0172604Y0064414D02*
X0170353Y0064414D01*
X0171279Y0063415D02*
X0171679Y0063415D01*
X0171679Y0062417D02*
X0171279Y0062417D01*
X0171279Y0060420D02*
X0171679Y0060420D01*
X0171769Y0059421D02*
X0171188Y0059421D01*
X0161769Y0059421D02*
X0160914Y0059421D01*
X0161679Y0060420D02*
X0159915Y0060420D01*
X0158917Y0061418D02*
X0161679Y0061418D01*
X0161679Y0062417D02*
X0157918Y0062417D01*
X0156920Y0063415D02*
X0161679Y0063415D01*
X0160737Y0064414D02*
X0155921Y0064414D01*
X0154923Y0065412D02*
X0159738Y0065412D01*
X0151006Y0066500D02*
X0161006Y0056500D01*
X0151006Y0066500D02*
X0151006Y0075516D01*
X0151991Y0076500D01*
X0163479Y0076396D02*
X0184479Y0076396D01*
X0184479Y0077394D02*
X0163479Y0077394D01*
X0163479Y0078393D02*
X0184479Y0078393D01*
X0184479Y0079391D02*
X0163479Y0079391D01*
X0163479Y0080390D02*
X0184479Y0080390D01*
X0184479Y0081388D02*
X0163479Y0081388D01*
X0163479Y0082387D02*
X0184479Y0082387D01*
X0184479Y0083385D02*
X0163479Y0083385D01*
X0163479Y0084384D02*
X0184479Y0084384D01*
X0184479Y0085382D02*
X0163479Y0085382D01*
X0163479Y0075397D02*
X0163588Y0075397D01*
X0169370Y0075397D02*
X0173588Y0075397D01*
X0172589Y0074399D02*
X0170368Y0074399D01*
X0171279Y0073400D02*
X0171679Y0073400D01*
X0171679Y0072402D02*
X0171279Y0072402D01*
X0175979Y0072402D02*
X0176979Y0072402D01*
X0176979Y0073400D02*
X0175979Y0073400D01*
X0175979Y0074399D02*
X0176979Y0074399D01*
X0176979Y0075397D02*
X0175979Y0075397D01*
X0179370Y0075397D02*
X0183729Y0075397D01*
X0182731Y0074399D02*
X0180368Y0074399D01*
X0181279Y0073400D02*
X0182179Y0073400D01*
X0181779Y0072402D02*
X0181279Y0072402D01*
X0186479Y0071500D02*
X0186479Y0098000D01*
X0185979Y0098500D01*
X0081479Y0098500D01*
X0081479Y0086500D01*
X0077979Y0086381D02*
X0064979Y0086381D01*
X0064979Y0087379D02*
X0078055Y0087379D01*
X0078468Y0088378D02*
X0064979Y0088378D01*
X0064979Y0089376D02*
X0079405Y0089376D01*
X0079479Y0090375D02*
X0064979Y0090375D01*
X0064979Y0091373D02*
X0079479Y0091373D01*
X0079479Y0092372D02*
X0064979Y0092372D01*
X0064979Y0093370D02*
X0079479Y0093370D01*
X0079479Y0094369D02*
X0064979Y0094369D01*
X0064979Y0095368D02*
X0079479Y0095368D01*
X0079479Y0096366D02*
X0065673Y0096366D01*
X0064979Y0098500D02*
X0081479Y0098500D01*
X0083479Y0096366D02*
X0184479Y0096366D01*
X0184479Y0095368D02*
X0083479Y0095368D01*
X0083479Y0094369D02*
X0184479Y0094369D01*
X0188479Y0094369D02*
X0203680Y0094369D01*
X0203680Y0093370D02*
X0188479Y0093370D01*
X0188479Y0092372D02*
X0203680Y0092372D01*
X0203680Y0091373D02*
X0188479Y0091373D01*
X0188479Y0090375D02*
X0203680Y0090375D01*
X0203680Y0089376D02*
X0188479Y0089376D01*
X0188479Y0088378D02*
X0203680Y0088378D01*
X0203680Y0087379D02*
X0188479Y0087379D01*
X0188479Y0086381D02*
X0203680Y0086381D01*
X0203680Y0085382D02*
X0188479Y0085382D01*
X0188479Y0084384D02*
X0203680Y0084384D01*
X0203680Y0083385D02*
X0188479Y0083385D01*
X0188479Y0082387D02*
X0203680Y0082387D01*
X0203680Y0081388D02*
X0188479Y0081388D01*
X0188479Y0080390D02*
X0203680Y0080390D01*
X0203680Y0079391D02*
X0188479Y0079391D01*
X0188479Y0078393D02*
X0203680Y0078393D01*
X0203680Y0077394D02*
X0188479Y0077394D01*
X0188479Y0076396D02*
X0203680Y0076396D01*
X0203680Y0075397D02*
X0189228Y0075397D01*
X0190227Y0074399D02*
X0203680Y0074399D01*
X0203680Y0073400D02*
X0190779Y0073400D01*
X0191179Y0072402D02*
X0203680Y0072402D01*
X0203680Y0071403D02*
X0191179Y0071403D01*
X0191112Y0070405D02*
X0203680Y0070405D01*
X0203680Y0069406D02*
X0190699Y0069406D01*
X0190033Y0068408D02*
X0203680Y0068408D01*
X0203680Y0055427D02*
X0189198Y0055427D01*
X0190197Y0054429D02*
X0203680Y0054429D01*
X0203680Y0053430D02*
X0200377Y0053430D01*
X0201479Y0052328D02*
X0201479Y0007672D01*
X0200307Y0006500D01*
X0203680Y0006500D01*
X0203680Y0007499D02*
X0201306Y0007499D01*
X0201479Y0008497D02*
X0203680Y0008497D01*
X0203680Y0009496D02*
X0201479Y0009496D01*
X0201479Y0010494D02*
X0203680Y0010494D01*
X0203680Y0011493D02*
X0201479Y0011493D01*
X0201479Y0012491D02*
X0203680Y0012491D01*
X0203680Y0013490D02*
X0201479Y0013490D01*
X0201479Y0014488D02*
X0203680Y0014488D01*
X0203680Y0015487D02*
X0201479Y0015487D01*
X0201479Y0016485D02*
X0203680Y0016485D01*
X0203680Y0017484D02*
X0201479Y0017484D01*
X0201479Y0018482D02*
X0203680Y0018482D01*
X0203680Y0019481D02*
X0201479Y0019481D01*
X0201479Y0020479D02*
X0203680Y0020479D01*
X0203680Y0021478D02*
X0201479Y0021478D01*
X0201479Y0022476D02*
X0203680Y0022476D01*
X0203680Y0023475D02*
X0201479Y0023475D01*
X0201479Y0024473D02*
X0203680Y0024473D01*
X0203680Y0025472D02*
X0201479Y0025472D01*
X0201479Y0026470D02*
X0203680Y0026470D01*
X0203680Y0027469D02*
X0201479Y0027469D01*
X0201479Y0028467D02*
X0203680Y0028467D01*
X0203680Y0029466D02*
X0201479Y0029466D01*
X0201479Y0030464D02*
X0203680Y0030464D01*
X0203680Y0031463D02*
X0201479Y0031463D01*
X0201479Y0032461D02*
X0203680Y0032461D01*
X0203680Y0033460D02*
X0201479Y0033460D01*
X0201479Y0034458D02*
X0203680Y0034458D01*
X0203680Y0035457D02*
X0201479Y0035457D01*
X0201479Y0036455D02*
X0203680Y0036455D01*
X0203680Y0037454D02*
X0201479Y0037454D01*
X0201479Y0038452D02*
X0203680Y0038452D01*
X0203680Y0039451D02*
X0201479Y0039451D01*
X0201479Y0040449D02*
X0203680Y0040449D01*
X0203680Y0041448D02*
X0201479Y0041448D01*
X0201479Y0042446D02*
X0203680Y0042446D01*
X0203680Y0043445D02*
X0201479Y0043445D01*
X0201479Y0044443D02*
X0203680Y0044443D01*
X0203680Y0045442D02*
X0201479Y0045442D01*
X0201479Y0046440D02*
X0203680Y0046440D01*
X0203680Y0047439D02*
X0201479Y0047439D01*
X0201479Y0048437D02*
X0203680Y0048437D01*
X0197479Y0040449D02*
X0191779Y0040449D01*
X0191779Y0039451D02*
X0197479Y0039451D01*
X0197479Y0038452D02*
X0190926Y0038452D01*
X0189928Y0037454D02*
X0197479Y0037454D01*
X0186979Y0042446D02*
X0185979Y0042446D01*
X0185979Y0043445D02*
X0186979Y0043445D01*
X0186979Y0044443D02*
X0185979Y0044443D01*
X0185979Y0045442D02*
X0186979Y0045442D01*
X0186979Y0046440D02*
X0185979Y0046440D01*
X0182925Y0045442D02*
X0179325Y0045442D01*
X0180324Y0044443D02*
X0181927Y0044443D01*
X0182031Y0038452D02*
X0180219Y0038452D01*
X0179221Y0037454D02*
X0183030Y0037454D01*
X0184028Y0036455D02*
X0148479Y0036455D01*
X0141609Y0034458D02*
X0131479Y0034458D01*
X0147340Y0028467D02*
X0197479Y0028467D01*
X0197479Y0027469D02*
X0148338Y0027469D01*
X0149337Y0026470D02*
X0197479Y0026470D01*
X0197479Y0025472D02*
X0150335Y0025472D01*
X0151334Y0024473D02*
X0197479Y0024473D01*
X0197479Y0023475D02*
X0152332Y0023475D01*
X0153331Y0022476D02*
X0197479Y0022476D01*
X0197479Y0021478D02*
X0158103Y0021478D01*
X0158491Y0020479D02*
X0197479Y0020479D01*
X0197479Y0019481D02*
X0158491Y0019481D01*
X0158491Y0018482D02*
X0197479Y0018482D01*
X0197479Y0017484D02*
X0158491Y0017484D01*
X0158491Y0016485D02*
X0197479Y0016485D01*
X0197479Y0015487D02*
X0158067Y0015487D01*
X0156979Y0014488D02*
X0197479Y0014488D01*
X0197479Y0013490D02*
X0156797Y0013490D01*
X0154479Y0014500D02*
X0128991Y0014500D01*
X0126991Y0016500D01*
X0122341Y0016485D02*
X0116467Y0016485D01*
X0116467Y0016000D02*
X0120617Y0016000D01*
X0120617Y0012759D01*
X0120514Y0012378D01*
X0120317Y0012036D01*
X0120038Y0011756D01*
X0119696Y0011559D01*
X0119314Y0011457D01*
X0116467Y0011457D01*
X0116467Y0016000D01*
X0116479Y0015988D02*
X0116479Y0011500D01*
X0101479Y0011500D01*
X0101479Y0016381D01*
X0101520Y0016485D02*
X0101437Y0016485D01*
X0101437Y0015487D02*
X0101520Y0015487D01*
X0101520Y0014488D02*
X0101437Y0014488D01*
X0101437Y0013490D02*
X0101520Y0013490D01*
X0098479Y0012491D02*
X0111389Y0012491D01*
X0111420Y0012378D02*
X0111617Y0012036D01*
X0111896Y0011756D01*
X0112238Y0011559D01*
X0112620Y0011457D01*
X0115467Y0011457D01*
X0115467Y0016000D01*
X0111317Y0016000D01*
X0111317Y0012759D01*
X0111420Y0012378D01*
X0111317Y0013490D02*
X0107802Y0013490D01*
X0107802Y0014488D02*
X0111317Y0014488D01*
X0111317Y0015487D02*
X0110794Y0015487D01*
X0111479Y0016485D02*
X0115467Y0016485D01*
X0115967Y0016500D02*
X0116479Y0015988D01*
X0116467Y0015487D02*
X0115467Y0015487D01*
X0115467Y0014488D02*
X0116467Y0014488D01*
X0116467Y0013490D02*
X0115467Y0013490D01*
X0115467Y0012491D02*
X0116467Y0012491D01*
X0116467Y0011493D02*
X0115467Y0011493D01*
X0119448Y0011493D02*
X0123184Y0011493D01*
X0122341Y0012491D02*
X0120545Y0012491D01*
X0120617Y0013490D02*
X0122341Y0013490D01*
X0122341Y0014488D02*
X0120617Y0014488D01*
X0120617Y0015487D02*
X0122341Y0015487D01*
X0122341Y0017484D02*
X0120617Y0017484D01*
X0120617Y0018482D02*
X0122341Y0018482D01*
X0122341Y0019481D02*
X0120617Y0019481D01*
X0109479Y0017000D02*
X0109479Y0026500D01*
X0107479Y0020479D02*
X0091640Y0020479D01*
X0091640Y0019481D02*
X0095272Y0019481D01*
X0095156Y0018482D02*
X0091640Y0018482D01*
X0087109Y0016381D02*
X0097739Y0016381D01*
X0096479Y0015122D01*
X0098479Y0011493D02*
X0112486Y0011493D01*
X0105337Y0016500D02*
X0105219Y0016381D01*
X0105337Y0016500D02*
X0108979Y0016500D01*
X0109479Y0017000D01*
X0101520Y0017484D02*
X0101437Y0017484D01*
X0101437Y0018482D02*
X0101520Y0018482D01*
X0101520Y0019481D02*
X0101437Y0019481D01*
X0087109Y0016381D02*
X0086991Y0016500D01*
X0079479Y0011493D02*
X0079448Y0011493D01*
X0076467Y0011493D02*
X0075467Y0011493D01*
X0075467Y0011457D02*
X0075467Y0016000D01*
X0071317Y0016000D01*
X0071317Y0012759D01*
X0071420Y0012378D01*
X0071617Y0012036D01*
X0071896Y0011756D01*
X0072238Y0011559D01*
X0072620Y0011457D01*
X0075467Y0011457D01*
X0075467Y0012491D02*
X0076467Y0012491D01*
X0076467Y0013490D02*
X0075467Y0013490D01*
X0075467Y0014488D02*
X0076467Y0014488D01*
X0076467Y0015487D02*
X0075467Y0015487D01*
X0071317Y0015487D02*
X0066321Y0015487D01*
X0067319Y0014488D02*
X0071317Y0014488D01*
X0071317Y0013490D02*
X0068318Y0013490D01*
X0069316Y0012491D02*
X0071389Y0012491D01*
X0070315Y0011493D02*
X0072486Y0011493D01*
X0080650Y0006500D02*
X0082307Y0006500D01*
X0098479Y0010494D02*
X0197479Y0010494D01*
X0197479Y0011493D02*
X0130797Y0011493D01*
X0131640Y0012491D02*
X0197479Y0012491D01*
X0181779Y0052432D02*
X0181279Y0052432D01*
X0181279Y0053430D02*
X0182191Y0053430D01*
X0111479Y0081500D02*
X0111479Y0091500D01*
X0109479Y0091373D02*
X0083479Y0091373D01*
X0083479Y0090375D02*
X0109479Y0090375D01*
X0109479Y0089376D02*
X0083552Y0089376D01*
X0084489Y0088378D02*
X0109479Y0088378D01*
X0109479Y0087379D02*
X0084903Y0087379D01*
X0084979Y0086381D02*
X0109479Y0086381D01*
X0109479Y0085382D02*
X0084804Y0085382D01*
X0084312Y0084384D02*
X0109413Y0084384D01*
X0108471Y0083385D02*
X0083105Y0083385D01*
X0079852Y0083385D02*
X0064979Y0083385D01*
X0064979Y0082387D02*
X0108058Y0082387D01*
X0107979Y0081388D02*
X0074912Y0081388D01*
X0078645Y0084384D02*
X0064979Y0084384D01*
X0064979Y0085382D02*
X0078153Y0085382D01*
X0068045Y0081388D02*
X0064979Y0081388D01*
X0064979Y0080390D02*
X0066460Y0080390D01*
X0065461Y0079391D02*
X0064979Y0079391D01*
X0083479Y0092372D02*
X0109522Y0092372D01*
X0110521Y0093370D02*
X0083479Y0093370D01*
X0187946Y0099362D02*
X0203680Y0099362D01*
X0203680Y0098363D02*
X0188479Y0098363D01*
X0188479Y0097365D02*
X0203680Y0097365D01*
X0203680Y0096366D02*
X0188479Y0096366D01*
X0188479Y0095368D02*
X0203680Y0095368D01*
D23*
X0166479Y0086500D03*
X0111479Y0081500D03*
X0081479Y0086500D03*
X0101479Y0061500D03*
X0114979Y0052500D03*
X0140479Y0053500D03*
X0106479Y0036500D03*
X0127979Y0035000D03*
X0141479Y0026500D03*
D24*
X0101479Y0036500D02*
X0082148Y0036500D01*
X0080928Y0037720D01*
D25*
X0088979Y0041000D03*
M02*
