G75*
%MOIN*%
%OFA0B0*%
%FSLAX25Y25*%
%IPPOS*%
%LPD*%
%AMOC8*
5,1,8,0,0,1.08239X$1,22.5*
%
%ADD10C,0.00000*%
%ADD11R,0.03937X0.04331*%
%ADD12R,0.04331X0.03937*%
%ADD13R,0.05512X0.04724*%
%ADD14C,0.07400*%
%ADD15C,0.12661*%
%ADD16R,0.07087X0.06299*%
%ADD17R,0.05000X0.02200*%
%ADD18R,0.02200X0.05000*%
%ADD19C,0.05600*%
%ADD20OC8,0.06600*%
%ADD21C,0.06400*%
%ADD22OC8,0.07600*%
%ADD23C,0.01000*%
%ADD24C,0.04000*%
%ADD25R,0.04362X0.04362*%
D10*
X0056479Y0001500D02*
X0056479Y0101461D01*
X0205180Y0101461D01*
X0205180Y0001500D01*
X0056479Y0001500D01*
X0068920Y0042642D02*
X0068922Y0042735D01*
X0068928Y0042827D01*
X0068938Y0042919D01*
X0068952Y0043010D01*
X0068969Y0043101D01*
X0068991Y0043191D01*
X0069016Y0043280D01*
X0069045Y0043368D01*
X0069078Y0043454D01*
X0069115Y0043539D01*
X0069155Y0043623D01*
X0069199Y0043704D01*
X0069246Y0043784D01*
X0069296Y0043862D01*
X0069350Y0043937D01*
X0069407Y0044010D01*
X0069467Y0044080D01*
X0069530Y0044148D01*
X0069596Y0044213D01*
X0069664Y0044275D01*
X0069735Y0044335D01*
X0069809Y0044391D01*
X0069885Y0044444D01*
X0069963Y0044493D01*
X0070043Y0044540D01*
X0070125Y0044582D01*
X0070209Y0044622D01*
X0070294Y0044657D01*
X0070381Y0044689D01*
X0070469Y0044718D01*
X0070558Y0044742D01*
X0070648Y0044763D01*
X0070739Y0044779D01*
X0070831Y0044792D01*
X0070923Y0044801D01*
X0071016Y0044806D01*
X0071108Y0044807D01*
X0071201Y0044804D01*
X0071293Y0044797D01*
X0071385Y0044786D01*
X0071476Y0044771D01*
X0071567Y0044753D01*
X0071657Y0044730D01*
X0071745Y0044704D01*
X0071833Y0044674D01*
X0071919Y0044640D01*
X0072003Y0044603D01*
X0072086Y0044561D01*
X0072167Y0044517D01*
X0072247Y0044469D01*
X0072324Y0044418D01*
X0072398Y0044363D01*
X0072471Y0044305D01*
X0072541Y0044245D01*
X0072608Y0044181D01*
X0072672Y0044115D01*
X0072734Y0044045D01*
X0072792Y0043974D01*
X0072847Y0043900D01*
X0072899Y0043823D01*
X0072948Y0043744D01*
X0072994Y0043664D01*
X0073036Y0043581D01*
X0073074Y0043497D01*
X0073109Y0043411D01*
X0073140Y0043324D01*
X0073167Y0043236D01*
X0073190Y0043146D01*
X0073210Y0043056D01*
X0073226Y0042965D01*
X0073238Y0042873D01*
X0073246Y0042781D01*
X0073250Y0042688D01*
X0073250Y0042596D01*
X0073246Y0042503D01*
X0073238Y0042411D01*
X0073226Y0042319D01*
X0073210Y0042228D01*
X0073190Y0042138D01*
X0073167Y0042048D01*
X0073140Y0041960D01*
X0073109Y0041873D01*
X0073074Y0041787D01*
X0073036Y0041703D01*
X0072994Y0041620D01*
X0072948Y0041540D01*
X0072899Y0041461D01*
X0072847Y0041384D01*
X0072792Y0041310D01*
X0072734Y0041239D01*
X0072672Y0041169D01*
X0072608Y0041103D01*
X0072541Y0041039D01*
X0072471Y0040979D01*
X0072398Y0040921D01*
X0072324Y0040866D01*
X0072247Y0040815D01*
X0072168Y0040767D01*
X0072086Y0040723D01*
X0072003Y0040681D01*
X0071919Y0040644D01*
X0071833Y0040610D01*
X0071745Y0040580D01*
X0071657Y0040554D01*
X0071567Y0040531D01*
X0071476Y0040513D01*
X0071385Y0040498D01*
X0071293Y0040487D01*
X0071201Y0040480D01*
X0071108Y0040477D01*
X0071016Y0040478D01*
X0070923Y0040483D01*
X0070831Y0040492D01*
X0070739Y0040505D01*
X0070648Y0040521D01*
X0070558Y0040542D01*
X0070469Y0040566D01*
X0070381Y0040595D01*
X0070294Y0040627D01*
X0070209Y0040662D01*
X0070125Y0040702D01*
X0070043Y0040744D01*
X0069963Y0040791D01*
X0069885Y0040840D01*
X0069809Y0040893D01*
X0069735Y0040949D01*
X0069664Y0041009D01*
X0069596Y0041071D01*
X0069530Y0041136D01*
X0069467Y0041204D01*
X0069407Y0041274D01*
X0069350Y0041347D01*
X0069296Y0041422D01*
X0069246Y0041500D01*
X0069199Y0041580D01*
X0069155Y0041661D01*
X0069115Y0041745D01*
X0069078Y0041830D01*
X0069045Y0041916D01*
X0069016Y0042004D01*
X0068991Y0042093D01*
X0068969Y0042183D01*
X0068952Y0042274D01*
X0068938Y0042365D01*
X0068928Y0042457D01*
X0068922Y0042549D01*
X0068920Y0042642D01*
X0068920Y0060358D02*
X0068922Y0060451D01*
X0068928Y0060543D01*
X0068938Y0060635D01*
X0068952Y0060726D01*
X0068969Y0060817D01*
X0068991Y0060907D01*
X0069016Y0060996D01*
X0069045Y0061084D01*
X0069078Y0061170D01*
X0069115Y0061255D01*
X0069155Y0061339D01*
X0069199Y0061420D01*
X0069246Y0061500D01*
X0069296Y0061578D01*
X0069350Y0061653D01*
X0069407Y0061726D01*
X0069467Y0061796D01*
X0069530Y0061864D01*
X0069596Y0061929D01*
X0069664Y0061991D01*
X0069735Y0062051D01*
X0069809Y0062107D01*
X0069885Y0062160D01*
X0069963Y0062209D01*
X0070043Y0062256D01*
X0070125Y0062298D01*
X0070209Y0062338D01*
X0070294Y0062373D01*
X0070381Y0062405D01*
X0070469Y0062434D01*
X0070558Y0062458D01*
X0070648Y0062479D01*
X0070739Y0062495D01*
X0070831Y0062508D01*
X0070923Y0062517D01*
X0071016Y0062522D01*
X0071108Y0062523D01*
X0071201Y0062520D01*
X0071293Y0062513D01*
X0071385Y0062502D01*
X0071476Y0062487D01*
X0071567Y0062469D01*
X0071657Y0062446D01*
X0071745Y0062420D01*
X0071833Y0062390D01*
X0071919Y0062356D01*
X0072003Y0062319D01*
X0072086Y0062277D01*
X0072167Y0062233D01*
X0072247Y0062185D01*
X0072324Y0062134D01*
X0072398Y0062079D01*
X0072471Y0062021D01*
X0072541Y0061961D01*
X0072608Y0061897D01*
X0072672Y0061831D01*
X0072734Y0061761D01*
X0072792Y0061690D01*
X0072847Y0061616D01*
X0072899Y0061539D01*
X0072948Y0061460D01*
X0072994Y0061380D01*
X0073036Y0061297D01*
X0073074Y0061213D01*
X0073109Y0061127D01*
X0073140Y0061040D01*
X0073167Y0060952D01*
X0073190Y0060862D01*
X0073210Y0060772D01*
X0073226Y0060681D01*
X0073238Y0060589D01*
X0073246Y0060497D01*
X0073250Y0060404D01*
X0073250Y0060312D01*
X0073246Y0060219D01*
X0073238Y0060127D01*
X0073226Y0060035D01*
X0073210Y0059944D01*
X0073190Y0059854D01*
X0073167Y0059764D01*
X0073140Y0059676D01*
X0073109Y0059589D01*
X0073074Y0059503D01*
X0073036Y0059419D01*
X0072994Y0059336D01*
X0072948Y0059256D01*
X0072899Y0059177D01*
X0072847Y0059100D01*
X0072792Y0059026D01*
X0072734Y0058955D01*
X0072672Y0058885D01*
X0072608Y0058819D01*
X0072541Y0058755D01*
X0072471Y0058695D01*
X0072398Y0058637D01*
X0072324Y0058582D01*
X0072247Y0058531D01*
X0072168Y0058483D01*
X0072086Y0058439D01*
X0072003Y0058397D01*
X0071919Y0058360D01*
X0071833Y0058326D01*
X0071745Y0058296D01*
X0071657Y0058270D01*
X0071567Y0058247D01*
X0071476Y0058229D01*
X0071385Y0058214D01*
X0071293Y0058203D01*
X0071201Y0058196D01*
X0071108Y0058193D01*
X0071016Y0058194D01*
X0070923Y0058199D01*
X0070831Y0058208D01*
X0070739Y0058221D01*
X0070648Y0058237D01*
X0070558Y0058258D01*
X0070469Y0058282D01*
X0070381Y0058311D01*
X0070294Y0058343D01*
X0070209Y0058378D01*
X0070125Y0058418D01*
X0070043Y0058460D01*
X0069963Y0058507D01*
X0069885Y0058556D01*
X0069809Y0058609D01*
X0069735Y0058665D01*
X0069664Y0058725D01*
X0069596Y0058787D01*
X0069530Y0058852D01*
X0069467Y0058920D01*
X0069407Y0058990D01*
X0069350Y0059063D01*
X0069296Y0059138D01*
X0069246Y0059216D01*
X0069199Y0059296D01*
X0069155Y0059377D01*
X0069115Y0059461D01*
X0069078Y0059546D01*
X0069045Y0059632D01*
X0069016Y0059720D01*
X0068991Y0059809D01*
X0068969Y0059899D01*
X0068952Y0059990D01*
X0068938Y0060081D01*
X0068928Y0060173D01*
X0068922Y0060265D01*
X0068920Y0060358D01*
D11*
X0111479Y0029846D03*
X0111479Y0023154D03*
D12*
X0099825Y0086500D03*
X0093132Y0086500D03*
X0153132Y0086500D03*
X0159825Y0086500D03*
D13*
X0181479Y0027406D03*
X0181479Y0015594D03*
D14*
X0080928Y0037720D03*
X0080928Y0047063D03*
X0080928Y0055937D03*
X0080928Y0065280D03*
D15*
X0071479Y0074335D03*
X0071479Y0028665D03*
D16*
X0166479Y0027012D03*
X0166479Y0015988D03*
D17*
G36*
X0121243Y0029302D02*
X0124777Y0032836D01*
X0126333Y0031280D01*
X0122799Y0027746D01*
X0121243Y0029302D01*
G37*
G36*
X0119016Y0031529D02*
X0122550Y0035063D01*
X0124106Y0033507D01*
X0120572Y0029973D01*
X0119016Y0031529D01*
G37*
G36*
X0116789Y0033756D02*
X0120323Y0037290D01*
X0121879Y0035734D01*
X0118345Y0032200D01*
X0116789Y0033756D01*
G37*
G36*
X0114562Y0035983D02*
X0118096Y0039517D01*
X0119652Y0037961D01*
X0116118Y0034427D01*
X0114562Y0035983D01*
G37*
G36*
X0112335Y0038210D02*
X0115869Y0041744D01*
X0117425Y0040188D01*
X0113891Y0036654D01*
X0112335Y0038210D01*
G37*
G36*
X0110107Y0040437D02*
X0113641Y0043971D01*
X0115197Y0042415D01*
X0111663Y0038881D01*
X0110107Y0040437D01*
G37*
G36*
X0107880Y0042664D02*
X0111414Y0046198D01*
X0112970Y0044642D01*
X0109436Y0041108D01*
X0107880Y0042664D01*
G37*
G36*
X0105653Y0044891D02*
X0109187Y0048425D01*
X0110743Y0046869D01*
X0107209Y0043335D01*
X0105653Y0044891D01*
G37*
G36*
X0138462Y0059883D02*
X0141996Y0063417D01*
X0143552Y0061861D01*
X0140018Y0058327D01*
X0138462Y0059883D01*
G37*
G36*
X0140689Y0057656D02*
X0144223Y0061190D01*
X0145779Y0059634D01*
X0142245Y0056100D01*
X0140689Y0057656D01*
G37*
G36*
X0142916Y0055429D02*
X0146450Y0058963D01*
X0148006Y0057407D01*
X0144472Y0053873D01*
X0142916Y0055429D01*
G37*
G36*
X0145143Y0053202D02*
X0148677Y0056736D01*
X0150233Y0055180D01*
X0146699Y0051646D01*
X0145143Y0053202D01*
G37*
G36*
X0136235Y0062110D02*
X0139769Y0065644D01*
X0141325Y0064088D01*
X0137791Y0060554D01*
X0136235Y0062110D01*
G37*
G36*
X0134008Y0064337D02*
X0137542Y0067871D01*
X0139098Y0066315D01*
X0135564Y0062781D01*
X0134008Y0064337D01*
G37*
G36*
X0131781Y0066564D02*
X0135315Y0070098D01*
X0136871Y0068542D01*
X0133337Y0065008D01*
X0131781Y0066564D01*
G37*
G36*
X0129553Y0068792D02*
X0133087Y0072326D01*
X0134643Y0070770D01*
X0131109Y0067236D01*
X0129553Y0068792D01*
G37*
D18*
G36*
X0121243Y0070770D02*
X0122799Y0072326D01*
X0126333Y0068792D01*
X0124777Y0067236D01*
X0121243Y0070770D01*
G37*
G36*
X0119016Y0068542D02*
X0120572Y0070098D01*
X0124106Y0066564D01*
X0122550Y0065008D01*
X0119016Y0068542D01*
G37*
G36*
X0116789Y0066315D02*
X0118345Y0067871D01*
X0121879Y0064337D01*
X0120323Y0062781D01*
X0116789Y0066315D01*
G37*
G36*
X0114562Y0064088D02*
X0116118Y0065644D01*
X0119652Y0062110D01*
X0118096Y0060554D01*
X0114562Y0064088D01*
G37*
G36*
X0112335Y0061861D02*
X0113891Y0063417D01*
X0117425Y0059883D01*
X0115869Y0058327D01*
X0112335Y0061861D01*
G37*
G36*
X0110107Y0059634D02*
X0111663Y0061190D01*
X0115197Y0057656D01*
X0113641Y0056100D01*
X0110107Y0059634D01*
G37*
G36*
X0107880Y0057407D02*
X0109436Y0058963D01*
X0112970Y0055429D01*
X0111414Y0053873D01*
X0107880Y0057407D01*
G37*
G36*
X0105653Y0055180D02*
X0107209Y0056736D01*
X0110743Y0053202D01*
X0109187Y0051646D01*
X0105653Y0055180D01*
G37*
G36*
X0138462Y0040188D02*
X0140018Y0041744D01*
X0143552Y0038210D01*
X0141996Y0036654D01*
X0138462Y0040188D01*
G37*
G36*
X0140689Y0042415D02*
X0142245Y0043971D01*
X0145779Y0040437D01*
X0144223Y0038881D01*
X0140689Y0042415D01*
G37*
G36*
X0142916Y0044642D02*
X0144472Y0046198D01*
X0148006Y0042664D01*
X0146450Y0041108D01*
X0142916Y0044642D01*
G37*
G36*
X0145143Y0046869D02*
X0146699Y0048425D01*
X0150233Y0044891D01*
X0148677Y0043335D01*
X0145143Y0046869D01*
G37*
G36*
X0136235Y0037961D02*
X0137791Y0039517D01*
X0141325Y0035983D01*
X0139769Y0034427D01*
X0136235Y0037961D01*
G37*
G36*
X0134008Y0035734D02*
X0135564Y0037290D01*
X0139098Y0033756D01*
X0137542Y0032200D01*
X0134008Y0035734D01*
G37*
G36*
X0131781Y0033507D02*
X0133337Y0035063D01*
X0136871Y0031529D01*
X0135315Y0029973D01*
X0131781Y0033507D01*
G37*
G36*
X0129553Y0031280D02*
X0131109Y0032836D01*
X0134643Y0029302D01*
X0133087Y0027746D01*
X0129553Y0031280D01*
G37*
D19*
X0135979Y0086500D03*
X0116979Y0086500D03*
D20*
X0166479Y0071500D03*
X0176479Y0071500D03*
X0176479Y0061500D03*
X0166479Y0061500D03*
X0166479Y0051500D03*
X0176479Y0051500D03*
X0176479Y0041500D03*
X0166479Y0041500D03*
D21*
X0186479Y0051500D03*
X0186479Y0061500D03*
X0186479Y0071500D03*
D22*
X0186479Y0041500D03*
D23*
X0186979Y0041448D02*
X0203680Y0041448D01*
X0203680Y0042446D02*
X0191779Y0042446D01*
X0191779Y0042000D02*
X0191779Y0043695D01*
X0188674Y0046800D01*
X0186979Y0046800D01*
X0186979Y0042000D01*
X0191779Y0042000D01*
X0191779Y0041000D02*
X0186979Y0041000D01*
X0186979Y0042000D01*
X0185979Y0042000D01*
X0185979Y0046800D01*
X0184283Y0046800D01*
X0181179Y0043695D01*
X0181179Y0043588D01*
X0178479Y0046288D01*
X0178479Y0046712D01*
X0181279Y0049512D01*
X0181279Y0053488D01*
X0178467Y0056300D01*
X0174491Y0056300D01*
X0171679Y0053488D01*
X0171679Y0049512D01*
X0172691Y0048500D01*
X0170267Y0048500D01*
X0171279Y0049512D01*
X0171279Y0053488D01*
X0168467Y0056300D01*
X0164507Y0056300D01*
X0158479Y0062328D01*
X0157307Y0063500D01*
X0150650Y0063500D01*
X0147343Y0060193D01*
X0147072Y0060463D01*
X0147033Y0060463D01*
X0146980Y0060556D01*
X0146098Y0061438D01*
X0143305Y0058645D01*
X0143234Y0058716D01*
X0146027Y0061509D01*
X0145145Y0062391D01*
X0145052Y0062444D01*
X0145052Y0062483D01*
X0142825Y0064710D01*
X0140795Y0066741D01*
X0143555Y0069500D01*
X0161691Y0069500D01*
X0164491Y0066700D01*
X0168467Y0066700D01*
X0171279Y0069512D01*
X0171279Y0073488D01*
X0168467Y0076300D01*
X0164491Y0076300D01*
X0161691Y0073500D01*
X0143101Y0073500D01*
X0143479Y0073878D01*
X0143479Y0077328D01*
X0142307Y0078500D01*
X0138088Y0082719D01*
X0138414Y0082855D01*
X0139624Y0084064D01*
X0139805Y0084500D01*
X0149467Y0084500D01*
X0149467Y0083910D01*
X0150346Y0083031D01*
X0155919Y0083031D01*
X0156479Y0083591D01*
X0156739Y0083331D01*
X0157081Y0083134D01*
X0157462Y0083031D01*
X0159341Y0083031D01*
X0159341Y0086016D01*
X0160309Y0086016D01*
X0160309Y0083031D01*
X0162188Y0083031D01*
X0162570Y0083134D01*
X0162912Y0083331D01*
X0163191Y0083610D01*
X0163388Y0083953D01*
X0163491Y0084334D01*
X0163491Y0086016D01*
X0160310Y0086016D01*
X0160310Y0086984D01*
X0163491Y0086984D01*
X0163491Y0088666D01*
X0163388Y0089047D01*
X0163191Y0089390D01*
X0162912Y0089669D01*
X0162570Y0089866D01*
X0162188Y0089968D01*
X0160309Y0089968D01*
X0160309Y0086984D01*
X0159341Y0086984D01*
X0159341Y0089968D01*
X0157462Y0089968D01*
X0157081Y0089866D01*
X0156739Y0089669D01*
X0156479Y0089409D01*
X0155919Y0089968D01*
X0150346Y0089968D01*
X0149467Y0089090D01*
X0149467Y0088500D01*
X0139805Y0088500D01*
X0139624Y0088936D01*
X0138414Y0090145D01*
X0136834Y0090800D01*
X0135123Y0090800D01*
X0133543Y0090145D01*
X0132333Y0088936D01*
X0131679Y0087355D01*
X0131679Y0085645D01*
X0132333Y0084064D01*
X0133543Y0082855D01*
X0133979Y0082674D01*
X0133979Y0081828D01*
X0127307Y0088500D01*
X0120805Y0088500D01*
X0120624Y0088936D01*
X0119414Y0090145D01*
X0117834Y0090800D01*
X0116123Y0090800D01*
X0114543Y0090145D01*
X0113333Y0088936D01*
X0113153Y0088500D01*
X0103491Y0088500D01*
X0103491Y0089090D01*
X0102612Y0089968D01*
X0097039Y0089968D01*
X0096479Y0089409D01*
X0096219Y0089669D01*
X0095877Y0089866D01*
X0095495Y0089968D01*
X0093617Y0089968D01*
X0093617Y0086984D01*
X0092648Y0086984D01*
X0092648Y0086016D01*
X0089467Y0086016D01*
X0089467Y0084659D01*
X0086797Y0087328D01*
X0085626Y0088500D01*
X0084428Y0088500D01*
X0083461Y0089467D01*
X0082175Y0090000D01*
X0080783Y0090000D01*
X0079496Y0089467D01*
X0078512Y0088483D01*
X0077979Y0087196D01*
X0077979Y0085804D01*
X0078512Y0084517D01*
X0079496Y0083533D01*
X0080783Y0083000D01*
X0082175Y0083000D01*
X0083461Y0083533D01*
X0084199Y0084270D01*
X0108410Y0060059D01*
X0106587Y0058236D01*
X0104153Y0055802D01*
X0104153Y0055155D01*
X0103479Y0055828D01*
X0103479Y0058550D01*
X0104446Y0059517D01*
X0104979Y0060804D01*
X0104979Y0062196D01*
X0104446Y0063483D01*
X0103461Y0064467D01*
X0102175Y0065000D01*
X0100783Y0065000D01*
X0099496Y0064467D01*
X0098512Y0063483D01*
X0097979Y0062196D01*
X0097979Y0060804D01*
X0098512Y0059517D01*
X0099479Y0058550D01*
X0099479Y0054172D01*
X0100650Y0053000D01*
X0105650Y0048000D01*
X0106641Y0048000D01*
X0104153Y0045512D01*
X0104153Y0044663D01*
X0095989Y0036500D01*
X0089150Y0036500D01*
X0087979Y0035328D01*
X0086150Y0033500D01*
X0085650Y0033500D01*
X0084479Y0032328D01*
X0084479Y0015672D01*
X0085650Y0014500D01*
X0090650Y0009500D01*
X0157307Y0009500D01*
X0158479Y0010672D01*
X0161435Y0013628D01*
X0161435Y0012217D01*
X0162314Y0011339D01*
X0170643Y0011339D01*
X0171522Y0012217D01*
X0171522Y0019759D01*
X0170643Y0020638D01*
X0162314Y0020638D01*
X0161435Y0019759D01*
X0161435Y0017988D01*
X0160138Y0017988D01*
X0155650Y0013500D01*
X0092307Y0013500D01*
X0088479Y0017328D01*
X0088479Y0030172D01*
X0090807Y0032500D01*
X0097646Y0032500D01*
X0098818Y0033672D01*
X0103429Y0038282D01*
X0102979Y0037196D01*
X0102979Y0035804D01*
X0103512Y0034517D01*
X0104496Y0033533D01*
X0105783Y0033000D01*
X0107175Y0033000D01*
X0108461Y0033533D01*
X0109446Y0034517D01*
X0109479Y0034597D01*
X0109479Y0033512D01*
X0108889Y0033512D01*
X0108010Y0032633D01*
X0108010Y0027060D01*
X0108570Y0026500D01*
X0108310Y0026240D01*
X0108112Y0025898D01*
X0108010Y0025516D01*
X0108010Y0023638D01*
X0110994Y0023638D01*
X0110994Y0022669D01*
X0108010Y0022669D01*
X0108010Y0020791D01*
X0108112Y0020409D01*
X0108310Y0020067D01*
X0108589Y0019788D01*
X0108931Y0019590D01*
X0109313Y0019488D01*
X0110994Y0019488D01*
X0110994Y0022669D01*
X0111963Y0022669D01*
X0111963Y0019488D01*
X0113645Y0019488D01*
X0114026Y0019590D01*
X0114368Y0019788D01*
X0114648Y0020067D01*
X0114845Y0020409D01*
X0114947Y0020791D01*
X0114947Y0022669D01*
X0111963Y0022669D01*
X0111963Y0023638D01*
X0114947Y0023638D01*
X0114947Y0025516D01*
X0114845Y0025898D01*
X0114648Y0026240D01*
X0114387Y0026500D01*
X0114947Y0027060D01*
X0114947Y0032633D01*
X0114069Y0033512D01*
X0113479Y0033512D01*
X0113479Y0034943D01*
X0114243Y0034179D01*
X0117036Y0036972D01*
X0117107Y0036901D01*
X0114314Y0034108D01*
X0115196Y0033226D01*
X0115288Y0033173D01*
X0115288Y0033133D01*
X0117515Y0030906D01*
X0119950Y0028472D01*
X0122177Y0026245D01*
X0123419Y0026245D01*
X0125979Y0028804D01*
X0125979Y0027828D01*
X0125479Y0027328D01*
X0125479Y0023672D01*
X0126650Y0022500D01*
X0140307Y0022500D01*
X0140807Y0023000D01*
X0142175Y0023000D01*
X0143461Y0023533D01*
X0144446Y0024517D01*
X0144979Y0025804D01*
X0144979Y0027196D01*
X0144446Y0028483D01*
X0143461Y0029467D01*
X0142175Y0030000D01*
X0140783Y0030000D01*
X0139496Y0029467D01*
X0138512Y0028483D01*
X0137979Y0027196D01*
X0137979Y0026500D01*
X0133965Y0026500D01*
X0135937Y0028472D01*
X0138164Y0030699D01*
X0140391Y0032926D01*
X0142618Y0035153D01*
X0144845Y0037380D01*
X0147072Y0039608D01*
X0149299Y0041835D01*
X0149308Y0041843D01*
X0157479Y0033672D01*
X0158650Y0032500D01*
X0175307Y0032500D01*
X0178479Y0035672D01*
X0178479Y0036712D01*
X0181179Y0039412D01*
X0181179Y0039305D01*
X0184283Y0036200D01*
X0185979Y0036200D01*
X0185979Y0041000D01*
X0186979Y0041000D01*
X0186979Y0036200D01*
X0188674Y0036200D01*
X0191779Y0039305D01*
X0191779Y0041000D01*
X0191779Y0040449D02*
X0203680Y0040449D01*
X0203680Y0039451D02*
X0191779Y0039451D01*
X0190926Y0038452D02*
X0203680Y0038452D01*
X0203680Y0037454D02*
X0189928Y0037454D01*
X0188929Y0036455D02*
X0203680Y0036455D01*
X0203680Y0035457D02*
X0178264Y0035457D01*
X0178479Y0036455D02*
X0184028Y0036455D01*
X0183030Y0037454D02*
X0179221Y0037454D01*
X0180219Y0038452D02*
X0182031Y0038452D01*
X0185979Y0038452D02*
X0186979Y0038452D01*
X0186979Y0037454D02*
X0185979Y0037454D01*
X0185979Y0036455D02*
X0186979Y0036455D01*
X0186979Y0039451D02*
X0185979Y0039451D01*
X0185979Y0040449D02*
X0186979Y0040449D01*
X0186979Y0042446D02*
X0185979Y0042446D01*
X0185979Y0043445D02*
X0186979Y0043445D01*
X0186979Y0044443D02*
X0185979Y0044443D01*
X0185979Y0045442D02*
X0186979Y0045442D01*
X0186979Y0046440D02*
X0185979Y0046440D01*
X0185544Y0046800D02*
X0187414Y0046800D01*
X0189141Y0047516D01*
X0190463Y0048838D01*
X0191179Y0050565D01*
X0191179Y0052435D01*
X0190463Y0054162D01*
X0189141Y0055484D01*
X0187414Y0056200D01*
X0185544Y0056200D01*
X0183816Y0055484D01*
X0182494Y0054162D01*
X0181779Y0052435D01*
X0181779Y0050565D01*
X0182494Y0048838D01*
X0183816Y0047516D01*
X0185544Y0046800D01*
X0183924Y0046440D02*
X0178479Y0046440D01*
X0179206Y0047439D02*
X0184001Y0047439D01*
X0182894Y0048437D02*
X0180204Y0048437D01*
X0181203Y0049436D02*
X0182246Y0049436D01*
X0181833Y0050434D02*
X0181279Y0050434D01*
X0181279Y0051433D02*
X0181779Y0051433D01*
X0181779Y0052432D02*
X0181279Y0052432D01*
X0181279Y0053430D02*
X0182191Y0053430D01*
X0182760Y0054429D02*
X0180338Y0054429D01*
X0179340Y0055427D02*
X0183759Y0055427D01*
X0184037Y0057424D02*
X0179191Y0057424D01*
X0178467Y0056700D02*
X0181279Y0059512D01*
X0181279Y0061000D01*
X0176979Y0061000D01*
X0176979Y0062000D01*
X0181279Y0062000D01*
X0181279Y0063488D01*
X0178467Y0066300D01*
X0176979Y0066300D01*
X0176979Y0062000D01*
X0175979Y0062000D01*
X0175979Y0066300D01*
X0174491Y0066300D01*
X0171679Y0063488D01*
X0171679Y0062000D01*
X0175979Y0062000D01*
X0175979Y0061000D01*
X0176979Y0061000D01*
X0176979Y0056700D01*
X0178467Y0056700D01*
X0176979Y0057424D02*
X0175979Y0057424D01*
X0175979Y0056700D02*
X0175979Y0061000D01*
X0171679Y0061000D01*
X0171679Y0059512D01*
X0174491Y0056700D01*
X0175979Y0056700D01*
X0175979Y0058423D02*
X0176979Y0058423D01*
X0176979Y0059421D02*
X0175979Y0059421D01*
X0175979Y0060420D02*
X0176979Y0060420D01*
X0176979Y0061418D02*
X0181779Y0061418D01*
X0181779Y0060565D02*
X0182494Y0058838D01*
X0183816Y0057516D01*
X0185544Y0056800D01*
X0187414Y0056800D01*
X0189141Y0057516D01*
X0190463Y0058838D01*
X0191179Y0060565D01*
X0191179Y0062435D01*
X0190463Y0064162D01*
X0189141Y0065484D01*
X0187414Y0066200D01*
X0185544Y0066200D01*
X0183816Y0065484D01*
X0182494Y0064162D01*
X0181779Y0062435D01*
X0181779Y0060565D01*
X0181839Y0060420D02*
X0181279Y0060420D01*
X0181188Y0059421D02*
X0182253Y0059421D01*
X0182909Y0058423D02*
X0180190Y0058423D01*
X0175979Y0061418D02*
X0171279Y0061418D01*
X0171279Y0060420D02*
X0171679Y0060420D01*
X0171279Y0059512D02*
X0168467Y0056700D01*
X0164491Y0056700D01*
X0161679Y0059512D01*
X0161679Y0063488D01*
X0164491Y0066300D01*
X0168467Y0066300D01*
X0171279Y0063488D01*
X0171279Y0059512D01*
X0171188Y0059421D02*
X0171769Y0059421D01*
X0172768Y0058423D02*
X0170190Y0058423D01*
X0169191Y0057424D02*
X0173766Y0057424D01*
X0173618Y0055427D02*
X0169340Y0055427D01*
X0170338Y0054429D02*
X0172619Y0054429D01*
X0171679Y0053430D02*
X0171279Y0053430D01*
X0171279Y0052432D02*
X0171679Y0052432D01*
X0171679Y0051433D02*
X0171279Y0051433D01*
X0171279Y0050434D02*
X0171679Y0050434D01*
X0171755Y0049436D02*
X0171203Y0049436D01*
X0166479Y0051500D02*
X0156479Y0061500D01*
X0151479Y0061500D01*
X0146397Y0056418D01*
X0145461Y0056418D01*
X0147688Y0054209D02*
X0147688Y0054191D01*
X0147688Y0054209D02*
X0150479Y0057000D01*
X0150979Y0057000D01*
X0161479Y0046500D01*
X0176479Y0046500D01*
X0176479Y0051500D01*
X0179325Y0045442D02*
X0182925Y0045442D01*
X0181927Y0044443D02*
X0180323Y0044443D01*
X0176479Y0041500D02*
X0176479Y0036500D01*
X0174479Y0034500D01*
X0159479Y0034500D01*
X0148098Y0045880D01*
X0147688Y0045880D01*
X0145461Y0043653D02*
X0142614Y0046500D01*
X0131479Y0046500D01*
X0126479Y0051500D01*
X0126479Y0052500D01*
X0114979Y0052500D01*
X0112479Y0050000D02*
X0106479Y0050000D01*
X0101479Y0055000D01*
X0101479Y0061500D01*
X0104820Y0060420D02*
X0108049Y0060420D01*
X0107772Y0059421D02*
X0104350Y0059421D01*
X0103479Y0058423D02*
X0106773Y0058423D01*
X0105775Y0057424D02*
X0103479Y0057424D01*
X0103479Y0056426D02*
X0104776Y0056426D01*
X0104153Y0055427D02*
X0103880Y0055427D01*
X0100220Y0053430D02*
X0087377Y0053430D01*
X0086379Y0054429D02*
X0099479Y0054429D01*
X0099479Y0055427D02*
X0086128Y0055427D01*
X0086128Y0054903D02*
X0086128Y0056971D01*
X0085336Y0058883D01*
X0083873Y0060345D01*
X0083225Y0060614D01*
X0083653Y0060832D01*
X0084315Y0061313D01*
X0084894Y0061892D01*
X0085375Y0062554D01*
X0085747Y0063283D01*
X0086000Y0064062D01*
X0086128Y0064870D01*
X0086128Y0064880D01*
X0081328Y0064880D01*
X0081328Y0065680D01*
X0080528Y0065680D01*
X0080528Y0070480D01*
X0080518Y0070480D01*
X0079710Y0070351D01*
X0078931Y0070099D01*
X0078202Y0069727D01*
X0077540Y0069246D01*
X0076961Y0068667D01*
X0076480Y0068005D01*
X0076109Y0067276D01*
X0075856Y0066497D01*
X0075728Y0065689D01*
X0075728Y0065680D01*
X0080527Y0065680D01*
X0080527Y0064880D01*
X0075728Y0064880D01*
X0075728Y0064870D01*
X0075856Y0064062D01*
X0076109Y0063283D01*
X0076480Y0062554D01*
X0076961Y0061892D01*
X0077540Y0061313D01*
X0078202Y0060832D01*
X0078630Y0060614D01*
X0077982Y0060345D01*
X0076519Y0058883D01*
X0075728Y0056971D01*
X0075728Y0054903D01*
X0076519Y0052991D01*
X0077982Y0051529D01*
X0078051Y0051500D01*
X0077982Y0051471D01*
X0076519Y0050009D01*
X0075728Y0048097D01*
X0075728Y0046029D01*
X0076519Y0044117D01*
X0077982Y0042655D01*
X0078617Y0042392D01*
X0077982Y0042129D01*
X0076519Y0040666D01*
X0075728Y0038755D01*
X0075728Y0036686D01*
X0076519Y0034775D01*
X0077982Y0033312D01*
X0079893Y0032520D01*
X0081962Y0032520D01*
X0083873Y0033312D01*
X0085336Y0034775D01*
X0086128Y0036686D01*
X0086128Y0037368D01*
X0086176Y0037319D01*
X0091781Y0037319D01*
X0092660Y0038198D01*
X0092660Y0043802D01*
X0091781Y0044681D01*
X0088479Y0044681D01*
X0088479Y0052328D01*
X0086062Y0054745D01*
X0086128Y0054903D01*
X0086128Y0056426D02*
X0099479Y0056426D01*
X0099479Y0057424D02*
X0085940Y0057424D01*
X0085526Y0058423D02*
X0099479Y0058423D01*
X0098608Y0059421D02*
X0084797Y0059421D01*
X0083694Y0060420D02*
X0098138Y0060420D01*
X0097979Y0061418D02*
X0084420Y0061418D01*
X0085275Y0062417D02*
X0098070Y0062417D01*
X0098484Y0063415D02*
X0085789Y0063415D01*
X0086055Y0064414D02*
X0099443Y0064414D01*
X0102058Y0066411D02*
X0086013Y0066411D01*
X0086000Y0066497D02*
X0085747Y0067276D01*
X0085375Y0068005D01*
X0084894Y0068667D01*
X0084315Y0069246D01*
X0083653Y0069727D01*
X0082924Y0070099D01*
X0082145Y0070351D01*
X0081337Y0070480D01*
X0081328Y0070480D01*
X0081328Y0065680D01*
X0086128Y0065680D01*
X0086128Y0065689D01*
X0086000Y0066497D01*
X0085679Y0067409D02*
X0101060Y0067409D01*
X0100061Y0068408D02*
X0085082Y0068408D01*
X0084094Y0069406D02*
X0099063Y0069406D01*
X0098064Y0070405D02*
X0081809Y0070405D01*
X0081328Y0070405D02*
X0080528Y0070405D01*
X0080046Y0070405D02*
X0078327Y0070405D01*
X0078117Y0069899D02*
X0079309Y0072777D01*
X0079309Y0075892D01*
X0078117Y0078770D01*
X0075914Y0080973D01*
X0073036Y0082165D01*
X0069921Y0082165D01*
X0067043Y0080973D01*
X0064840Y0078770D01*
X0063648Y0075892D01*
X0063648Y0072777D01*
X0064840Y0069899D01*
X0067043Y0067696D01*
X0069921Y0066504D01*
X0073036Y0066504D01*
X0075914Y0067696D01*
X0078117Y0069899D01*
X0077761Y0069406D02*
X0077625Y0069406D01*
X0076773Y0068408D02*
X0076626Y0068408D01*
X0076177Y0067409D02*
X0075222Y0067409D01*
X0075842Y0066411D02*
X0057979Y0066411D01*
X0057979Y0067409D02*
X0067736Y0067409D01*
X0066331Y0068408D02*
X0057979Y0068408D01*
X0057979Y0069406D02*
X0065333Y0069406D01*
X0064631Y0070405D02*
X0057979Y0070405D01*
X0057979Y0071403D02*
X0064217Y0071403D01*
X0063803Y0072402D02*
X0057979Y0072402D01*
X0057979Y0073400D02*
X0063648Y0073400D01*
X0063648Y0074399D02*
X0057979Y0074399D01*
X0057979Y0075397D02*
X0063648Y0075397D01*
X0063857Y0076396D02*
X0057979Y0076396D01*
X0057979Y0077394D02*
X0064270Y0077394D01*
X0064684Y0078393D02*
X0057979Y0078393D01*
X0057979Y0079391D02*
X0065461Y0079391D01*
X0066460Y0080390D02*
X0057979Y0080390D01*
X0057979Y0081388D02*
X0068045Y0081388D01*
X0074912Y0081388D02*
X0087081Y0081388D01*
X0088079Y0080390D02*
X0076498Y0080390D01*
X0077496Y0079391D02*
X0089078Y0079391D01*
X0090076Y0078393D02*
X0078274Y0078393D01*
X0078687Y0077394D02*
X0091075Y0077394D01*
X0092073Y0076396D02*
X0079101Y0076396D01*
X0079309Y0075397D02*
X0093072Y0075397D01*
X0094070Y0074399D02*
X0079309Y0074399D01*
X0079309Y0073400D02*
X0095069Y0073400D01*
X0096067Y0072402D02*
X0079154Y0072402D01*
X0078740Y0071403D02*
X0097066Y0071403D01*
X0100726Y0073400D02*
X0109479Y0073400D01*
X0109479Y0072402D02*
X0101724Y0072402D01*
X0102723Y0071403D02*
X0109479Y0071403D01*
X0109479Y0070672D02*
X0110650Y0069500D01*
X0117851Y0069500D01*
X0117722Y0069372D01*
X0115495Y0067145D01*
X0113268Y0064918D01*
X0111238Y0062888D01*
X0091094Y0083031D01*
X0092648Y0083031D01*
X0092648Y0086016D01*
X0093617Y0086016D01*
X0093617Y0083031D01*
X0095495Y0083031D01*
X0095877Y0083134D01*
X0096219Y0083331D01*
X0096479Y0083591D01*
X0097039Y0083031D01*
X0102612Y0083031D01*
X0103491Y0083910D01*
X0103491Y0084500D01*
X0109575Y0084500D01*
X0109496Y0084467D01*
X0108512Y0083483D01*
X0107979Y0082196D01*
X0107979Y0080804D01*
X0108512Y0079517D01*
X0109479Y0078550D01*
X0109479Y0070672D01*
X0109746Y0070405D02*
X0103721Y0070405D01*
X0104720Y0069406D02*
X0117757Y0069406D01*
X0116758Y0068408D02*
X0105718Y0068408D01*
X0106717Y0067409D02*
X0115760Y0067409D01*
X0114761Y0066411D02*
X0107715Y0066411D01*
X0108714Y0065412D02*
X0113763Y0065412D01*
X0112764Y0064414D02*
X0109712Y0064414D01*
X0110711Y0063415D02*
X0111766Y0063415D01*
X0107051Y0061418D02*
X0104979Y0061418D01*
X0104887Y0062417D02*
X0106052Y0062417D01*
X0105054Y0063415D02*
X0104474Y0063415D01*
X0104055Y0064414D02*
X0103515Y0064414D01*
X0103057Y0065412D02*
X0081328Y0065412D01*
X0080527Y0065412D02*
X0057979Y0065412D01*
X0057979Y0064414D02*
X0075800Y0064414D01*
X0076066Y0063415D02*
X0073212Y0063415D01*
X0073161Y0063466D02*
X0071814Y0064024D01*
X0070356Y0064024D01*
X0069009Y0063466D01*
X0067978Y0062435D01*
X0067420Y0061087D01*
X0067420Y0059629D01*
X0067978Y0058282D01*
X0069009Y0057251D01*
X0070356Y0056693D01*
X0071814Y0056693D01*
X0073161Y0057251D01*
X0074192Y0058282D01*
X0074750Y0059629D01*
X0074750Y0061087D01*
X0074192Y0062435D01*
X0073161Y0063466D01*
X0074200Y0062417D02*
X0076580Y0062417D01*
X0077435Y0061418D02*
X0074613Y0061418D01*
X0074750Y0060420D02*
X0078161Y0060420D01*
X0077058Y0059421D02*
X0074664Y0059421D01*
X0074251Y0058423D02*
X0076329Y0058423D01*
X0075915Y0057424D02*
X0073334Y0057424D01*
X0075728Y0056426D02*
X0057979Y0056426D01*
X0057979Y0057424D02*
X0068836Y0057424D01*
X0067919Y0058423D02*
X0057979Y0058423D01*
X0057979Y0059421D02*
X0067506Y0059421D01*
X0067420Y0060420D02*
X0057979Y0060420D01*
X0057979Y0061418D02*
X0067557Y0061418D01*
X0067970Y0062417D02*
X0057979Y0062417D01*
X0057979Y0063415D02*
X0068958Y0063415D01*
X0080528Y0066411D02*
X0081328Y0066411D01*
X0081328Y0067409D02*
X0080528Y0067409D01*
X0080528Y0068408D02*
X0081328Y0068408D01*
X0081328Y0069406D02*
X0080528Y0069406D01*
X0096731Y0077394D02*
X0109479Y0077394D01*
X0109479Y0076396D02*
X0097730Y0076396D01*
X0098729Y0075397D02*
X0109479Y0075397D01*
X0109479Y0074399D02*
X0099727Y0074399D01*
X0095733Y0078393D02*
X0109479Y0078393D01*
X0108638Y0079391D02*
X0094734Y0079391D01*
X0093736Y0080390D02*
X0108150Y0080390D01*
X0107979Y0081388D02*
X0092737Y0081388D01*
X0091739Y0082387D02*
X0108058Y0082387D01*
X0108471Y0083385D02*
X0102966Y0083385D01*
X0103491Y0084384D02*
X0109413Y0084384D01*
X0111479Y0081500D02*
X0111479Y0071500D01*
X0122068Y0071500D01*
X0123788Y0069781D01*
X0121561Y0067553D02*
X0139114Y0050000D01*
X0153479Y0050000D01*
X0161979Y0041500D01*
X0166479Y0041500D01*
X0155693Y0035457D02*
X0142922Y0035457D01*
X0143920Y0036455D02*
X0154695Y0036455D01*
X0153696Y0037454D02*
X0144919Y0037454D01*
X0145917Y0038452D02*
X0152698Y0038452D01*
X0151699Y0039451D02*
X0146916Y0039451D01*
X0147914Y0040449D02*
X0150701Y0040449D01*
X0149702Y0041448D02*
X0148913Y0041448D01*
X0143234Y0041426D02*
X0140660Y0044000D01*
X0127479Y0044000D01*
X0124979Y0046500D01*
X0124979Y0048500D01*
X0113979Y0048500D01*
X0112479Y0050000D01*
X0113272Y0046500D02*
X0121479Y0046500D01*
X0121479Y0041500D01*
X0127979Y0035000D01*
X0127979Y0027000D01*
X0127479Y0026500D01*
X0127479Y0024500D01*
X0139479Y0024500D01*
X0141479Y0026500D01*
X0144979Y0026470D02*
X0161435Y0026470D01*
X0161435Y0025472D02*
X0144841Y0025472D01*
X0144402Y0024473D02*
X0161435Y0024473D01*
X0161435Y0023475D02*
X0143321Y0023475D01*
X0144866Y0027469D02*
X0161435Y0027469D01*
X0161435Y0028467D02*
X0144452Y0028467D01*
X0143463Y0029466D02*
X0161435Y0029466D01*
X0161435Y0030464D02*
X0137929Y0030464D01*
X0136930Y0029466D02*
X0139495Y0029466D01*
X0138505Y0028467D02*
X0135932Y0028467D01*
X0135937Y0028472D02*
X0135937Y0028472D01*
X0134933Y0027469D02*
X0138092Y0027469D01*
X0138928Y0031463D02*
X0162115Y0031463D01*
X0162314Y0031661D02*
X0161435Y0030783D01*
X0161435Y0023241D01*
X0162314Y0022362D01*
X0170643Y0022362D01*
X0171522Y0023241D01*
X0171522Y0025406D01*
X0177223Y0025406D01*
X0177223Y0024422D01*
X0178102Y0023543D01*
X0184856Y0023543D01*
X0185735Y0024422D01*
X0185735Y0030389D01*
X0184856Y0031268D01*
X0178102Y0031268D01*
X0177223Y0030389D01*
X0177223Y0029405D01*
X0171522Y0029405D01*
X0171522Y0030783D01*
X0170643Y0031661D01*
X0162314Y0031661D01*
X0157691Y0033460D02*
X0140925Y0033460D01*
X0141923Y0034458D02*
X0156692Y0034458D01*
X0166479Y0027012D02*
X0166872Y0027406D01*
X0181479Y0027406D01*
X0185735Y0027469D02*
X0203680Y0027469D01*
X0203680Y0028467D02*
X0185735Y0028467D01*
X0185735Y0029466D02*
X0203680Y0029466D01*
X0203680Y0030464D02*
X0185659Y0030464D01*
X0185735Y0026470D02*
X0203680Y0026470D01*
X0203680Y0025472D02*
X0185735Y0025472D01*
X0185735Y0024473D02*
X0203680Y0024473D01*
X0203680Y0023475D02*
X0171522Y0023475D01*
X0171522Y0024473D02*
X0177223Y0024473D01*
X0170757Y0022476D02*
X0203680Y0022476D01*
X0203680Y0021478D02*
X0114947Y0021478D01*
X0114947Y0022476D02*
X0162200Y0022476D01*
X0162155Y0020479D02*
X0114864Y0020479D01*
X0111963Y0020479D02*
X0110994Y0020479D01*
X0110994Y0021478D02*
X0111963Y0021478D01*
X0111963Y0022476D02*
X0110994Y0022476D01*
X0110994Y0023475D02*
X0088479Y0023475D01*
X0088479Y0024473D02*
X0108010Y0024473D01*
X0108010Y0025472D02*
X0088479Y0025472D01*
X0088479Y0026470D02*
X0108540Y0026470D01*
X0108010Y0027469D02*
X0088479Y0027469D01*
X0088479Y0028467D02*
X0108010Y0028467D01*
X0108010Y0029466D02*
X0088479Y0029466D01*
X0088771Y0030464D02*
X0108010Y0030464D01*
X0108010Y0031463D02*
X0089770Y0031463D01*
X0090768Y0032461D02*
X0108010Y0032461D01*
X0108285Y0033460D02*
X0108837Y0033460D01*
X0109387Y0034458D02*
X0109479Y0034458D01*
X0111479Y0035798D02*
X0111479Y0029846D01*
X0114947Y0029466D02*
X0118956Y0029466D01*
X0119950Y0028472D02*
X0119950Y0028472D01*
X0119954Y0028467D02*
X0114947Y0028467D01*
X0114947Y0027469D02*
X0120953Y0027469D01*
X0121951Y0026470D02*
X0114417Y0026470D01*
X0114947Y0025472D02*
X0125479Y0025472D01*
X0125479Y0026470D02*
X0123645Y0026470D01*
X0124643Y0027469D02*
X0125619Y0027469D01*
X0125642Y0028467D02*
X0125979Y0028467D01*
X0125479Y0024473D02*
X0114947Y0024473D01*
X0111963Y0023475D02*
X0125676Y0023475D01*
X0117957Y0030464D02*
X0114947Y0030464D01*
X0114947Y0031463D02*
X0116959Y0031463D01*
X0115960Y0032461D02*
X0114947Y0032461D01*
X0114962Y0033460D02*
X0114121Y0033460D01*
X0113963Y0034458D02*
X0113479Y0034458D01*
X0114522Y0034458D02*
X0114664Y0034458D01*
X0115521Y0035457D02*
X0115662Y0035457D01*
X0116519Y0036455D02*
X0116661Y0036455D01*
X0117177Y0036972D02*
X0117107Y0037043D01*
X0119900Y0039836D01*
X0119018Y0040718D01*
X0118925Y0040771D01*
X0118925Y0040810D01*
X0116491Y0043245D01*
X0115235Y0044500D01*
X0119479Y0044500D01*
X0119479Y0040672D01*
X0124479Y0035672D01*
X0124479Y0035257D01*
X0123172Y0036563D01*
X0120945Y0038790D01*
X0120906Y0038790D01*
X0120853Y0038883D01*
X0119970Y0039765D01*
X0117177Y0036972D01*
X0117518Y0037454D02*
X0117659Y0037454D01*
X0118516Y0038452D02*
X0118658Y0038452D01*
X0119515Y0039451D02*
X0119656Y0039451D01*
X0120284Y0039451D02*
X0120699Y0039451D01*
X0121283Y0038452D02*
X0121698Y0038452D01*
X0122282Y0037454D02*
X0122696Y0037454D01*
X0123280Y0036455D02*
X0123695Y0036455D01*
X0124279Y0035457D02*
X0124479Y0035457D01*
X0119701Y0040449D02*
X0119286Y0040449D01*
X0119479Y0041448D02*
X0118287Y0041448D01*
X0117289Y0042446D02*
X0119479Y0042446D01*
X0119479Y0043445D02*
X0116290Y0043445D01*
X0115292Y0044443D02*
X0119479Y0044443D01*
X0113272Y0046500D02*
X0110425Y0043653D01*
X0106479Y0039707D01*
X0106479Y0036500D01*
X0102979Y0036455D02*
X0101602Y0036455D01*
X0100603Y0035457D02*
X0103122Y0035457D01*
X0103571Y0034458D02*
X0099605Y0034458D01*
X0098606Y0033460D02*
X0104672Y0033460D01*
X0096818Y0034500D02*
X0089979Y0034500D01*
X0086979Y0031500D01*
X0086479Y0031500D01*
X0086479Y0016500D01*
X0091479Y0011500D01*
X0156479Y0011500D01*
X0160967Y0015988D01*
X0166479Y0015988D01*
X0171522Y0016485D02*
X0177223Y0016485D01*
X0177223Y0016094D02*
X0180979Y0016094D01*
X0180979Y0015095D01*
X0177223Y0015095D01*
X0177223Y0013035D01*
X0177325Y0012653D01*
X0177523Y0012311D01*
X0177802Y0012032D01*
X0178144Y0011835D01*
X0178525Y0011732D01*
X0180979Y0011732D01*
X0180979Y0015094D01*
X0181979Y0015094D01*
X0181979Y0011732D01*
X0184432Y0011732D01*
X0184814Y0011835D01*
X0185156Y0012032D01*
X0185435Y0012311D01*
X0185632Y0012653D01*
X0185735Y0013035D01*
X0185735Y0015095D01*
X0181979Y0015095D01*
X0181979Y0016094D01*
X0185735Y0016094D01*
X0185735Y0018154D01*
X0185632Y0018536D01*
X0185435Y0018878D01*
X0185156Y0019157D01*
X0184814Y0019354D01*
X0184432Y0019457D01*
X0181979Y0019457D01*
X0181979Y0016095D01*
X0180979Y0016095D01*
X0180979Y0019457D01*
X0178525Y0019457D01*
X0178144Y0019354D01*
X0177802Y0019157D01*
X0177523Y0018878D01*
X0177325Y0018536D01*
X0177223Y0018154D01*
X0177223Y0016094D01*
X0177223Y0017484D02*
X0171522Y0017484D01*
X0171522Y0018482D02*
X0177311Y0018482D01*
X0180979Y0018482D02*
X0181979Y0018482D01*
X0181979Y0017484D02*
X0180979Y0017484D01*
X0180979Y0016485D02*
X0181979Y0016485D01*
X0181979Y0015487D02*
X0203680Y0015487D01*
X0203680Y0016485D02*
X0185735Y0016485D01*
X0185735Y0017484D02*
X0203680Y0017484D01*
X0203680Y0018482D02*
X0185647Y0018482D01*
X0180979Y0015487D02*
X0171522Y0015487D01*
X0171522Y0014488D02*
X0177223Y0014488D01*
X0177223Y0013490D02*
X0171522Y0013490D01*
X0171522Y0012491D02*
X0177419Y0012491D01*
X0180979Y0012491D02*
X0181979Y0012491D01*
X0181979Y0013490D02*
X0180979Y0013490D01*
X0180979Y0014488D02*
X0181979Y0014488D01*
X0185735Y0014488D02*
X0203680Y0014488D01*
X0203680Y0013490D02*
X0185735Y0013490D01*
X0185539Y0012491D02*
X0203680Y0012491D01*
X0203680Y0011493D02*
X0170797Y0011493D01*
X0162160Y0011493D02*
X0159300Y0011493D01*
X0160298Y0012491D02*
X0161435Y0012491D01*
X0161435Y0013490D02*
X0161297Y0013490D01*
X0157637Y0015487D02*
X0090321Y0015487D01*
X0091319Y0014488D02*
X0156638Y0014488D01*
X0158635Y0016485D02*
X0089322Y0016485D01*
X0088479Y0017484D02*
X0159634Y0017484D01*
X0161435Y0018482D02*
X0088479Y0018482D01*
X0088479Y0019481D02*
X0161435Y0019481D01*
X0170802Y0020479D02*
X0203680Y0020479D01*
X0203680Y0019481D02*
X0171522Y0019481D01*
X0158301Y0010494D02*
X0203680Y0010494D01*
X0203680Y0009496D02*
X0057979Y0009496D01*
X0057979Y0010494D02*
X0089656Y0010494D01*
X0088658Y0011493D02*
X0057979Y0011493D01*
X0057979Y0012491D02*
X0087659Y0012491D01*
X0086661Y0013490D02*
X0057979Y0013490D01*
X0057979Y0014488D02*
X0085662Y0014488D01*
X0084664Y0015487D02*
X0057979Y0015487D01*
X0057979Y0016485D02*
X0084479Y0016485D01*
X0084479Y0017484D02*
X0057979Y0017484D01*
X0057979Y0018482D02*
X0084479Y0018482D01*
X0084479Y0019481D02*
X0057979Y0019481D01*
X0057979Y0020479D02*
X0084479Y0020479D01*
X0084479Y0021478D02*
X0074589Y0021478D01*
X0075914Y0022027D02*
X0078117Y0024230D01*
X0079309Y0027108D01*
X0079309Y0030223D01*
X0078117Y0033101D01*
X0075914Y0035304D01*
X0073036Y0036496D01*
X0069921Y0036496D01*
X0067043Y0035304D01*
X0064840Y0033101D01*
X0063648Y0030223D01*
X0063648Y0027108D01*
X0064840Y0024230D01*
X0067043Y0022027D01*
X0069921Y0020835D01*
X0073036Y0020835D01*
X0075914Y0022027D01*
X0076364Y0022476D02*
X0084479Y0022476D01*
X0084479Y0023475D02*
X0077362Y0023475D01*
X0078218Y0024473D02*
X0084479Y0024473D01*
X0084479Y0025472D02*
X0078632Y0025472D01*
X0079045Y0026470D02*
X0084479Y0026470D01*
X0084479Y0027469D02*
X0079309Y0027469D01*
X0079309Y0028467D02*
X0084479Y0028467D01*
X0084479Y0029466D02*
X0079309Y0029466D01*
X0079209Y0030464D02*
X0084479Y0030464D01*
X0084479Y0031463D02*
X0078796Y0031463D01*
X0078382Y0032461D02*
X0084612Y0032461D01*
X0084021Y0033460D02*
X0085610Y0033460D01*
X0085019Y0034458D02*
X0087109Y0034458D01*
X0088107Y0035457D02*
X0085618Y0035457D01*
X0086032Y0036455D02*
X0089106Y0036455D01*
X0091916Y0037454D02*
X0096943Y0037454D01*
X0097942Y0038452D02*
X0092660Y0038452D01*
X0092660Y0039451D02*
X0098940Y0039451D01*
X0099939Y0040449D02*
X0092660Y0040449D01*
X0092660Y0041448D02*
X0100937Y0041448D01*
X0101936Y0042446D02*
X0092660Y0042446D01*
X0092660Y0043445D02*
X0102934Y0043445D01*
X0103933Y0044443D02*
X0092019Y0044443D01*
X0088479Y0045442D02*
X0104153Y0045442D01*
X0105081Y0046440D02*
X0088479Y0046440D01*
X0088479Y0047439D02*
X0106080Y0047439D01*
X0105213Y0048437D02*
X0088479Y0048437D01*
X0088479Y0049436D02*
X0104214Y0049436D01*
X0103216Y0050434D02*
X0088479Y0050434D01*
X0088479Y0051433D02*
X0102217Y0051433D01*
X0101219Y0052432D02*
X0088376Y0052432D01*
X0086479Y0051500D02*
X0082042Y0055937D01*
X0080928Y0055937D01*
X0075728Y0055427D02*
X0057979Y0055427D01*
X0057979Y0054429D02*
X0075924Y0054429D01*
X0076338Y0053430D02*
X0057979Y0053430D01*
X0057979Y0052432D02*
X0077079Y0052432D01*
X0077944Y0051433D02*
X0057979Y0051433D01*
X0057979Y0050434D02*
X0076945Y0050434D01*
X0076282Y0049436D02*
X0057979Y0049436D01*
X0057979Y0048437D02*
X0075868Y0048437D01*
X0075728Y0047439D02*
X0057979Y0047439D01*
X0057979Y0046440D02*
X0075728Y0046440D01*
X0075971Y0045442D02*
X0073468Y0045442D01*
X0073161Y0045749D02*
X0074192Y0044718D01*
X0074750Y0043371D01*
X0074750Y0041913D01*
X0074192Y0040565D01*
X0073161Y0039534D01*
X0071814Y0038976D01*
X0070356Y0038976D01*
X0069009Y0039534D01*
X0067978Y0040565D01*
X0067420Y0041913D01*
X0067420Y0043371D01*
X0067978Y0044718D01*
X0069009Y0045749D01*
X0070356Y0046307D01*
X0071814Y0046307D01*
X0073161Y0045749D01*
X0074306Y0044443D02*
X0076384Y0044443D01*
X0077192Y0043445D02*
X0074720Y0043445D01*
X0074750Y0042446D02*
X0078485Y0042446D01*
X0077301Y0041448D02*
X0074558Y0041448D01*
X0074076Y0040449D02*
X0076429Y0040449D01*
X0076016Y0039451D02*
X0072960Y0039451D01*
X0075728Y0038452D02*
X0057979Y0038452D01*
X0057979Y0037454D02*
X0075728Y0037454D01*
X0075823Y0036455D02*
X0073135Y0036455D01*
X0069823Y0036455D02*
X0057979Y0036455D01*
X0057979Y0035457D02*
X0067412Y0035457D01*
X0066197Y0034458D02*
X0057979Y0034458D01*
X0057979Y0033460D02*
X0065199Y0033460D01*
X0064575Y0032461D02*
X0057979Y0032461D01*
X0057979Y0031463D02*
X0064162Y0031463D01*
X0063748Y0030464D02*
X0057979Y0030464D01*
X0057979Y0029466D02*
X0063648Y0029466D01*
X0063648Y0028467D02*
X0057979Y0028467D01*
X0057979Y0027469D02*
X0063648Y0027469D01*
X0063912Y0026470D02*
X0057979Y0026470D01*
X0057979Y0025472D02*
X0064326Y0025472D01*
X0064739Y0024473D02*
X0057979Y0024473D01*
X0057979Y0023475D02*
X0065595Y0023475D01*
X0066594Y0022476D02*
X0057979Y0022476D01*
X0057979Y0021478D02*
X0068369Y0021478D01*
X0088479Y0021478D02*
X0108010Y0021478D01*
X0108010Y0022476D02*
X0088479Y0022476D01*
X0088479Y0020479D02*
X0108094Y0020479D01*
X0096818Y0034500D02*
X0108198Y0045880D01*
X0114880Y0039199D02*
X0111479Y0035798D01*
X0103085Y0037454D02*
X0102600Y0037454D01*
X0088979Y0041000D02*
X0086479Y0042500D01*
X0086479Y0051500D01*
X0068702Y0045442D02*
X0057979Y0045442D01*
X0057979Y0044443D02*
X0067864Y0044443D01*
X0067450Y0043445D02*
X0057979Y0043445D01*
X0057979Y0042446D02*
X0067420Y0042446D01*
X0067612Y0041448D02*
X0057979Y0041448D01*
X0057979Y0040449D02*
X0068094Y0040449D01*
X0069210Y0039451D02*
X0057979Y0039451D01*
X0075545Y0035457D02*
X0076237Y0035457D01*
X0076760Y0034458D02*
X0076836Y0034458D01*
X0077759Y0033460D02*
X0077834Y0033460D01*
X0057979Y0008497D02*
X0203680Y0008497D01*
X0203680Y0007499D02*
X0057979Y0007499D01*
X0057979Y0006500D02*
X0203680Y0006500D01*
X0203680Y0005501D02*
X0057979Y0005501D01*
X0057979Y0004503D02*
X0203680Y0004503D01*
X0203680Y0003504D02*
X0057979Y0003504D01*
X0057979Y0003000D02*
X0057979Y0099961D01*
X0203680Y0099961D01*
X0203680Y0003000D01*
X0057979Y0003000D01*
X0139926Y0032461D02*
X0203680Y0032461D01*
X0203680Y0031463D02*
X0170842Y0031463D01*
X0171522Y0030464D02*
X0177298Y0030464D01*
X0177223Y0029466D02*
X0171522Y0029466D01*
X0176267Y0033460D02*
X0203680Y0033460D01*
X0203680Y0034458D02*
X0177265Y0034458D01*
X0191779Y0043445D02*
X0203680Y0043445D01*
X0203680Y0044443D02*
X0191031Y0044443D01*
X0190032Y0045442D02*
X0203680Y0045442D01*
X0203680Y0046440D02*
X0189034Y0046440D01*
X0188956Y0047439D02*
X0203680Y0047439D01*
X0203680Y0048437D02*
X0190063Y0048437D01*
X0190711Y0049436D02*
X0203680Y0049436D01*
X0203680Y0050434D02*
X0191125Y0050434D01*
X0191179Y0051433D02*
X0203680Y0051433D01*
X0203680Y0052432D02*
X0191179Y0052432D01*
X0190767Y0053430D02*
X0203680Y0053430D01*
X0203680Y0054429D02*
X0190197Y0054429D01*
X0189198Y0055427D02*
X0203680Y0055427D01*
X0203680Y0056426D02*
X0164382Y0056426D01*
X0163766Y0057424D02*
X0163383Y0057424D01*
X0162768Y0058423D02*
X0162385Y0058423D01*
X0161769Y0059421D02*
X0161386Y0059421D01*
X0161679Y0060420D02*
X0160388Y0060420D01*
X0159389Y0061418D02*
X0161679Y0061418D01*
X0161679Y0062417D02*
X0158391Y0062417D01*
X0157392Y0063415D02*
X0161679Y0063415D01*
X0162604Y0064414D02*
X0143122Y0064414D01*
X0142124Y0065412D02*
X0163603Y0065412D01*
X0163781Y0067409D02*
X0141464Y0067409D01*
X0141125Y0066411D02*
X0203680Y0066411D01*
X0203680Y0067409D02*
X0188884Y0067409D01*
X0189141Y0067516D02*
X0190463Y0068838D01*
X0191179Y0070565D01*
X0191179Y0072435D01*
X0190463Y0074162D01*
X0189141Y0075484D01*
X0187414Y0076200D01*
X0185544Y0076200D01*
X0183816Y0075484D01*
X0182494Y0074162D01*
X0181779Y0072435D01*
X0181779Y0070565D01*
X0182494Y0068838D01*
X0183816Y0067516D01*
X0185544Y0066800D01*
X0187414Y0066800D01*
X0189141Y0067516D01*
X0190033Y0068408D02*
X0203680Y0068408D01*
X0203680Y0069406D02*
X0190699Y0069406D01*
X0191112Y0070405D02*
X0203680Y0070405D01*
X0203680Y0071403D02*
X0191179Y0071403D01*
X0191179Y0072402D02*
X0203680Y0072402D01*
X0203680Y0073400D02*
X0190779Y0073400D01*
X0190227Y0074399D02*
X0203680Y0074399D01*
X0203680Y0075397D02*
X0189228Y0075397D01*
X0183729Y0075397D02*
X0179370Y0075397D01*
X0178467Y0076300D02*
X0176979Y0076300D01*
X0176979Y0072000D01*
X0181279Y0072000D01*
X0181279Y0073488D01*
X0178467Y0076300D01*
X0176979Y0075397D02*
X0175979Y0075397D01*
X0175979Y0076300D02*
X0174491Y0076300D01*
X0171679Y0073488D01*
X0171679Y0072000D01*
X0175979Y0072000D01*
X0175979Y0076300D01*
X0173588Y0075397D02*
X0169370Y0075397D01*
X0170368Y0074399D02*
X0172589Y0074399D01*
X0171679Y0073400D02*
X0171279Y0073400D01*
X0171279Y0072402D02*
X0171679Y0072402D01*
X0171279Y0071403D02*
X0175979Y0071403D01*
X0175979Y0071000D02*
X0175979Y0072000D01*
X0176979Y0072000D01*
X0176979Y0071000D01*
X0181279Y0071000D01*
X0181279Y0069512D01*
X0178467Y0066700D01*
X0176979Y0066700D01*
X0176979Y0071000D01*
X0175979Y0071000D01*
X0175979Y0066700D01*
X0174491Y0066700D01*
X0171679Y0069512D01*
X0171679Y0071000D01*
X0175979Y0071000D01*
X0175979Y0070405D02*
X0176979Y0070405D01*
X0176979Y0071403D02*
X0181779Y0071403D01*
X0181779Y0072402D02*
X0181279Y0072402D01*
X0181279Y0073400D02*
X0182179Y0073400D01*
X0182731Y0074399D02*
X0180368Y0074399D01*
X0176979Y0074399D02*
X0175979Y0074399D01*
X0175979Y0073400D02*
X0176979Y0073400D01*
X0176979Y0072402D02*
X0175979Y0072402D01*
X0171679Y0070405D02*
X0171279Y0070405D01*
X0171173Y0069406D02*
X0171784Y0069406D01*
X0172783Y0068408D02*
X0170175Y0068408D01*
X0169176Y0067409D02*
X0173781Y0067409D01*
X0175979Y0067409D02*
X0176979Y0067409D01*
X0176979Y0068408D02*
X0175979Y0068408D01*
X0175979Y0069406D02*
X0176979Y0069406D01*
X0180175Y0068408D02*
X0182924Y0068408D01*
X0182259Y0069406D02*
X0181173Y0069406D01*
X0181279Y0070405D02*
X0181845Y0070405D01*
X0184073Y0067409D02*
X0179176Y0067409D01*
X0179355Y0065412D02*
X0183744Y0065412D01*
X0182746Y0064414D02*
X0180353Y0064414D01*
X0181279Y0063415D02*
X0182185Y0063415D01*
X0181779Y0062417D02*
X0181279Y0062417D01*
X0176979Y0062417D02*
X0175979Y0062417D01*
X0175979Y0063415D02*
X0176979Y0063415D01*
X0176979Y0064414D02*
X0175979Y0064414D01*
X0175979Y0065412D02*
X0176979Y0065412D01*
X0173603Y0065412D02*
X0169355Y0065412D01*
X0170353Y0064414D02*
X0172604Y0064414D01*
X0171679Y0063415D02*
X0171279Y0063415D01*
X0171279Y0062417D02*
X0171679Y0062417D01*
X0162783Y0068408D02*
X0142462Y0068408D01*
X0143461Y0069406D02*
X0161784Y0069406D01*
X0166479Y0071500D02*
X0142726Y0071500D01*
X0136553Y0065326D01*
X0133479Y0062252D01*
X0133479Y0061000D01*
X0136479Y0058000D01*
X0138135Y0058000D01*
X0139057Y0058922D01*
X0139057Y0054922D01*
X0140479Y0053500D01*
X0139057Y0058922D02*
X0141007Y0060872D01*
X0143939Y0059421D02*
X0144081Y0059421D01*
X0144938Y0060420D02*
X0145079Y0060420D01*
X0145936Y0061418D02*
X0146078Y0061418D01*
X0146118Y0061418D02*
X0148568Y0061418D01*
X0147570Y0060420D02*
X0147116Y0060420D01*
X0145100Y0062417D02*
X0149567Y0062417D01*
X0150565Y0063415D02*
X0144121Y0063415D01*
X0136553Y0065074D02*
X0136553Y0065326D01*
X0134326Y0067553D02*
X0141479Y0074707D01*
X0141479Y0076500D01*
X0135979Y0082000D01*
X0135979Y0086500D01*
X0153132Y0086500D01*
X0149467Y0084384D02*
X0139756Y0084384D01*
X0138945Y0083385D02*
X0149992Y0083385D01*
X0156273Y0083385D02*
X0156685Y0083385D01*
X0159341Y0083385D02*
X0160309Y0083385D01*
X0160309Y0084384D02*
X0159341Y0084384D01*
X0159341Y0085382D02*
X0160309Y0085382D01*
X0160310Y0086381D02*
X0203680Y0086381D01*
X0203680Y0087379D02*
X0163491Y0087379D01*
X0163491Y0088378D02*
X0203680Y0088378D01*
X0203680Y0089376D02*
X0163198Y0089376D01*
X0160309Y0089376D02*
X0159341Y0089376D01*
X0159341Y0088378D02*
X0160309Y0088378D01*
X0160309Y0087379D02*
X0159341Y0087379D01*
X0159825Y0086500D02*
X0166479Y0086500D01*
X0163491Y0085382D02*
X0203680Y0085382D01*
X0203680Y0084384D02*
X0163491Y0084384D01*
X0162966Y0083385D02*
X0203680Y0083385D01*
X0203680Y0082387D02*
X0138420Y0082387D01*
X0139419Y0081388D02*
X0203680Y0081388D01*
X0203680Y0080390D02*
X0140417Y0080390D01*
X0141416Y0079391D02*
X0203680Y0079391D01*
X0203680Y0078393D02*
X0142414Y0078393D01*
X0143413Y0077394D02*
X0203680Y0077394D01*
X0203680Y0076396D02*
X0143479Y0076396D01*
X0143479Y0075397D02*
X0163588Y0075397D01*
X0162589Y0074399D02*
X0143479Y0074399D01*
X0136479Y0074161D02*
X0132098Y0069781D01*
X0136479Y0074161D02*
X0136479Y0076500D01*
X0126479Y0086500D01*
X0116979Y0086500D01*
X0099825Y0086500D01*
X0096685Y0083385D02*
X0096273Y0083385D01*
X0093617Y0083385D02*
X0092648Y0083385D01*
X0092648Y0084384D02*
X0093617Y0084384D01*
X0093617Y0085382D02*
X0092648Y0085382D01*
X0092648Y0086381D02*
X0087745Y0086381D01*
X0086746Y0087379D02*
X0089467Y0087379D01*
X0089467Y0086984D02*
X0092648Y0086984D01*
X0092648Y0089968D01*
X0090769Y0089968D01*
X0090388Y0089866D01*
X0090046Y0089669D01*
X0089767Y0089390D01*
X0089569Y0089047D01*
X0089467Y0088666D01*
X0089467Y0086984D01*
X0089467Y0088378D02*
X0085748Y0088378D01*
X0083552Y0089376D02*
X0089759Y0089376D01*
X0092648Y0089376D02*
X0093617Y0089376D01*
X0093617Y0088378D02*
X0092648Y0088378D01*
X0092648Y0087379D02*
X0093617Y0087379D01*
X0089467Y0085382D02*
X0088743Y0085382D01*
X0084797Y0086500D02*
X0081479Y0086500D01*
X0077979Y0086381D02*
X0057979Y0086381D01*
X0057979Y0087379D02*
X0078055Y0087379D01*
X0078468Y0088378D02*
X0057979Y0088378D01*
X0057979Y0089376D02*
X0079405Y0089376D01*
X0084797Y0086500D02*
X0112652Y0058645D01*
X0133420Y0082387D02*
X0133979Y0082387D01*
X0133012Y0083385D02*
X0132422Y0083385D01*
X0132201Y0084384D02*
X0131423Y0084384D01*
X0131787Y0085382D02*
X0130425Y0085382D01*
X0129426Y0086381D02*
X0131679Y0086381D01*
X0131689Y0087379D02*
X0128428Y0087379D01*
X0127429Y0088378D02*
X0132102Y0088378D01*
X0132774Y0089376D02*
X0120183Y0089376D01*
X0118860Y0090375D02*
X0134097Y0090375D01*
X0137860Y0090375D02*
X0203680Y0090375D01*
X0203680Y0091373D02*
X0057979Y0091373D01*
X0057979Y0090375D02*
X0115097Y0090375D01*
X0113774Y0089376D02*
X0103204Y0089376D01*
X0086082Y0082387D02*
X0057979Y0082387D01*
X0057979Y0083385D02*
X0079852Y0083385D01*
X0078645Y0084384D02*
X0057979Y0084384D01*
X0057979Y0085382D02*
X0078153Y0085382D01*
X0083105Y0083385D02*
X0085084Y0083385D01*
X0057979Y0092372D02*
X0203680Y0092372D01*
X0203680Y0093370D02*
X0057979Y0093370D01*
X0057979Y0094369D02*
X0203680Y0094369D01*
X0203680Y0095368D02*
X0057979Y0095368D01*
X0057979Y0096366D02*
X0203680Y0096366D01*
X0203680Y0097365D02*
X0057979Y0097365D01*
X0057979Y0098363D02*
X0203680Y0098363D01*
X0203680Y0099362D02*
X0057979Y0099362D01*
X0139183Y0089376D02*
X0149754Y0089376D01*
X0189213Y0065412D02*
X0203680Y0065412D01*
X0203680Y0064414D02*
X0190212Y0064414D01*
X0190773Y0063415D02*
X0203680Y0063415D01*
X0203680Y0062417D02*
X0191179Y0062417D01*
X0191179Y0061418D02*
X0203680Y0061418D01*
X0203680Y0060420D02*
X0191118Y0060420D01*
X0190705Y0059421D02*
X0203680Y0059421D01*
X0203680Y0058423D02*
X0190048Y0058423D01*
X0188920Y0057424D02*
X0203680Y0057424D01*
D24*
X0166479Y0086500D03*
X0111479Y0081500D03*
X0081479Y0086500D03*
X0101479Y0061500D03*
X0114979Y0052500D03*
X0140479Y0053500D03*
X0106479Y0036500D03*
X0127979Y0035000D03*
X0141479Y0026500D03*
D25*
X0088979Y0041000D03*
M02*
