G75*
%MOIN*%
%OFA0B0*%
%FSLAX25Y25*%
%IPPOS*%
%LPD*%
%AMOC8*
5,1,8,0,0,1.08239X$1,22.5*
%
%ADD10R,0.03937X0.04331*%
%ADD11R,0.04331X0.03937*%
%ADD12R,0.05512X0.04724*%
%ADD13R,0.07087X0.06299*%
%ADD14R,0.05000X0.02200*%
%ADD15R,0.02200X0.05000*%
D10*
X0111479Y0023154D03*
X0111479Y0029846D03*
D11*
X0099825Y0086500D03*
X0093132Y0086500D03*
X0153132Y0086500D03*
X0159825Y0086500D03*
D12*
X0181479Y0027406D03*
X0181479Y0015594D03*
D13*
X0166479Y0015988D03*
X0166479Y0027012D03*
D14*
G36*
X0105653Y0044891D02*
X0109187Y0048425D01*
X0110743Y0046869D01*
X0107209Y0043335D01*
X0105653Y0044891D01*
G37*
G36*
X0107880Y0042664D02*
X0111414Y0046198D01*
X0112970Y0044642D01*
X0109436Y0041108D01*
X0107880Y0042664D01*
G37*
G36*
X0110107Y0040437D02*
X0113641Y0043971D01*
X0115197Y0042415D01*
X0111663Y0038881D01*
X0110107Y0040437D01*
G37*
G36*
X0112335Y0038210D02*
X0115869Y0041744D01*
X0117425Y0040188D01*
X0113891Y0036654D01*
X0112335Y0038210D01*
G37*
G36*
X0114562Y0035983D02*
X0118096Y0039517D01*
X0119652Y0037961D01*
X0116118Y0034427D01*
X0114562Y0035983D01*
G37*
G36*
X0116789Y0033756D02*
X0120323Y0037290D01*
X0121879Y0035734D01*
X0118345Y0032200D01*
X0116789Y0033756D01*
G37*
G36*
X0119016Y0031529D02*
X0122550Y0035063D01*
X0124106Y0033507D01*
X0120572Y0029973D01*
X0119016Y0031529D01*
G37*
G36*
X0121243Y0029302D02*
X0124777Y0032836D01*
X0126333Y0031280D01*
X0122799Y0027746D01*
X0121243Y0029302D01*
G37*
G36*
X0145143Y0053202D02*
X0148677Y0056736D01*
X0150233Y0055180D01*
X0146699Y0051646D01*
X0145143Y0053202D01*
G37*
G36*
X0142916Y0055429D02*
X0146450Y0058963D01*
X0148006Y0057407D01*
X0144472Y0053873D01*
X0142916Y0055429D01*
G37*
G36*
X0140689Y0057656D02*
X0144223Y0061190D01*
X0145779Y0059634D01*
X0142245Y0056100D01*
X0140689Y0057656D01*
G37*
G36*
X0138462Y0059883D02*
X0141996Y0063417D01*
X0143552Y0061861D01*
X0140018Y0058327D01*
X0138462Y0059883D01*
G37*
G36*
X0136235Y0062110D02*
X0139769Y0065644D01*
X0141325Y0064088D01*
X0137791Y0060554D01*
X0136235Y0062110D01*
G37*
G36*
X0134008Y0064337D02*
X0137542Y0067871D01*
X0139098Y0066315D01*
X0135564Y0062781D01*
X0134008Y0064337D01*
G37*
G36*
X0131781Y0066564D02*
X0135315Y0070098D01*
X0136871Y0068542D01*
X0133337Y0065008D01*
X0131781Y0066564D01*
G37*
G36*
X0129553Y0068792D02*
X0133087Y0072326D01*
X0134643Y0070770D01*
X0131109Y0067236D01*
X0129553Y0068792D01*
G37*
D15*
G36*
X0121243Y0070770D02*
X0122799Y0072326D01*
X0126333Y0068792D01*
X0124777Y0067236D01*
X0121243Y0070770D01*
G37*
G36*
X0119016Y0068542D02*
X0120572Y0070098D01*
X0124106Y0066564D01*
X0122550Y0065008D01*
X0119016Y0068542D01*
G37*
G36*
X0116789Y0066315D02*
X0118345Y0067871D01*
X0121879Y0064337D01*
X0120323Y0062781D01*
X0116789Y0066315D01*
G37*
G36*
X0114562Y0064088D02*
X0116118Y0065644D01*
X0119652Y0062110D01*
X0118096Y0060554D01*
X0114562Y0064088D01*
G37*
G36*
X0112335Y0061861D02*
X0113891Y0063417D01*
X0117425Y0059883D01*
X0115869Y0058327D01*
X0112335Y0061861D01*
G37*
G36*
X0110107Y0059634D02*
X0111663Y0061190D01*
X0115197Y0057656D01*
X0113641Y0056100D01*
X0110107Y0059634D01*
G37*
G36*
X0107880Y0057407D02*
X0109436Y0058963D01*
X0112970Y0055429D01*
X0111414Y0053873D01*
X0107880Y0057407D01*
G37*
G36*
X0105653Y0055180D02*
X0107209Y0056736D01*
X0110743Y0053202D01*
X0109187Y0051646D01*
X0105653Y0055180D01*
G37*
G36*
X0138462Y0040188D02*
X0140018Y0041744D01*
X0143552Y0038210D01*
X0141996Y0036654D01*
X0138462Y0040188D01*
G37*
G36*
X0140689Y0042415D02*
X0142245Y0043971D01*
X0145779Y0040437D01*
X0144223Y0038881D01*
X0140689Y0042415D01*
G37*
G36*
X0142916Y0044642D02*
X0144472Y0046198D01*
X0148006Y0042664D01*
X0146450Y0041108D01*
X0142916Y0044642D01*
G37*
G36*
X0145143Y0046869D02*
X0146699Y0048425D01*
X0150233Y0044891D01*
X0148677Y0043335D01*
X0145143Y0046869D01*
G37*
G36*
X0136235Y0037961D02*
X0137791Y0039517D01*
X0141325Y0035983D01*
X0139769Y0034427D01*
X0136235Y0037961D01*
G37*
G36*
X0134008Y0035734D02*
X0135564Y0037290D01*
X0139098Y0033756D01*
X0137542Y0032200D01*
X0134008Y0035734D01*
G37*
G36*
X0131781Y0033507D02*
X0133337Y0035063D01*
X0136871Y0031529D01*
X0135315Y0029973D01*
X0131781Y0033507D01*
G37*
G36*
X0129553Y0031280D02*
X0131109Y0032836D01*
X0134643Y0029302D01*
X0133087Y0027746D01*
X0129553Y0031280D01*
G37*
M02*
