G75*
%MOIN*%
%OFA0B0*%
%FSLAX25Y25*%
%IPPOS*%
%LPD*%
%AMOC8*
5,1,8,0,0,1.08239X$1,22.5*
%
%ADD10C,0.00300*%
%ADD11C,0.02200*%
%ADD12C,0.00800*%
%ADD13C,0.01600*%
%ADD14C,0.00600*%
D10*
X0159629Y0003650D02*
X0161055Y0003650D01*
X0161530Y0004125D01*
X0161530Y0004601D01*
X0161055Y0005076D01*
X0159629Y0005076D01*
X0161055Y0005076D02*
X0161530Y0005551D01*
X0161530Y0006027D01*
X0161055Y0006502D01*
X0159629Y0006502D01*
X0159629Y0003650D01*
X0162529Y0003650D02*
X0163480Y0003650D01*
X0163004Y0003650D02*
X0163004Y0006502D01*
X0162529Y0006502D02*
X0163480Y0006502D01*
X0164462Y0006502D02*
X0166364Y0006502D01*
X0165413Y0006502D02*
X0165413Y0003650D01*
X0167362Y0004125D02*
X0167838Y0003650D01*
X0168788Y0003650D01*
X0169264Y0004125D01*
X0169264Y0004601D01*
X0168788Y0005076D01*
X0167838Y0005076D01*
X0167362Y0005551D01*
X0167362Y0006027D01*
X0167838Y0006502D01*
X0168788Y0006502D01*
X0169264Y0006027D01*
X0173163Y0006502D02*
X0173163Y0003650D01*
X0173163Y0004601D02*
X0174589Y0004601D01*
X0175064Y0005076D01*
X0175064Y0006027D01*
X0174589Y0006502D01*
X0173163Y0006502D01*
X0176063Y0005551D02*
X0176538Y0005551D01*
X0176538Y0003650D01*
X0176063Y0003650D02*
X0177013Y0003650D01*
X0177996Y0003650D02*
X0178947Y0003650D01*
X0178471Y0003650D02*
X0178471Y0006502D01*
X0177996Y0006502D01*
X0176538Y0006502D02*
X0176538Y0006977D01*
X0180405Y0005551D02*
X0181356Y0005551D01*
X0181831Y0005076D01*
X0181831Y0003650D01*
X0180405Y0003650D01*
X0179930Y0004125D01*
X0180405Y0004601D01*
X0181831Y0004601D01*
X0182830Y0005551D02*
X0182830Y0003650D01*
X0184731Y0003650D02*
X0184731Y0005076D01*
X0184256Y0005551D01*
X0182830Y0005551D01*
X0185730Y0005551D02*
X0186205Y0005551D01*
X0186205Y0003650D01*
X0185730Y0003650D02*
X0186680Y0003650D01*
X0187663Y0002699D02*
X0188614Y0003650D01*
X0188138Y0003650D01*
X0188138Y0004125D01*
X0188614Y0004125D01*
X0188614Y0003650D01*
X0192497Y0003650D02*
X0192497Y0006502D01*
X0194398Y0006502D02*
X0194398Y0003650D01*
X0195397Y0004125D02*
X0195872Y0003650D01*
X0197298Y0003650D01*
X0197298Y0003175D02*
X0196823Y0002699D01*
X0196347Y0002699D01*
X0197298Y0003175D02*
X0197298Y0005551D01*
X0198297Y0005076D02*
X0198772Y0005551D01*
X0200198Y0005551D01*
X0200198Y0006502D02*
X0200198Y0003650D01*
X0198772Y0003650D01*
X0198297Y0004125D01*
X0198297Y0005076D01*
X0201197Y0005076D02*
X0201672Y0005551D01*
X0202623Y0005551D01*
X0203098Y0005076D01*
X0203098Y0004601D01*
X0201197Y0004601D01*
X0201197Y0005076D02*
X0201197Y0004125D01*
X0201672Y0003650D01*
X0202623Y0003650D01*
X0204097Y0003650D02*
X0204097Y0005551D01*
X0204097Y0004601D02*
X0205048Y0005551D01*
X0205523Y0005551D01*
X0206989Y0005551D02*
X0207940Y0005551D01*
X0208415Y0005076D01*
X0208415Y0003650D01*
X0206989Y0003650D01*
X0206514Y0004125D01*
X0206989Y0004601D01*
X0208415Y0004601D01*
X0209414Y0005551D02*
X0210840Y0005551D01*
X0211315Y0005076D01*
X0211315Y0004125D01*
X0210840Y0003650D01*
X0209414Y0003650D01*
X0209414Y0006502D01*
X0212789Y0005551D02*
X0213740Y0005551D01*
X0214215Y0005076D01*
X0214215Y0003650D01*
X0212789Y0003650D01*
X0212314Y0004125D01*
X0212789Y0004601D01*
X0214215Y0004601D01*
X0215214Y0005076D02*
X0215690Y0005551D01*
X0217116Y0005551D01*
X0217116Y0006502D02*
X0217116Y0003650D01*
X0215690Y0003650D01*
X0215214Y0004125D01*
X0215214Y0005076D01*
X0195397Y0005551D02*
X0195397Y0004125D01*
X0194398Y0005076D02*
X0192497Y0005076D01*
X0186205Y0006502D02*
X0186205Y0006977D01*
X0185796Y0096650D02*
X0185796Y0098551D01*
X0185796Y0097601D02*
X0186747Y0098551D01*
X0187222Y0098551D01*
X0188213Y0097601D02*
X0189164Y0096650D01*
X0190114Y0097601D01*
X0190114Y0099502D01*
X0191113Y0099027D02*
X0191589Y0099502D01*
X0192539Y0099502D01*
X0193015Y0099027D01*
X0193015Y0098551D01*
X0191113Y0096650D01*
X0193015Y0096650D01*
X0194013Y0096650D02*
X0194489Y0096650D01*
X0194489Y0097125D01*
X0194013Y0097125D01*
X0194013Y0096650D01*
X0195463Y0096650D02*
X0197365Y0098551D01*
X0197365Y0099027D01*
X0196889Y0099502D01*
X0195939Y0099502D01*
X0195463Y0099027D01*
X0195463Y0096650D02*
X0197365Y0096650D01*
X0188213Y0097601D02*
X0188213Y0099502D01*
X0184798Y0098076D02*
X0184798Y0097601D01*
X0182896Y0097601D01*
X0182896Y0098076D02*
X0182896Y0097125D01*
X0183372Y0096650D01*
X0184322Y0096650D01*
X0181913Y0096650D02*
X0181438Y0097125D01*
X0181438Y0099027D01*
X0180963Y0098551D02*
X0181913Y0098551D01*
X0182896Y0098076D02*
X0183372Y0098551D01*
X0184322Y0098551D01*
X0184798Y0098076D01*
X0179964Y0098076D02*
X0179964Y0097601D01*
X0178063Y0097601D01*
X0178063Y0098076D02*
X0178063Y0097125D01*
X0178538Y0096650D01*
X0179489Y0096650D01*
X0177064Y0096650D02*
X0177064Y0098076D01*
X0176589Y0098551D01*
X0176113Y0098076D01*
X0176113Y0096650D01*
X0175163Y0096650D02*
X0175163Y0098551D01*
X0175638Y0098551D01*
X0176113Y0098076D01*
X0174164Y0098076D02*
X0173688Y0098551D01*
X0172738Y0098551D01*
X0172262Y0098076D01*
X0172262Y0097125D01*
X0172738Y0096650D01*
X0173688Y0096650D01*
X0174164Y0097125D01*
X0174164Y0098076D01*
X0178063Y0098076D02*
X0178538Y0098551D01*
X0179489Y0098551D01*
X0179964Y0098076D01*
X0171264Y0098551D02*
X0169838Y0098551D01*
X0169362Y0098076D01*
X0169362Y0097125D01*
X0169838Y0096650D01*
X0171264Y0096650D01*
X0168364Y0096650D02*
X0168364Y0098551D01*
X0166462Y0098551D02*
X0166462Y0097125D01*
X0166938Y0096650D01*
X0168364Y0096650D01*
X0165480Y0096650D02*
X0164529Y0096650D01*
X0165004Y0096650D02*
X0165004Y0099502D01*
X0164529Y0099502D01*
X0163530Y0099027D02*
X0163055Y0099502D01*
X0162104Y0099502D01*
X0161629Y0099027D01*
X0161629Y0097125D01*
X0162104Y0096650D01*
X0163055Y0096650D01*
X0163530Y0097125D01*
X0163530Y0098076D01*
X0162579Y0098076D01*
D11*
X0156479Y0086620D02*
X0156479Y0086380D01*
X0096479Y0086380D02*
X0096479Y0086620D01*
X0111359Y0026500D02*
X0111599Y0026500D01*
D12*
X0063605Y0027878D02*
X0059668Y0027878D01*
X0059668Y0075122D01*
X0063605Y0075122D01*
X0075416Y0067248D02*
X0075416Y0035752D01*
X0108428Y0050036D02*
X0127943Y0069551D01*
X0146470Y0051024D01*
X0146470Y0049047D01*
X0127943Y0030520D01*
X0108428Y0050036D01*
X0147779Y0049965D02*
X0147781Y0050014D01*
X0147787Y0050062D01*
X0147797Y0050110D01*
X0147811Y0050157D01*
X0147828Y0050203D01*
X0147849Y0050247D01*
X0147874Y0050289D01*
X0147902Y0050329D01*
X0147934Y0050367D01*
X0147968Y0050402D01*
X0148005Y0050434D01*
X0148044Y0050463D01*
X0148086Y0050489D01*
X0148130Y0050511D01*
X0148175Y0050529D01*
X0148222Y0050544D01*
X0148269Y0050555D01*
X0148318Y0050562D01*
X0148367Y0050565D01*
X0148416Y0050564D01*
X0148464Y0050559D01*
X0148513Y0050550D01*
X0148560Y0050537D01*
X0148606Y0050520D01*
X0148650Y0050500D01*
X0148693Y0050476D01*
X0148734Y0050449D01*
X0148772Y0050418D01*
X0148808Y0050385D01*
X0148840Y0050349D01*
X0148870Y0050310D01*
X0148897Y0050269D01*
X0148920Y0050225D01*
X0148939Y0050180D01*
X0148955Y0050134D01*
X0148967Y0050087D01*
X0148975Y0050038D01*
X0148979Y0049989D01*
X0148979Y0049941D01*
X0148975Y0049892D01*
X0148967Y0049843D01*
X0148955Y0049796D01*
X0148939Y0049750D01*
X0148920Y0049705D01*
X0148897Y0049661D01*
X0148870Y0049620D01*
X0148840Y0049581D01*
X0148808Y0049545D01*
X0148772Y0049512D01*
X0148734Y0049481D01*
X0148693Y0049454D01*
X0148650Y0049430D01*
X0148606Y0049410D01*
X0148560Y0049393D01*
X0148513Y0049380D01*
X0148464Y0049371D01*
X0148416Y0049366D01*
X0148367Y0049365D01*
X0148318Y0049368D01*
X0148269Y0049375D01*
X0148222Y0049386D01*
X0148175Y0049401D01*
X0148130Y0049419D01*
X0148086Y0049441D01*
X0148044Y0049467D01*
X0148005Y0049496D01*
X0147968Y0049528D01*
X0147934Y0049563D01*
X0147902Y0049601D01*
X0147874Y0049641D01*
X0147849Y0049683D01*
X0147828Y0049727D01*
X0147811Y0049773D01*
X0147797Y0049820D01*
X0147787Y0049868D01*
X0147781Y0049916D01*
X0147779Y0049965D01*
X0177542Y0030949D02*
X0177542Y0025437D01*
X0179117Y0022681D02*
X0181479Y0020319D01*
X0183841Y0022681D01*
X0179117Y0022681D01*
X0178723Y0020319D02*
X0181479Y0020319D01*
X0184235Y0020319D01*
X0185416Y0017563D02*
X0185416Y0012051D01*
X0177542Y0012051D01*
X0177542Y0017563D01*
X0185416Y0025437D02*
X0185416Y0030949D01*
X0177542Y0030949D01*
D13*
X0137979Y0077500D02*
X0114979Y0077500D01*
X0114760Y0077503D01*
X0114541Y0077511D01*
X0114322Y0077524D01*
X0114104Y0077543D01*
X0113886Y0077567D01*
X0113669Y0077596D01*
X0113452Y0077630D01*
X0113237Y0077670D01*
X0113022Y0077715D01*
X0112809Y0077766D01*
X0112597Y0077821D01*
X0112386Y0077882D01*
X0112177Y0077947D01*
X0111970Y0078018D01*
X0111764Y0078094D01*
X0111560Y0078175D01*
X0111358Y0078260D01*
X0111159Y0078351D01*
X0110962Y0078446D01*
X0110767Y0078547D01*
X0110574Y0078652D01*
X0110384Y0078761D01*
X0110197Y0078875D01*
X0110013Y0078994D01*
X0109832Y0079117D01*
X0109654Y0079245D01*
X0109478Y0079377D01*
X0109307Y0079513D01*
X0109138Y0079653D01*
X0108973Y0079797D01*
X0108812Y0079945D01*
X0108654Y0080097D01*
X0108500Y0080253D01*
X0108350Y0080413D01*
X0108203Y0080576D01*
X0108061Y0080743D01*
X0107923Y0080913D01*
X0107789Y0081087D01*
X0107659Y0081263D01*
X0107534Y0081443D01*
X0107413Y0081626D01*
X0107297Y0081812D01*
X0107185Y0082000D01*
X0107078Y0082191D01*
X0106975Y0082385D01*
X0106877Y0082581D01*
X0106784Y0082779D01*
X0106696Y0082980D01*
X0106613Y0083183D01*
X0106534Y0083388D01*
X0106461Y0083594D01*
X0106393Y0083802D01*
X0106330Y0084012D01*
X0106272Y0084224D01*
X0106219Y0084436D01*
X0106171Y0084650D01*
X0106129Y0084865D01*
X0106092Y0085081D01*
X0106060Y0085298D01*
X0106033Y0085516D01*
X0106012Y0085734D01*
X0105996Y0085952D01*
X0105985Y0086171D01*
X0105980Y0086390D01*
X0105980Y0086610D01*
X0105985Y0086829D01*
X0105996Y0087048D01*
X0106012Y0087266D01*
X0106033Y0087484D01*
X0106060Y0087702D01*
X0106092Y0087919D01*
X0106129Y0088135D01*
X0106171Y0088350D01*
X0106219Y0088564D01*
X0106272Y0088776D01*
X0106330Y0088988D01*
X0106393Y0089198D01*
X0106461Y0089406D01*
X0106534Y0089612D01*
X0106613Y0089817D01*
X0106696Y0090020D01*
X0106784Y0090221D01*
X0106877Y0090419D01*
X0106975Y0090615D01*
X0107078Y0090809D01*
X0107185Y0091000D01*
X0107297Y0091188D01*
X0107413Y0091374D01*
X0107534Y0091557D01*
X0107659Y0091737D01*
X0107789Y0091913D01*
X0107923Y0092087D01*
X0108061Y0092257D01*
X0108203Y0092424D01*
X0108350Y0092587D01*
X0108500Y0092747D01*
X0108654Y0092903D01*
X0108812Y0093055D01*
X0108973Y0093203D01*
X0109138Y0093347D01*
X0109307Y0093487D01*
X0109478Y0093623D01*
X0109654Y0093755D01*
X0109832Y0093883D01*
X0110013Y0094006D01*
X0110197Y0094125D01*
X0110384Y0094239D01*
X0110574Y0094348D01*
X0110767Y0094453D01*
X0110962Y0094554D01*
X0111159Y0094649D01*
X0111358Y0094740D01*
X0111560Y0094825D01*
X0111764Y0094906D01*
X0111970Y0094982D01*
X0112177Y0095053D01*
X0112386Y0095118D01*
X0112597Y0095179D01*
X0112809Y0095234D01*
X0113022Y0095285D01*
X0113237Y0095330D01*
X0113452Y0095370D01*
X0113669Y0095404D01*
X0113886Y0095433D01*
X0114104Y0095457D01*
X0114322Y0095476D01*
X0114541Y0095489D01*
X0114760Y0095497D01*
X0114979Y0095500D01*
X0137979Y0095500D01*
X0138198Y0095497D01*
X0138417Y0095489D01*
X0138636Y0095476D01*
X0138854Y0095457D01*
X0139072Y0095433D01*
X0139289Y0095404D01*
X0139506Y0095370D01*
X0139721Y0095330D01*
X0139936Y0095285D01*
X0140149Y0095234D01*
X0140361Y0095179D01*
X0140572Y0095118D01*
X0140781Y0095053D01*
X0140988Y0094982D01*
X0141194Y0094906D01*
X0141398Y0094825D01*
X0141600Y0094740D01*
X0141799Y0094649D01*
X0141996Y0094554D01*
X0142191Y0094453D01*
X0142384Y0094348D01*
X0142574Y0094239D01*
X0142761Y0094125D01*
X0142945Y0094006D01*
X0143126Y0093883D01*
X0143304Y0093755D01*
X0143480Y0093623D01*
X0143651Y0093487D01*
X0143820Y0093347D01*
X0143985Y0093203D01*
X0144146Y0093055D01*
X0144304Y0092903D01*
X0144458Y0092747D01*
X0144608Y0092587D01*
X0144755Y0092424D01*
X0144897Y0092257D01*
X0145035Y0092087D01*
X0145169Y0091913D01*
X0145299Y0091737D01*
X0145424Y0091557D01*
X0145545Y0091374D01*
X0145661Y0091188D01*
X0145773Y0091000D01*
X0145880Y0090809D01*
X0145983Y0090615D01*
X0146081Y0090419D01*
X0146174Y0090221D01*
X0146262Y0090020D01*
X0146345Y0089817D01*
X0146424Y0089612D01*
X0146497Y0089406D01*
X0146565Y0089198D01*
X0146628Y0088988D01*
X0146686Y0088776D01*
X0146739Y0088564D01*
X0146787Y0088350D01*
X0146829Y0088135D01*
X0146866Y0087919D01*
X0146898Y0087702D01*
X0146925Y0087484D01*
X0146946Y0087266D01*
X0146962Y0087048D01*
X0146973Y0086829D01*
X0146978Y0086610D01*
X0146978Y0086390D01*
X0146973Y0086171D01*
X0146962Y0085952D01*
X0146946Y0085734D01*
X0146925Y0085516D01*
X0146898Y0085298D01*
X0146866Y0085081D01*
X0146829Y0084865D01*
X0146787Y0084650D01*
X0146739Y0084436D01*
X0146686Y0084224D01*
X0146628Y0084012D01*
X0146565Y0083802D01*
X0146497Y0083594D01*
X0146424Y0083388D01*
X0146345Y0083183D01*
X0146262Y0082980D01*
X0146174Y0082779D01*
X0146081Y0082581D01*
X0145983Y0082385D01*
X0145880Y0082191D01*
X0145773Y0082000D01*
X0145661Y0081812D01*
X0145545Y0081626D01*
X0145424Y0081443D01*
X0145299Y0081263D01*
X0145169Y0081087D01*
X0145035Y0080913D01*
X0144897Y0080743D01*
X0144755Y0080576D01*
X0144608Y0080413D01*
X0144458Y0080253D01*
X0144304Y0080097D01*
X0144146Y0079945D01*
X0143985Y0079797D01*
X0143820Y0079653D01*
X0143651Y0079513D01*
X0143480Y0079377D01*
X0143304Y0079245D01*
X0143126Y0079117D01*
X0142945Y0078994D01*
X0142761Y0078875D01*
X0142574Y0078761D01*
X0142384Y0078652D01*
X0142191Y0078547D01*
X0141996Y0078446D01*
X0141799Y0078351D01*
X0141600Y0078260D01*
X0141398Y0078175D01*
X0141194Y0078094D01*
X0140988Y0078018D01*
X0140781Y0077947D01*
X0140572Y0077882D01*
X0140361Y0077821D01*
X0140149Y0077766D01*
X0139936Y0077715D01*
X0139721Y0077670D01*
X0139506Y0077630D01*
X0139289Y0077596D01*
X0139072Y0077567D01*
X0138854Y0077543D01*
X0138636Y0077524D01*
X0138417Y0077511D01*
X0138198Y0077503D01*
X0137979Y0077500D01*
D14*
X0137979Y0079500D02*
X0114979Y0079500D01*
X0123979Y0083000D02*
X0123979Y0086500D01*
X0121479Y0086500D01*
X0123979Y0086500D02*
X0123979Y0090000D01*
X0125479Y0090000D02*
X0127479Y0090000D01*
X0127479Y0083000D01*
X0125479Y0083000D01*
X0125479Y0090000D01*
X0128979Y0090000D02*
X0128979Y0086500D01*
X0131479Y0086500D01*
X0128979Y0086500D02*
X0128979Y0083000D01*
X0137979Y0079500D02*
X0138149Y0079502D01*
X0138320Y0079508D01*
X0138490Y0079519D01*
X0138660Y0079533D01*
X0138829Y0079552D01*
X0138998Y0079575D01*
X0139167Y0079601D01*
X0139334Y0079632D01*
X0139501Y0079667D01*
X0139667Y0079707D01*
X0139832Y0079750D01*
X0139996Y0079797D01*
X0140158Y0079848D01*
X0140320Y0079903D01*
X0140480Y0079962D01*
X0140638Y0080025D01*
X0140795Y0080091D01*
X0140950Y0080162D01*
X0141104Y0080236D01*
X0141255Y0080314D01*
X0141405Y0080396D01*
X0141553Y0080481D01*
X0141698Y0080570D01*
X0141841Y0080662D01*
X0141982Y0080758D01*
X0142121Y0080857D01*
X0142257Y0080960D01*
X0142391Y0081065D01*
X0142522Y0081174D01*
X0142650Y0081287D01*
X0142776Y0081402D01*
X0142899Y0081520D01*
X0143018Y0081641D01*
X0143135Y0081766D01*
X0143249Y0081893D01*
X0143360Y0082022D01*
X0143467Y0082155D01*
X0143571Y0082290D01*
X0143672Y0082427D01*
X0143770Y0082567D01*
X0143864Y0082709D01*
X0143954Y0082853D01*
X0144041Y0083000D01*
X0144125Y0083149D01*
X0144204Y0083299D01*
X0144280Y0083452D01*
X0144353Y0083606D01*
X0144421Y0083762D01*
X0144486Y0083920D01*
X0144547Y0084079D01*
X0144604Y0084240D01*
X0144657Y0084402D01*
X0144706Y0084565D01*
X0144751Y0084729D01*
X0144792Y0084895D01*
X0144830Y0085061D01*
X0144863Y0085229D01*
X0144891Y0085397D01*
X0144916Y0085565D01*
X0144937Y0085734D01*
X0144954Y0085904D01*
X0144966Y0086074D01*
X0144974Y0086244D01*
X0144978Y0086415D01*
X0144978Y0086585D01*
X0144974Y0086756D01*
X0144966Y0086926D01*
X0144954Y0087096D01*
X0144937Y0087266D01*
X0144916Y0087435D01*
X0144891Y0087603D01*
X0144863Y0087771D01*
X0144830Y0087939D01*
X0144792Y0088105D01*
X0144751Y0088271D01*
X0144706Y0088435D01*
X0144657Y0088598D01*
X0144604Y0088760D01*
X0144547Y0088921D01*
X0144486Y0089080D01*
X0144421Y0089238D01*
X0144353Y0089394D01*
X0144280Y0089548D01*
X0144204Y0089701D01*
X0144125Y0089851D01*
X0144041Y0090000D01*
X0143954Y0090147D01*
X0143864Y0090291D01*
X0143770Y0090433D01*
X0143672Y0090573D01*
X0143571Y0090710D01*
X0143467Y0090845D01*
X0143360Y0090978D01*
X0143249Y0091107D01*
X0143135Y0091234D01*
X0143018Y0091359D01*
X0142899Y0091480D01*
X0142776Y0091598D01*
X0142650Y0091713D01*
X0142522Y0091826D01*
X0142391Y0091935D01*
X0142257Y0092040D01*
X0142121Y0092143D01*
X0141982Y0092242D01*
X0141841Y0092338D01*
X0141698Y0092430D01*
X0141553Y0092519D01*
X0141405Y0092604D01*
X0141255Y0092686D01*
X0141104Y0092764D01*
X0140950Y0092838D01*
X0140795Y0092909D01*
X0140638Y0092975D01*
X0140480Y0093038D01*
X0140320Y0093097D01*
X0140158Y0093152D01*
X0139996Y0093203D01*
X0139832Y0093250D01*
X0139667Y0093293D01*
X0139501Y0093333D01*
X0139334Y0093368D01*
X0139167Y0093399D01*
X0138998Y0093425D01*
X0138829Y0093448D01*
X0138660Y0093467D01*
X0138490Y0093481D01*
X0138320Y0093492D01*
X0138149Y0093498D01*
X0137979Y0093500D01*
X0114979Y0093500D01*
X0114809Y0093498D01*
X0114638Y0093492D01*
X0114468Y0093481D01*
X0114298Y0093467D01*
X0114129Y0093448D01*
X0113960Y0093425D01*
X0113791Y0093399D01*
X0113624Y0093368D01*
X0113457Y0093333D01*
X0113291Y0093293D01*
X0113126Y0093250D01*
X0112962Y0093203D01*
X0112800Y0093152D01*
X0112638Y0093097D01*
X0112478Y0093038D01*
X0112320Y0092975D01*
X0112163Y0092909D01*
X0112008Y0092838D01*
X0111854Y0092764D01*
X0111703Y0092686D01*
X0111553Y0092604D01*
X0111405Y0092519D01*
X0111260Y0092430D01*
X0111117Y0092338D01*
X0110976Y0092242D01*
X0110837Y0092143D01*
X0110701Y0092040D01*
X0110567Y0091935D01*
X0110436Y0091826D01*
X0110308Y0091713D01*
X0110182Y0091598D01*
X0110059Y0091480D01*
X0109940Y0091359D01*
X0109823Y0091234D01*
X0109709Y0091107D01*
X0109598Y0090978D01*
X0109491Y0090845D01*
X0109387Y0090710D01*
X0109286Y0090573D01*
X0109188Y0090433D01*
X0109094Y0090291D01*
X0109004Y0090147D01*
X0108917Y0090000D01*
X0108833Y0089851D01*
X0108754Y0089701D01*
X0108678Y0089548D01*
X0108605Y0089394D01*
X0108537Y0089238D01*
X0108472Y0089080D01*
X0108411Y0088921D01*
X0108354Y0088760D01*
X0108301Y0088598D01*
X0108252Y0088435D01*
X0108207Y0088271D01*
X0108166Y0088105D01*
X0108128Y0087939D01*
X0108095Y0087771D01*
X0108067Y0087603D01*
X0108042Y0087435D01*
X0108021Y0087266D01*
X0108004Y0087096D01*
X0107992Y0086926D01*
X0107984Y0086756D01*
X0107980Y0086585D01*
X0107980Y0086415D01*
X0107984Y0086244D01*
X0107992Y0086074D01*
X0108004Y0085904D01*
X0108021Y0085734D01*
X0108042Y0085565D01*
X0108067Y0085397D01*
X0108095Y0085229D01*
X0108128Y0085061D01*
X0108166Y0084895D01*
X0108207Y0084729D01*
X0108252Y0084565D01*
X0108301Y0084402D01*
X0108354Y0084240D01*
X0108411Y0084079D01*
X0108472Y0083920D01*
X0108537Y0083762D01*
X0108605Y0083606D01*
X0108678Y0083452D01*
X0108754Y0083299D01*
X0108833Y0083149D01*
X0108917Y0083000D01*
X0109004Y0082853D01*
X0109094Y0082709D01*
X0109188Y0082567D01*
X0109286Y0082427D01*
X0109387Y0082290D01*
X0109491Y0082155D01*
X0109598Y0082022D01*
X0109709Y0081893D01*
X0109823Y0081766D01*
X0109940Y0081641D01*
X0110059Y0081520D01*
X0110182Y0081402D01*
X0110308Y0081287D01*
X0110436Y0081174D01*
X0110567Y0081065D01*
X0110701Y0080960D01*
X0110837Y0080857D01*
X0110976Y0080758D01*
X0111117Y0080662D01*
X0111260Y0080570D01*
X0111405Y0080481D01*
X0111553Y0080396D01*
X0111703Y0080314D01*
X0111854Y0080236D01*
X0112008Y0080162D01*
X0112163Y0080091D01*
X0112320Y0080025D01*
X0112478Y0079962D01*
X0112638Y0079903D01*
X0112800Y0079848D01*
X0112962Y0079797D01*
X0113126Y0079750D01*
X0113291Y0079707D01*
X0113457Y0079667D01*
X0113624Y0079632D01*
X0113791Y0079601D01*
X0113960Y0079575D01*
X0114129Y0079552D01*
X0114298Y0079533D01*
X0114468Y0079519D01*
X0114638Y0079508D01*
X0114809Y0079502D01*
X0114979Y0079500D01*
X0161479Y0074000D02*
X0161479Y0069000D01*
X0163979Y0066500D01*
X0178979Y0066500D01*
X0181479Y0069000D01*
X0181479Y0074000D01*
X0183979Y0076500D01*
X0188979Y0076500D01*
X0191479Y0074000D01*
X0191479Y0069000D01*
X0188979Y0066500D01*
X0191479Y0064000D01*
X0191479Y0059000D01*
X0188979Y0056500D01*
X0191479Y0054000D01*
X0191479Y0049000D01*
X0188979Y0046500D01*
X0191479Y0044000D01*
X0191479Y0039000D01*
X0188979Y0036500D01*
X0183979Y0036500D01*
X0181479Y0039000D01*
X0181479Y0044000D01*
X0183979Y0046500D01*
X0188979Y0046500D01*
X0183979Y0046500D01*
X0181479Y0049000D01*
X0181479Y0054000D01*
X0183979Y0056500D01*
X0181479Y0059000D01*
X0181479Y0064000D01*
X0183979Y0066500D01*
X0181479Y0069000D01*
X0181479Y0074000D01*
X0178979Y0076500D01*
X0163979Y0076500D01*
X0161479Y0074000D01*
X0163979Y0066500D02*
X0161479Y0064000D01*
X0161479Y0059000D01*
X0163979Y0056500D01*
X0178979Y0056500D01*
X0181479Y0059000D01*
X0181479Y0064000D01*
X0178979Y0066500D01*
X0183979Y0066500D02*
X0188979Y0066500D01*
X0188979Y0056500D02*
X0183979Y0056500D01*
X0181479Y0054000D02*
X0181479Y0049000D01*
X0178979Y0046500D01*
X0163979Y0046500D01*
X0161479Y0049000D01*
X0161479Y0054000D01*
X0163979Y0056500D01*
X0178979Y0056500D02*
X0181479Y0054000D01*
X0178979Y0046500D02*
X0181479Y0044000D01*
X0181479Y0039000D01*
X0178979Y0036500D01*
X0163979Y0036500D01*
X0161479Y0039000D01*
X0161479Y0044000D01*
X0163979Y0046500D01*
M02*
