%
M48
M72
T01C0.02000
T02C0.02362
T03C0.03200
T04C0.03600
T05C0.04000
T06C0.04331
T07C0.08661
%
T01
X106479Y36500
X127979Y35000
X141479Y26500
X114979Y52500
X101479Y61500
X140479Y53500
X111479Y81500
X81479Y86500
X166479Y86500
T02
X88979Y41000
T03
X116979Y86500
X135979Y86500
T04
X80928Y65280
X80928Y55937
X80928Y47063
X80928Y37720
T05
X166479Y41500
X176479Y41500
X186479Y41500
X186479Y51500
X176479Y51500
X166479Y51500
X166479Y61500
X176479Y61500
X186479Y61500
X186479Y71500
X176479Y71500
X166479Y71500
T06
X71085Y60358
X71085Y42642
T07
X71479Y28665
X71479Y74335
M30
